<?xml version="1.0" encoding="UTF-8" standalone="no"?><!DOCTYPE svg PUBLIC "-//W3C//DTD SVG 1.1//EN" "http://www.w3.org/Graphics/SVG/1.1/DTD/svg11.dtd"><svg width="100%" height="100%" viewBox="0 0 1667 1667" version="1.1" xmlns="http://www.w3.org/2000/svg" xmlns:xlink="http://www.w3.org/1999/xlink" xml:space="preserve" xmlns:serif="http://www.serif.com/" style="fill-rule:evenodd;clip-rule:evenodd;stroke-linejoin:round;stroke-miterlimit:2;"><rect id="Window" x="0" y="0" width="1666.67" height="1666.67" style="fill:none;"/><g id="Window1" serif:id="Window"><path d="M1436.32,838.765c-0,294.025 -405.777,543.239 -738.8,543.239c-333.024,-0 -467.181,-249.214 -467.181,-543.239c0,-294.024 481.824,-554.102 814.848,-554.102c333.023,-0 391.133,260.078 391.133,554.102" style="fill:#fbb040;fill-rule:nonzero;"/><g><g><g><path d="M1229.3,1161.7c-213.489,-13.619 -779.299,11.405 -1040.63,-0c-30.624,-1.338 -56.632,-24.871 -55.502,-55.502c6.127,-165.951 -7.777,-507.243 0,-693.719c1.277,-30.626 24.853,-55.039 55.502,-55.501c273.729,-4.133 795.67,-10.757 1040.63,-0c30.624,1.345 55.501,24.85 55.501,55.501c0,0 4.618,284.895 -1.241,384.04c-3.47,58.744 4.035,229.921 1.241,309.679c-1.072,30.634 -24.91,57.452 -55.501,55.502" style="fill:#fff;fill-rule:nonzero;stroke:#000;stroke-width:4.17px;"/><path d="M1283.65,413.62c-0,-30.654 -24.853,-55.017 -55.502,-55.502c-260.857,-4.133 -773.525,-5.458 -1040.63,0c-30.646,0.626 -55.501,24.848 -55.501,55.502l1151.63,-0Z" style="fill-rule:nonzero;"/><clipPath id="_clip1"><path d="M1283.65,413.62c-0,-30.654 -24.853,-55.017 -55.502,-55.502c-260.857,-4.133 -773.525,-5.458 -1040.63,0c-30.646,0.626 -55.501,24.848 -55.501,55.502l1151.63,-0Z" clip-rule="nonzero"/></clipPath><g clip-path="url(#_clip1)"><g><path d="M1140.42,372.973c7.802,-0 14.128,6.326 14.128,14.128c0,7.805 -6.326,14.131 -14.128,14.131c-7.802,0 -14.128,-6.326 -14.128,-14.131c-0,-7.802 6.326,-14.128 14.128,-14.128" style="fill-rule:nonzero;"/><ellipse cx="1140.42" cy="387.103" rx="14.128" ry="14.13" style="fill:none;stroke:#fff;stroke-width:2.29px;stroke-linecap:round;stroke-miterlimit:4;"/><path d="M1190.01,373.157c7.701,1.246 12.934,8.503 11.685,16.205c-1.246,7.701 -8.501,12.934 -16.202,11.685c-7.704,-1.246 -12.935,-8.501 -11.688,-16.205c1.249,-7.701 8.503,-12.932 16.205,-11.685" style="fill-rule:nonzero;"/><path d="M1190.01,373.156c-7.697,-1.247 -14.958,3.991 -16.205,11.688c-1.246,7.697 3.991,14.959 11.688,16.205c7.698,1.247 14.959,-3.991 16.205,-11.688c1.247,-7.697 -3.99,-14.958 -11.688,-16.205Z" style="fill:none;stroke:#fff;stroke-width:2.29px;stroke-linecap:round;stroke-miterlimit:4;"/><path d="M1235.08,372.973c7.802,-0 14.128,6.326 14.128,14.128c0,7.805 -6.326,14.131 -14.128,14.131c-7.805,0 -14.128,-6.326 -14.128,-14.131c-0,-7.802 6.323,-14.128 14.128,-14.128" style="fill-rule:nonzero;"/><ellipse cx="1235.08" cy="387.103" rx="14.128" ry="14.13" style="fill:none;stroke:#fff;stroke-width:2.29px;stroke-linecap:round;stroke-miterlimit:4;"/></g></g><path d="M1283.65,413.62c-0,-30.654 -24.853,-55.017 -55.502,-55.502c-260.857,-4.133 -773.525,-5.458 -1040.63,0c-30.646,0.626 -55.501,24.848 -55.501,55.502l1151.63,-0Z" style="fill:none;fill-rule:nonzero;stroke:#000;stroke-width:4.17px;stroke-linejoin:miter;stroke-miterlimit:10;"/></g><g><path d="M998.061,489.156c0.008,-6.726 -6.313,-10.739 -11.521,-10.721c-66.113,0.225 -132.196,2.851 -198.307,3.269c-44.176,0.279 -88.357,0.139 -132.533,0.254c-143.461,0.373 -286.921,0.373 -430.382,0.373c-5.194,-0 -11.701,3.871 -11.701,10.664c-0,60.918 -0.328,121.851 0.258,182.766c0.68,70.69 2.333,141.388 2.27,212.084c-0.04,44.849 -2.278,89.635 -2.502,134.48c-0.034,6.679 6.357,10.634 11.491,10.633c72.763,-0.021 145.525,-0.286 218.288,-0.286c180.685,0.001 361.369,0.287 542.054,0.287c5.177,0 11.722,-3.87 11.631,-10.678c0.847,-15.24 1.219,-30.506 1.156,-45.777c-0.077,-19.067 -0.773,-38.121 -1.073,-57.183c-0.241,-15.313 -0.21,-30.626 0.074,-45.938c1.304,-70.465 5.353,-140.852 5.652,-211.346c0.097,-22.758 -0.639,-45.507 -1.314,-68.248c-1.036,-34.884 -2.365,-69.755 -3.541,-104.633Z" style="fill:#fff;stroke:#000;stroke-width:4.17px;stroke-linecap:round;stroke-miterlimit:1.5;"/></g></g><g><path d="M201.315,714.934c13.681,9.127 55.985,59.572 68.036,74.905c35.921,43.492 43.584,40.709 87.741,75.754c79.963,39.563 176.236,-14.296 186.213,-28.49c9.977,-14.193 -0.803,-49.976 -11.946,-74.136c-53.672,-11.376 -96.569,35.621 -150.208,22.335c-46.102,-50.878 -131.301,-95.16 -137.291,-101.423c-12.534,-13.104 -14.942,-31 -22.005,-47.372c-2.338,-5.42 -6.21,-15.617 -12.519,-17.439c-9.947,-2.872 -2.978,21.563 -2.215,24.331c0.257,0.932 2.363,6.719 -0.251,6.593c-4.295,-0.207 -8.303,-8.111 -10.669,-10.841c-8.352,-9.637 -17.857,-18.523 -27.584,-26.709c-1.792,-1.507 -12.329,-10.649 -15.461,-7.9c-1.865,1.638 0.926,5.941 1.648,7.245c3.774,6.809 9.435,12.574 14.63,18.206c0.646,0.701 6.732,8.278 6.337,8.683c-4.193,4.297 -21.764,-16.892 -28.954,-23.529c-1.747,-1.613 -7.642,-8.401 -10.792,-5.866c-2.519,2.027 1.977,7.305 2.927,8.639c5.377,7.555 10.678,15.082 17.175,21.659c0.887,0.898 7.465,6.261 5.988,8.121c-1.637,2.062 -7.946,-3.11 -8.985,-3.903c-6.339,-4.844 -12.001,-10.52 -18.304,-15.413c-1.196,-0.928 -5.161,-4.657 -7.081,-3.252c-2.745,2.011 3.215,8.96 4.166,10.131c5.421,6.671 11.564,12.716 17.642,18.746c1.337,1.327 5.818,4.823 5.074,7.337c-0.74,2.496 -6.025,-0.644 -6.868,-1.172c-5.484,-3.44 -9.74,-8.517 -15.399,-11.738c-0.979,-0.557 -5.085,-3.187 -6.083,-1.035c-1.469,3.168 1.508,7.213 3.086,9.352c5.415,7.336 11.408,14.375 17.589,21.026c16.141,17.37 35.269,24.418 54.363,37.155Z" style="fill:#fff;stroke:#000;stroke-width:4.17px;stroke-linecap:round;stroke-miterlimit:10;"/><path d="M722.385,720.869c-5.745,23.215 -59.132,28.769 -72.204,3.912c-85.334,-34.084 -121.432,27.366 -197.176,48.254c-3.302,23.33 12.824,66.765 12.519,98.654c47.767,-7.7 74.771,-15.458 102.5,-4.647c0.792,16.985 3.035,86.746 0.354,105.429c87.958,1.957 181.564,1.241 278.196,-3.502c-5.136,-13.21 -9.032,-41.594 -7.102,-64.564c1.507,-17.936 5.272,-31.948 2.317,-50.298c-0.804,-4.988 3.054,-16.661 5.409,-16.106c8.553,2.017 22.51,7.913 31.122,3.819c7.228,-3.435 8.719,-19.106 10.452,-25.736c5.141,-19.671 0.897,-58.105 2.095,-78.447c0.39,-6.638 -37.53,-11.779 -53.711,-14.607c-4.588,-0.801 -9.214,-1.369 -13.808,-2.131c-1.649,-0.274 -3.295,-0.553 -4.961,-0.713c-0.837,-0.081 -3.115,0.445 -2.52,-0.15c-29.477,-8.563 -59.591,-11.664 -93.482,0.833" style="fill:#fff;fill-rule:nonzero;stroke:#000;stroke-width:4.17px;stroke-linejoin:miter;stroke-miterlimit:24;"/><path d="M853.563,1032.96l-346.547,0l9.08,-83.97c55.474,26.445 260.29,29.172 328.09,-26.077c7.328,39.961 9.875,76.192 9.377,110.047Z" style="stroke:#000;stroke-width:4.17px;"/><g><g><path d="M586.285,480.192c10.308,-9.457 24.746,-11.037 38.125,-12.129c30.371,-2.478 64.039,1.364 85.212,25.626c11.938,13.657 11.259,33.969 11.163,50.889c-0.045,7.829 -1.048,17.572 2.337,24.985c11.233,24.407 31.902,45.032 49.73,64.662c-21.091,19.249 -53.914,24.356 -80.821,28.151c-18.327,2.585 -35.923,9.057 -54.374,10.864c-28.188,2.762 -59.89,-4.347 -86.231,-13.482c9.016,-16.375 13.625,-35.97 11.218,-54.617c-3.338,-25.856 -23.631,-49.332 -16.596,-76.284c5.213,-20.04 17.343,-45.029 40.237,-48.665Z" style="fill-rule:nonzero;stroke:#000;stroke-width:4.17px;stroke-linejoin:miter;stroke-miterlimit:24;"/><path d="M698.478,658.047c1.837,14.556 7.979,27.838 16.751,39.494c4.983,6.621 13.079,12.736 16.274,20.503c-8.364,44.867 -85.476,52.41 -94.718,4.072c7.923,-17.985 21.307,-43.195 7.856,-62.054c-9.526,-13.382 -25.693,-9.745 -38.564,-18.359c-24.089,-16.118 -31.86,-43.694 -31.886,-71.45c-0.021,-26.421 -13.089,-55.201 10.036,-74.602c13.437,9.512 29.184,19.222 45.951,20.695c2.784,0.244 5.582,0.269 8.372,0.138c4.689,-0.221 21.708,-5.846 23.747,2.123c1.36,5.281 2.278,10.671 3.691,15.938c0.022,0.083 1.14,4.677 1.876,3.106c4.455,-9.538 14.915,-16.257 22.326,-5.321c1.268,1.872 2.254,4.018 2.582,6.269c1.826,12.541 -3.771,21.79 -15.404,26.521c-1.117,0.453 1.62,6.869 1.654,6.971c2.683,8.25 5.131,16.563 7.323,24.958c5.232,20.042 9.54,40.437 12.133,60.998" style="fill:#fff;fill-rule:nonzero;stroke:#000;stroke-width:4.17px;"/><path d="M698.478,658.047c1.837,14.556 7.979,27.838 16.751,39.494c4.983,6.621 13.079,12.736 16.274,20.503c-8.364,44.867 -85.476,52.41 -94.718,4.072c7.923,-17.985 21.307,-43.195 7.856,-62.054c-9.526,-13.382 -25.693,-9.745 -38.564,-18.359c-24.089,-16.118 -31.86,-43.694 -31.886,-71.45c-0.021,-26.421 -13.089,-55.201 10.036,-74.602c13.437,9.512 29.184,19.222 45.951,20.695c2.784,0.244 5.582,0.269 8.372,0.138c4.689,-0.221 21.708,-5.846 23.747,2.123c1.36,5.281 2.278,10.671 3.691,15.938c0.022,0.083 1.14,4.677 1.876,3.106c4.455,-9.538 14.915,-16.257 22.326,-5.321c1.268,1.872 2.254,4.018 2.582,6.269c1.826,12.541 -3.771,21.79 -15.404,26.521c-1.117,0.453 1.62,6.869 1.654,6.971c2.683,8.25 5.131,16.563 7.323,24.958c5.232,20.042 9.54,40.437 12.133,60.998Z" style="fill:none;fill-rule:nonzero;stroke:#000;stroke-width:4.17px;stroke-linejoin:miter;stroke-miterlimit:10;"/><path d="M677.718,548.729c1.082,-1.68 3.256,-5.896 -0.198,-6.425" style="fill:none;fill-rule:nonzero;stroke:#000;stroke-width:4.17px;stroke-linecap:round;stroke-linejoin:miter;stroke-miterlimit:10;"/><path d="M631.06,543.37c-4.297,-2.206 -9.204,-2.755 -13.565,-0.359" style="fill:none;fill-rule:nonzero;stroke:#000;stroke-width:4.17px;stroke-linecap:round;stroke-linejoin:miter;stroke-miterlimit:10;"/><path d="M585.926,546.758c4.066,-3.694 8.749,-6.092 14.049,-3.323" style="fill:none;fill-rule:nonzero;stroke:#000;stroke-width:4.17px;stroke-linecap:round;stroke-linejoin:miter;stroke-miterlimit:10;"/><path d="M614.379,584.642c-3.055,1.432 -10.25,3.267 -12.272,-0.873c-1.997,-4.091 4.132,-6.913 6.067,-9.663c2.91,-4.135 2.968,-9.368 2.053,-14.157" style="fill:none;fill-rule:nonzero;stroke:#000;stroke-width:4.17px;stroke-linecap:round;stroke-linejoin:miter;stroke-miterlimit:10;"/><path d="M634.39,600.794c-6.899,2.423 -13.772,2.824 -21.011,3.044c-0.52,6.27 4.653,14.925 11.885,13.965c7.232,-0.962 10.284,-10.9 9.126,-17.009Z" style="fill:none;fill-rule:nonzero;stroke:#000;stroke-width:4.17px;stroke-linecap:round;stroke-linejoin:miter;stroke-miterlimit:10;"/><path d="M595.588,552.507c2.703,-0.068 4.99,2.336 5.367,4.903c0.371,2.534 -1.323,4.98 -3.992,5.015c-2.72,0.035 -5.019,-2.199 -5.363,-4.841c-0.33,-2.532 1.307,-5.008 3.988,-5.077m-0,0c2.703,-0.068 4.99,2.336 5.367,4.903c0.371,2.534 -1.323,4.98 -3.992,5.015c-2.72,0.035 -5.019,-2.199 -5.363,-4.841c-0.33,-2.532 1.307,-5.008 3.988,-5.077" style="fill-rule:nonzero;"/><path d="M624.308,551.826c2.562,-0.483 4.65,1.614 5.018,4.021c0.366,2.391 -0.851,5.464 -3.455,5.987c-2.664,0.535 -4.729,-1.928 -5.108,-4.337c-0.391,-2.484 0.922,-5.176 3.545,-5.671m0,0c2.562,-0.483 4.65,1.614 5.018,4.021c0.366,2.391 -0.851,5.464 -3.455,5.987c-2.664,0.535 -4.729,-1.928 -5.108,-4.337c-0.391,-2.484 0.922,-5.176 3.545,-5.671" style="fill-rule:nonzero;"/></g></g><g><path d="M392.806,1032.96c-16.086,-31.141 -14.984,-90.705 -12.17,-129.105c0.29,-3.951 0.597,-7.677 0.906,-11.126c0.644,-7.184 1.293,-13.162 1.795,-17.445c0.549,-4.675 0.922,-7.331 0.922,-7.331c-0.52,-0.715 -0.787,-1.442 -0.787,-2.178c0,-8.204 33.124,-15.233 80.002,-18.122c13.079,-0.806 27.229,-1.29 42.028,-1.387c1.844,-0.013 3.698,-0.019 5.561,-0.019c7.188,0 14.238,0.092 21.104,0.267c60.391,1.541 106.487,9.583 106.487,19.261c-0,0.966 -0.46,1.916 -1.347,2.844c0,0 1.672,9.289 3.616,23.785c0.463,3.45 0.941,7.194 1.416,11.178c0.872,7.316 1.732,15.44 2.464,24.033c1.07,12.558 1.867,26.116 2.024,39.61c0.025,2.084 0.034,4.167 0.027,6.244c-0.079,21.991 -2.015,43.372 -7.401,59.491l-246.647,0Z" style="fill:#fff;stroke:#000;stroke-width:4.17px;stroke-linecap:round;stroke-miterlimit:1.5;"/><path d="M384.993,870.856c2.812,-0 5.643,0.263 8.488,0.669m229.31,-0.476c1.404,-0.339 2.793,-0.713 4.162,-1.125c0.781,-0.235 11.285,-3.638 11.324,-4.103" style="fill:none;stroke:#000;stroke-width:4.17px;stroke-linecap:round;stroke-miterlimit:1.5;"/><path d="M639.88,880.919c2.911,-0.585 5.602,-0.943 9.284,-1.038c7.676,-0.199 15.304,-0.169 22.979,-0.169c1.953,0 6.691,-0.894 8.319,0.371c2.597,2.015 1.959,6.537 2.115,9.342c0.106,1.895 0.998,5.132 0.116,6.885c-1.816,3.609 -10.451,3.836 -13.672,4.266c-12.585,1.678 -25.453,2.979 -38.11,4.004c-2.251,0.182 -10.324,1.118 -12.183,-0.508c-0.857,-0.75 -1.621,-7.928 -1.08,-7.839c-0.098,0.07 1.265,-0.031 1.45,-0.064c1.014,-0.183 2.015,-0.432 3.023,-0.639c2.978,-0.609 5.896,-1.389 8.911,-1.803c6.563,-0.903 13.113,-1.721 19.667,-2.663c1.278,-0.183 5.995,0.086 6.877,-0.792c0.216,-0.215 0.687,-2.226 0.471,-2.442c-0.527,-0.527 -3.695,0.342 -4.306,0.423c-3.404,0.449 -9.624,-0.529 -12.711,1.014" style="stroke:#000;stroke-width:4.17px;stroke-linecap:round;stroke-miterlimit:1.5;"/><path d="M380.135,880.919c-2.911,-0.585 -5.602,-0.943 -9.284,-1.038c-7.676,-0.199 -15.303,-0.169 -22.979,-0.169c-1.953,0 -6.691,-0.894 -8.319,0.371c-2.596,2.015 -1.959,6.537 -2.115,9.342c-0.106,1.895 -0.998,5.132 -0.116,6.885c1.816,3.609 10.451,3.836 13.672,4.266c12.585,1.678 25.453,2.979 38.111,4.004c2.25,0.182 10.323,1.118 12.182,-0.508c0.857,-0.75 1.621,-7.928 1.08,-7.839c0.099,0.07 -1.265,-0.031 -1.45,-0.064c-1.014,-0.183 -2.014,-0.432 -3.023,-0.639c-2.978,-0.609 -5.896,-1.389 -8.911,-1.803c-6.563,-0.903 -13.113,-1.721 -19.667,-2.663c-1.278,-0.183 -5.994,0.086 -6.877,-0.792c-0.216,-0.215 -0.687,-2.226 -0.471,-2.442c0.527,-0.527 3.695,0.342 4.306,0.423c3.405,0.449 9.624,-0.529 12.711,1.014" style="stroke:#000;stroke-width:4.17px;stroke-linecap:round;stroke-miterlimit:1.5;"/><path d="M393.481,871.525c21.526,-8.005 65.104,-13.485 115.312,-13.485c49.206,-0 92.045,5.263 113.998,13.009c-12.395,2.996 -26.016,3.309 -38.518,3.398c-54.279,0.384 -108.772,2.822 -163.002,1.414c-9.32,-0.242 -18.629,-3.029 -27.79,-4.336Z" style="stroke:#000;stroke-width:4.17px;stroke-linecap:round;stroke-miterlimit:1.5;"/></g><path d="M539.836,783.765c-0.423,-0.344 0.585,-4.323 0.681,-5.083c0.771,-6.083 2.164,-12.077 3.564,-18.039c3.684,-15.69 6.92,-31.442 8.397,-47.518c0.326,-3.546 -0.59,-18.645 3.128,-20.891c1.678,-1.014 5.54,-0.551 7.48,-0.252c13.363,2.056 10.427,11.38 8.855,23.551c-2.2,17.041 -5.004,34.076 -8.405,50.919c-1.339,6.632 -2.629,13.274 -3.96,19.908c-0.425,2.119 -0.888,4.24 -1.43,6.333c-0.265,1.023 -1.074,4.003 -0.477,3.132" style="fill:#fff;stroke:#000;stroke-width:4.17px;stroke-linecap:round;stroke-miterlimit:1.5;"/><path d="M595.721,824.333c-14.351,-6.222 -14.35,-18.594 -22.039,-30.214c-3.872,-5.872 -13.288,2.728 -20.284,1.423c-15.096,-2.75 -12.216,-20.141 -23.628,-18.623c-18.871,2.564 -27.052,26.653 -24.95,49.387c0.456,52.135 6.014,44.675 50.723,62.765c57.058,23.086 111.842,51.938 171.556,68.012c31.377,8.446 66.419,14.641 98.34,5.404c14.283,-4.132 25.787,-13.859 37.034,-23.156c40.239,-33.266 59.935,-78.481 56.693,-130.728c-1.442,-23.238 -5.001,-50.606 -24.116,-66.376c-3.078,-2.539 -6.48,-4.546 -10.093,-6.217c-9.196,-4.254 -18.822,-4.253 -20.969,7.306c-2.228,11.998 -1.514,24.7 -3.299,36.844c-4.921,33.494 -18.983,66.86 -52.473,80.163c-8.843,3.513 -18.164,5.386 -27.601,6.382c-82.28,8.681 -130.658,-15.736 -184.894,-42.372" style="fill:#fff;fill-rule:nonzero;stroke:#000;stroke-width:4.17px;stroke-linejoin:miter;stroke-miterlimit:24;"/><path d="M860.722,738.695c0.266,-1.683 0.508,-3.369 0.724,-5.06c0.036,-0.282 0.313,-2.314 0.313,-2.055l0.876,-3.135c3.891,-3.029 13.153,-0.54 17.316,0.605c13.357,3.672 32.678,9.548 39.841,22.809c6.022,11.151 7.691,25.245 8.606,37.663c2.324,31.545 0.567,68.373 -13.682,97.039c-4.717,9.49 -10.942,18.007 -17.688,26.145c-1.794,2.164 -5.377,7.489 -8.593,7.76c-1.922,0.162 -4.436,-6.736 -5.188,-8.195c-4.778,-9.278 -9.64,-18.513 -15.278,-27.306c-6.472,-10.095 -14.845,-18.932 -24.493,-26.052c-3.197,-2.36 -20.205,-11.627 -21.833,-15.22c-0.905,-1.997 12.132,-6.938 12.876,-8.889c0.945,-2.482 1.841,-4.983 2.7,-7.5" style="fill:#fff;stroke:#000;stroke-width:4.17px;stroke-linecap:round;stroke-miterlimit:1.5;"/></g><g><path d="M997.862,1011.06c-0.221,3.627 -0.449,7.258 -0.684,10.891c-0,6.078 -5.243,11.012 -11.702,11.012l-760.158,0c-6.458,0 -11.701,-4.934 -11.701,-11.012l-0,-10.891l784.245,-0Z" style="stroke:#000;stroke-width:4.17px;stroke-linecap:round;stroke-miterlimit:1.5;"/><path d="M998.617,998.211l-785,-0l-0,-16.164l785.871,-0c-0.275,5.381 -0.565,10.769 -0.871,16.164Z"/><clipPath id="_clip2"><path d="M998.617,998.211l-785,-0l-0,-16.164l785.871,-0c-0.275,5.381 -0.565,10.769 -0.871,16.164Z"/></clipPath><g clip-path="url(#_clip2)"><path d="M572.262,987.03l-101.469,0.857l-143.122,-0.361l-124.308,-0.496l0,6.197l79.096,0l148.585,0.548l141.218,-0.548l0,-6.197Z" style="fill:#fff;"/></g><path d="M998.617,998.211l-785,-0l-0,-16.164l785.871,-0c-0.275,5.381 -0.565,10.769 -0.871,16.164Z" style="fill:none;stroke:#000;stroke-width:4.17px;stroke-linecap:round;stroke-miterlimit:1.5;"/></g><g><path d="M1522.33,482.734c-0,-0.644 -1.824,-1.166 -4.07,-1.166l-264.401,0c-2.246,0 -4.07,0.522 -4.07,1.166l-0,55.943c-0,0.643 1.824,1.165 4.07,1.165l264.401,0c2.246,0 4.07,-0.522 4.07,-1.165c4.079,-19.17 2.009,-37.553 -0,-55.943Z" style="fill:#fff;stroke:#000;stroke-width:4.17px;stroke-linecap:round;stroke-miterlimit:1.5;"/><g><path d="M1460.09,495.33c0,-0.507 -0.411,-0.919 -0.919,-0.919l-193.463,-0c-0.507,-0 -0.919,0.412 -0.919,0.919l0,16.542c0,0.507 0.412,0.919 0.919,0.919l193.463,-0c0.508,-0 0.919,-0.412 0.919,-0.919l0,-16.542Z" style="stroke:#000;stroke-width:4.17px;"/><path d="M1265.6,526.667l64.238,-0" style="fill:none;stroke:#000;stroke-width:4.17px;stroke-linecap:round;stroke-miterlimit:1.5;"/><path d="M1347.68,526.667l69.05,-0" style="fill:none;stroke:#000;stroke-width:4.17px;stroke-linecap:round;stroke-miterlimit:1.5;"/></g><g><path d="M1233.03,483.116c0.002,-1.525 -1.431,-2.435 -2.612,-2.431c-14.93,0.05 -29.854,0.643 -44.783,0.74c-10.57,0.068 -21.142,0.035 -31.712,0.062c-32.042,0.085 -64.084,0.081 -96.126,0.081c-1.178,0 -2.653,0.878 -2.653,2.418c-0,13.69 -0.073,27.382 0.055,41.07c0.15,16.201 0.535,32.403 0.518,48.606c-0.011,10.125 -0.517,20.235 -0.567,30.359c-0.008,1.515 1.441,2.412 2.605,2.411c15.972,-0.004 31.944,-0.062 47.916,-0.064c19.333,-0.003 38.667,0.045 58,0.06c22.169,0.018 44.337,0.005 66.505,0.005c1.174,-0 2.659,-0.878 2.638,-2.422c0.192,-3.456 0.276,-6.917 0.262,-10.38c-0.018,-4.324 -0.175,-8.645 -0.243,-12.968c-0.055,-3.472 -0.048,-6.945 0.016,-10.417c0.296,-15.979 1.214,-31.941 1.282,-47.926c0.021,-4.901 -0.132,-9.798 -0.275,-14.695c-0.238,-8.171 -0.55,-16.339 -0.826,-24.509Z" style="fill:#fff;stroke:#000;stroke-width:4.17px;stroke-linecap:round;stroke-miterlimit:1.5;"/><g><path d="M1123.18,563.127c-0,-5.377 -1.02,-10.72 -1.02,-16.098c-0,-2.655 0.613,-5.277 0.861,-7.919c0.512,-5.472 0.223,-10.977 0.151,-16.457c4.889,2.435 9.833,4.805 14.635,7.344c2.671,1.413 5.024,3.152 7.679,4.582c5.762,3.102 12.176,5.361 18.059,8.31c-4.224,2.118 -8.751,3.835 -12.994,5.928c-4.382,2.161 -8.383,4.75 -12.724,6.958c-2.411,1.226 -4.954,2.275 -7.386,3.472c-2.485,1.223 -4.79,2.641 -7.261,3.88Z" style="fill-rule:nonzero;stroke:#000;stroke-width:4.17px;"/></g></g></g><g><path d="M1522.33,637.225c-0,-0.643 -1.824,-1.166 -4.07,-1.166l-264.401,0c-2.246,0 -4.07,0.523 -4.07,1.166l-0,55.943c-0,0.643 1.824,1.165 4.07,1.165l264.401,0c2.246,0 4.07,-0.522 4.07,-1.165c4.079,-19.169 2.009,-37.552 -0,-55.943Z" style="fill:#fff;stroke:#000;stroke-width:4.17px;stroke-linecap:round;stroke-miterlimit:1.5;"/><g><path d="M1486.7,649.821c0,-0.507 -0.411,-0.919 -0.919,-0.919l-220.072,0c-0.507,0 -0.919,0.412 -0.919,0.919l0,16.542c0,0.507 0.412,0.919 0.919,0.919l220.072,0c0.508,0 0.919,-0.412 0.919,-0.919l0,-16.542Z" style="stroke:#000;stroke-width:4.17px;"/><path d="M1265.7,681.158l72.991,0" style="fill:none;stroke:#000;stroke-width:4.17px;stroke-linecap:round;stroke-miterlimit:1.5;"/><path d="M1358.97,681.158l78.458,0" style="fill:none;stroke:#000;stroke-width:4.17px;stroke-linecap:round;stroke-miterlimit:1.5;"/></g><g><path d="M1233.03,637.607c0.002,-1.525 -1.431,-2.435 -2.612,-2.431c-14.93,0.051 -29.854,0.644 -44.783,0.74c-10.57,0.068 -21.142,0.035 -31.712,0.063c-32.042,0.084 -64.084,0.08 -96.126,0.08c-1.178,0 -2.653,0.878 -2.653,2.419c-0,13.689 -0.073,27.381 0.055,41.07c0.15,16.201 0.535,32.403 0.518,48.605c-0.011,10.125 -0.517,20.236 -0.567,30.36c-0.008,1.514 1.441,2.411 2.605,2.411c15.972,-0.005 31.944,-0.062 47.916,-0.065c19.333,-0.003 38.667,0.045 58,0.061c22.169,0.017 44.337,0.004 66.505,0.004c1.174,0 2.659,-0.877 2.638,-2.421c0.192,-3.456 0.276,-6.918 0.262,-10.381c-0.018,-4.324 -0.175,-8.645 -0.243,-12.967c-0.055,-3.473 -0.048,-6.945 0.016,-10.417c0.296,-15.98 1.214,-31.941 1.282,-47.927c0.021,-4.9 -0.132,-9.798 -0.275,-14.695c-0.238,-8.171 -0.55,-16.339 -0.826,-24.509Z" style="fill:#fff;stroke:#000;stroke-width:4.17px;stroke-linecap:round;stroke-miterlimit:1.5;"/><g><path d="M1123.18,717.618c-0,-5.377 -1.02,-10.72 -1.02,-16.097c-0,-2.656 0.613,-5.277 0.861,-7.92c0.512,-5.472 0.223,-10.977 0.151,-16.456c4.889,2.435 9.833,4.805 14.635,7.344c2.671,1.412 5.024,3.152 7.679,4.581c5.762,3.102 12.176,5.361 18.059,8.311c-4.224,2.117 -8.751,3.834 -12.994,5.927c-4.382,2.161 -8.383,4.751 -12.724,6.958c-2.411,1.226 -4.954,2.275 -7.386,3.472c-2.485,1.223 -4.79,2.641 -7.261,3.88Z" style="fill-rule:nonzero;stroke:#000;stroke-width:4.17px;"/></g></g></g><g><path d="M1522.33,791.716c-0,-0.643 -1.824,-1.165 -4.07,-1.165l-264.401,-0c-2.246,-0 -4.07,0.522 -4.07,1.165l-0,55.943c-0,0.643 1.824,1.166 4.07,1.166l264.401,-0c2.246,-0 4.07,-0.523 4.07,-1.166c4.079,-19.169 2.009,-37.552 -0,-55.943Z" style="fill:#fff;stroke:#000;stroke-width:4.17px;stroke-linecap:round;stroke-miterlimit:1.5;"/><g><path d="M1441.51,804.312c0,-0.507 -0.411,-0.919 -0.919,-0.919l-174.886,0c-0.507,0 -0.919,0.412 -0.919,0.919l0,16.542c0,0.508 0.412,0.919 0.919,0.919l174.886,0c0.508,0 0.919,-0.411 0.919,-0.919l0,-16.542Z" style="stroke:#000;stroke-width:4.17px;"/><path d="M1265.52,835.649l58.128,0" style="fill:none;stroke:#000;stroke-width:4.17px;stroke-linecap:round;stroke-miterlimit:1.5;"/><path d="M1339.79,835.649l62.482,0" style="fill:none;stroke:#000;stroke-width:4.17px;stroke-linecap:round;stroke-miterlimit:1.5;"/></g><g><path d="M1233.03,792.099c0.002,-1.526 -1.431,-2.436 -2.612,-2.432c-14.93,0.051 -29.854,0.644 -44.783,0.74c-10.57,0.069 -21.142,0.035 -31.712,0.063c-32.042,0.084 -64.084,0.081 -96.126,0.081c-1.178,-0 -2.653,0.878 -2.653,2.418c-0,13.689 -0.073,27.382 0.055,41.07c0.15,16.201 0.535,32.403 0.518,48.605c-0.011,10.125 -0.517,20.236 -0.567,30.36c-0.008,1.515 1.441,2.411 2.605,2.411c15.972,-0.005 31.944,-0.062 47.916,-0.064c19.333,-0.004 38.667,0.045 58,0.06c22.169,0.018 44.337,0.005 66.505,0.005c1.174,-0 2.659,-0.878 2.638,-2.422c0.192,-3.456 0.276,-6.918 0.262,-10.381c-0.018,-4.323 -0.175,-8.644 -0.243,-12.967c-0.055,-3.473 -0.048,-6.945 0.016,-10.417c0.296,-15.979 1.214,-31.941 1.282,-47.927c0.021,-4.9 -0.132,-9.797 -0.275,-14.694c-0.238,-8.172 -0.55,-16.34 -0.826,-24.509Z" style="fill:#fff;stroke:#000;stroke-width:4.17px;stroke-linecap:round;stroke-miterlimit:1.5;"/><g><path d="M1123.18,872.11c-0,-5.378 -1.02,-10.721 -1.02,-16.098c-0,-2.655 0.613,-5.277 0.861,-7.919c0.512,-5.472 0.223,-10.977 0.151,-16.457c4.889,2.435 9.833,4.805 14.635,7.344c2.671,1.412 5.024,3.152 7.679,4.582c5.762,3.101 12.176,5.361 18.059,8.31c-4.224,2.117 -8.751,3.834 -12.994,5.927c-4.382,2.162 -8.383,4.751 -12.724,6.959c-2.411,1.226 -4.954,2.274 -7.386,3.472c-2.485,1.223 -4.79,2.641 -7.261,3.88Z" style="fill-rule:nonzero;stroke:#000;stroke-width:4.17px;"/></g></g></g><g><path d="M954.917,581.156c-4.588,0 -8.307,-3.209 -8.307,-7.167l-0,-55.159c-0,-3.958 3.719,-7.167 8.307,-7.167c4.589,-0 8.308,3.209 8.308,7.167l0,55.159c0,3.958 -3.719,7.167 -8.308,7.167" style="fill:none;fill-rule:nonzero;stroke:#000;stroke-width:4.17px;"/><path d="M882.04,579.911l53.321,-35.387l-53.321,-30.829l-0,66.216Z" style="fill:none;fill-rule:nonzero;stroke:#000;stroke-width:4.17px;"/></g><g><path d="M912.431,1068.51c-0,-0.469 -0.381,-0.85 -0.85,-0.85l-691.361,-0c-0.469,-0 -0.85,0.381 -0.85,0.85l0,15.299c0,0.469 0.381,0.85 0.85,0.85l691.361,-0c0.469,-0 0.85,-0.381 0.85,-0.85l-0,-15.299Z" style="stroke:#000;stroke-width:4.17px;stroke-linecap:round;stroke-miterlimit:1.5;"/><path d="M222.239,1103.03l227.963,-0" style="fill:none;stroke:#000;stroke-width:4.17px;stroke-linecap:round;stroke-miterlimit:1.5;"/><path d="M513.529,1103.03l245.036,-0" style="fill:none;stroke:#000;stroke-width:4.17px;stroke-linecap:round;stroke-miterlimit:1.5;"/></g></g></g></svg>