<?xml version="1.0" encoding="UTF-8" standalone="no"?><!DOCTYPE svg PUBLIC "-//W3C//DTD SVG 1.1//EN" "http://www.w3.org/Graphics/SVG/1.1/DTD/svg11.dtd"><svg width="100%" height="100%" viewBox="0 0 1667 1667" version="1.1" xmlns="http://www.w3.org/2000/svg" xmlns:xlink="http://www.w3.org/1999/xlink" xml:space="preserve" xmlns:serif="http://www.serif.com/" style="fill-rule:evenodd;clip-rule:evenodd;stroke-miterlimit:10;"><rect id="Window" x="0" y="0" width="1666.67" height="1666.67" style="fill:none;"/><g id="Window1" serif:id="Window"><path d="M160.227,721.597c-57.572,251.814 473.296,553.715 751.337,617.274c278.041,63.567 536.595,-322.23 594.167,-574.044c57.571,-251.815 -391.543,-368.561 -669.584,-432.129c-278.032,-63.558 -618.349,137.084 -675.92,388.899" style="fill:#fbb040;fill-rule:nonzero;"/><g><g><path d="M680.479,383.286l-382.865,-0c-30.306,-0 -54.875,23.918 -54.875,53.423l0,837.17c0,29.505 24.569,53.423 54.875,53.423l382.865,0c30.306,0 54.875,-23.918 54.875,-53.423c8.45,-265.489 -6.713,-528.82 -0,-837.17c-0,-29.505 -24.569,-53.423 -54.875,-53.423Z" style="fill-rule:nonzero;stroke:#000;stroke-width:4.17px;"/><path d="M712.483,449.204l-0,812.183c-0,18.694 -15.959,34.021 -35.957,34.962c-0.643,0.042 -1.289,0.042 -1.933,0.042l-368.435,0c-0.667,0 -1.311,0 -1.955,-0.042c-19.977,-0.941 -35.956,-16.268 -35.956,-34.962c0,-0 1.548,-377.473 3.679,-407.321c2.13,-29.85 -3.679,-404.862 -3.679,-404.862c0,-19.3 17.011,-35.005 37.911,-35.005l56.21,0c4.169,0 7.563,3.178 7.563,7.13c-0,6.462 2.833,12.316 7.431,16.562c4.596,4.244 10.954,6.879 17.977,6.879l190.05,0c14.048,0 25.41,-10.518 25.41,-23.441c0,-1.965 0.838,-3.763 2.213,-5.04c1.375,-1.296 3.264,-2.09 5.348,-2.09l56.233,0c20.877,0 37.89,15.705 37.89,35.005Z" style="fill:#fff;fill-rule:nonzero;stroke:#000;stroke-width:4.17px;"/><g><path d="M618.291,818.483l-167.865,0c-21.647,0 -44.415,0.928 -66,1.649c-30.401,1.013 -56.901,4.428 -54.558,-9.004c0.029,-0.161 -3.332,-202.684 -0.945,-220.09c2.388,-17.414 0.945,-69.972 0.945,-69.972c0,-12.474 15.391,-12.206 34.375,-12.206c-0,0 103.239,-1.774 145.075,-0.873c41.522,-0.165 99.848,0.182 101.252,0.372c19.638,1.613 39.275,-2.646 40.457,8.612c-0,0 -1.634,46.081 -0.257,73.445c1.38,27.364 1.894,217.534 1.894,217.534c-0,12.475 -15.389,10.533 -34.373,10.533Z" style="fill-rule:nonzero;stroke:#000;stroke-width:4.17px;stroke-linecap:round;stroke-linejoin:round;"/><path d="M600.843,797.482l-144.969,-0c-18.695,-0 -38.358,0.802 -56.999,1.424c-26.255,0.875 -49.141,3.824 -47.117,-7.776c0.025,-0.139 -2.878,-175.04 -0.816,-190.073c2.062,-15.038 0.816,-60.428 0.816,-60.428c0,-10.772 13.291,-10.541 29.686,-10.541c0,0 89.159,-1.532 125.289,-0.755c35.859,-0.142 86.23,0.158 87.443,0.322c16.959,1.393 33.918,-2.285 34.938,7.438c0,-0 -1.411,39.795 -0.221,63.427c1.191,23.632 1.635,187.865 1.635,187.865c-0,10.774 -13.29,9.097 -29.685,9.097Z" style="fill:none;fill-rule:nonzero;stroke:#fff;stroke-width:4.17px;stroke-linecap:round;stroke-linejoin:round;"/><g><g><path d="M536.37,601.821c14.433,0 24.292,4.837 31.832,15.954c4.544,6.7 10.079,17.258 10.079,25.957c0,11.814 -2.251,19.913 -10.126,27.534c-7.544,7.301 -20.468,14.377 -31.785,14.377c-23.131,-0 -41.91,-18.78 -41.91,-41.911c-0,-10.656 2.217,-20.829 8.777,-28.227c7.681,-8.661 20.659,-13.684 33.133,-13.684Z" style="fill:#fff;stroke:#000;stroke-width:4.17px;stroke-linecap:round;stroke-linejoin:round;stroke-miterlimit:1.5;"/><path d="M536.37,568.378c0.077,5.354 0.084,11.407 0,18.393" style="fill:none;stroke:#fff;stroke-width:4.17px;stroke-linecap:round;stroke-linejoin:round;stroke-miterlimit:1.5;"/><path d="M585.038,586.595c-4.055,5.561 -8.019,10.379 -11.846,14.071" style="fill:none;stroke:#fff;stroke-width:4.17px;stroke-linecap:round;stroke-linejoin:round;stroke-miterlimit:1.5;"/><path d="M610.537,631.873c-7.851,-1.327 -13.796,-0.156 -18.124,3.136" style="fill:none;stroke:#fff;stroke-width:4.17px;stroke-linecap:round;stroke-linejoin:round;stroke-miterlimit:1.5;"/><path d="M600.884,682.934c-6.26,-5.467 -11.46,-8.324 -15.884,-9.273" style="fill:none;stroke:#fff;stroke-width:4.17px;stroke-linecap:round;stroke-linejoin:round;stroke-miterlimit:1.5;"/><path d="M560.616,715.779l-6.18,-17.324" style="fill:none;stroke:#fff;stroke-width:4.17px;stroke-linecap:round;stroke-linejoin:round;stroke-miterlimit:1.5;"/><path d="M508.657,714.973l6.429,-17.233" style="fill:none;stroke:#fff;stroke-width:4.17px;stroke-linecap:round;stroke-linejoin:round;stroke-miterlimit:1.5;"/><path d="M469.427,680.894l16.017,-9.043" style="fill:none;stroke:#fff;stroke-width:4.17px;stroke-linecap:round;stroke-linejoin:round;stroke-miterlimit:1.5;"/><path d="M461.363,629.559l18.077,3.397" style="fill:none;stroke:#fff;stroke-width:4.17px;stroke-linecap:round;stroke-linejoin:round;stroke-miterlimit:1.5;"/><path d="M488.255,585.093c2.645,5.918 6.558,10.633 11.641,14.241" style="fill:none;stroke:#fff;stroke-width:4.17px;stroke-linecap:round;stroke-linejoin:round;stroke-miterlimit:1.5;"/></g><path d="M536.072,750.009l-114.024,-0c-22.553,-0 -40.864,-18.311 -40.864,-40.864c-0,-5.845 2.531,-17.132 4.745,-22.162c6.331,-14.38 19.41,-18.703 36.119,-18.703c4.772,0 9.354,0.82 13.613,2.327c0.236,-26.609 11.505,-44.482 37.834,-48.697c30.684,-4.914 44.159,24.914 51.251,42.96c8.678,-2.555 19.782,-3.231 27.013,-2.39c21.781,2.533 32.889,18.825 32.889,38.953c0,7.345 -0.201,19.95 -3.125,26.194c-7.748,16.547 -25.986,22.382 -45.451,22.382Z" style="fill:#fff;stroke:#000;stroke-width:4.17px;stroke-linecap:round;stroke-linejoin:round;stroke-miterlimit:1.5;"/></g></g><path d="M362.507,859.267l161.907,0c20.879,0 42.839,-0.267 63.658,-0.474c29.322,-0.291 54.837,0.239 52.577,4.101c-0.027,0.046 3.259,56.75 0.956,61.754c-2.303,5.006 -1.108,20.818 -1.108,20.818c0,3.585 -14.648,2.804 -32.958,2.804c0,0 -99.575,0.51 -139.926,0.252c-40.049,0.047 -96.305,-0.053 -97.659,-0.108c-18.94,-0.463 -37.951,1.416 -39.09,-1.82c-0,-0 1.645,-13.901 0.317,-21.767c-1.331,-7.866 -1.826,-62.604 -1.826,-62.604c-0,-3.586 14.842,-2.956 33.152,-2.956Z" style="fill:#fff;fill-rule:nonzero;stroke:#000;stroke-width:4.17px;stroke-linecap:round;stroke-linejoin:round;"/><g><g><circle cx="511.868" cy="904.105" r="11.263"/><path d="M511.868,883.854l-0,4.943" style="fill:none;stroke:#000;stroke-width:4.17px;stroke-linecap:round;stroke-linejoin:round;stroke-miterlimit:1.5;"/><path d="M524.946,888.75l-3.183,3.781" style="fill:none;stroke:#000;stroke-width:4.17px;stroke-linecap:round;stroke-linejoin:round;stroke-miterlimit:1.5;"/><path d="M531.799,900.918l-4.871,0.843" style="fill:none;stroke:#000;stroke-width:4.17px;stroke-linecap:round;stroke-linejoin:round;stroke-miterlimit:1.5;"/><path d="M529.205,914.64l-4.269,-2.492" style="fill:none;stroke:#000;stroke-width:4.17px;stroke-linecap:round;stroke-linejoin:round;stroke-miterlimit:1.5;"/><path d="M518.383,923.466l-1.661,-4.655" style="fill:none;stroke:#000;stroke-width:4.17px;stroke-linecap:round;stroke-linejoin:round;stroke-miterlimit:1.5;"/><path d="M504.42,923.25l1.728,-4.631" style="fill:none;stroke:#000;stroke-width:4.17px;stroke-linecap:round;stroke-linejoin:round;stroke-miterlimit:1.5;"/><path d="M493.878,914.092l4.304,-2.431" style="fill:none;stroke:#000;stroke-width:4.17px;stroke-linecap:round;stroke-linejoin:round;stroke-miterlimit:1.5;"/><path d="M491.71,900.296l4.858,0.913" style="fill:none;stroke:#000;stroke-width:4.17px;stroke-linecap:round;stroke-linejoin:round;stroke-miterlimit:1.5;"/><path d="M498.937,888.346l3.129,3.827" style="fill:none;stroke:#000;stroke-width:4.17px;stroke-linecap:round;stroke-linejoin:round;stroke-miterlimit:1.5;"/></g><path d="M391.937,916.961l-24.583,-0c-4.862,-0 -8.81,-3.948 -8.81,-8.81c-0,-4.863 3.948,-8.811 8.81,-8.811c1.029,0 2.017,0.177 2.935,0.502c0.051,-5.737 2.48,-9.59 8.157,-10.499c6.615,-1.059 9.52,5.371 11.049,9.262c7.507,-2.21 12.915,2.103 12.915,7.883c-0,5.78 -4.693,10.473 -10.473,10.473Z"/><path d="M454.888,916.961l-24.583,-0c-4.863,-0 -8.81,-3.948 -8.81,-8.81c-0,-4.863 3.947,-8.811 8.81,-8.811c1.028,0 2.016,0.177 2.935,0.502c0.05,-5.737 2.48,-9.59 8.156,-10.499c6.616,-1.059 9.521,5.371 11.05,9.262c7.506,-2.21 12.915,2.103 12.915,7.883c-0,5.78 -4.693,10.473 -10.473,10.473Z"/><path d="M591.095,916.961l-24.583,-0c-4.863,-0 -8.81,-3.948 -8.81,-8.81c-0,-4.863 3.947,-8.811 8.81,-8.811c1.029,0 2.017,0.177 2.935,0.502c0.051,-5.737 2.48,-9.59 8.157,-10.499c6.615,-1.059 9.52,5.371 11.049,9.262c7.506,-2.21 12.915,2.103 12.915,7.883c-0,5.78 -4.693,10.473 -10.473,10.473Z"/></g><path d="M362.507,984.967l161.907,-0c20.879,-0 42.839,-0.64 63.658,-1.137c29.322,-0.698 54.837,0.574 52.577,9.832c-0.027,0.11 3.259,136.073 0.956,148.07c-2.303,12.002 -1.108,49.915 -1.108,49.915c0,8.597 -14.648,6.725 -32.958,6.725c0,0 -99.575,1.223 -139.926,0.603c-40.049,0.113 -96.305,-0.126 -97.659,-0.257c-18.94,-1.112 -37.951,3.394 -39.09,-4.366c-0,0 1.645,-33.331 0.317,-52.191c-1.331,-18.861 -1.826,-150.107 -1.826,-150.107c-0,-8.598 14.842,-7.087 33.152,-7.087Z" style="fill:#fff;fill-rule:nonzero;stroke:#000;stroke-width:4.17px;stroke-linecap:round;stroke-linejoin:round;"/><g><path d="M478.736,1039.31c0.001,-0.109 -0.474,-0.174 -0.866,-0.173c-4.989,0.003 -9.975,0.046 -14.964,0.053c-14.09,0.018 -28.182,0.01 -42.273,0.01c-0.39,-0 -0.879,0.062 -0.879,0.173c-0,2.144 0.208,4.288 0.189,6.432c-0.006,0.716 -0.171,1.431 -0.187,2.147c-0.003,0.108 0.478,0.172 0.864,0.172c19.056,-0.001 38.113,0 57.17,0c0.389,0 0.882,-0.062 0.875,-0.173c0.205,-0.796 -0.059,-1.592 0.009,-2.389c0.097,-1.15 0.405,-2.299 0.428,-3.45c0.018,-0.933 -0.22,-1.869 -0.366,-2.802Z" style="stroke:#000;stroke-width:4.17px;stroke-linecap:round;stroke-linejoin:round;stroke-miterlimit:1.5;"/><path d="M615.617,1039.31c0.001,-0.109 -0.939,-0.174 -1.713,-0.173c-9.866,0.003 -19.728,0.046 -29.593,0.053c-27.866,0.018 -55.734,0.01 -83.599,0.01c-0.773,-0 -1.74,0.062 -1.74,0.173c-0,2.144 0.411,4.288 0.375,6.432c-0.012,0.716 -0.339,1.431 -0.371,2.147c-0.005,0.108 0.945,0.172 1.708,0.172c37.687,-0.001 75.374,0 113.062,0c0.769,0 1.743,-0.062 1.729,-0.173c0.406,-0.796 -0.116,-1.592 0.018,-2.389c0.193,-1.15 0.801,-2.299 0.846,-3.45c0.036,-0.933 -0.434,-1.869 -0.722,-2.802Z" style="stroke:#000;stroke-width:4.17px;stroke-linecap:round;stroke-linejoin:round;stroke-miterlimit:1.5;"/><path d="M478.736,1090.87c0.001,-0.109 -0.474,-0.174 -0.866,-0.174c-4.989,0.004 -9.975,0.046 -14.964,0.053c-14.09,0.019 -28.182,0.01 -42.273,0.01c-0.39,0 -0.879,0.063 -0.879,0.173c-0,2.144 0.208,4.288 0.189,6.432c-0.006,0.716 -0.171,1.431 -0.187,2.147c-0.003,0.109 0.478,0.173 0.864,0.173c19.056,-0.002 38.113,-0 57.17,-0c0.389,-0 0.882,-0.063 0.875,-0.173c0.205,-0.796 -0.059,-1.593 0.009,-2.389c0.097,-1.151 0.405,-2.3 0.428,-3.45c0.018,-0.934 -0.22,-1.869 -0.366,-2.802Z" style="stroke:#000;stroke-width:4.17px;stroke-linecap:round;stroke-linejoin:round;stroke-miterlimit:1.5;"/><path d="M615.617,1090.87c0.001,-0.109 -0.939,-0.174 -1.713,-0.174c-9.866,0.004 -19.728,0.046 -29.593,0.053c-27.866,0.019 -55.734,0.01 -83.599,0.01c-0.773,0 -1.74,0.063 -1.74,0.173c-0,2.144 0.411,4.288 0.375,6.432c-0.012,0.716 -0.339,1.431 -0.371,2.147c-0.005,0.109 0.945,0.173 1.708,0.173c37.687,-0.002 75.374,-0 113.062,-0c0.769,-0 1.743,-0.063 1.729,-0.173c0.406,-0.796 -0.116,-1.593 0.018,-2.389c0.193,-1.151 0.801,-2.3 0.846,-3.45c0.036,-0.934 -0.434,-1.869 -0.722,-2.802Z" style="stroke:#000;stroke-width:4.17px;stroke-linecap:round;stroke-linejoin:round;stroke-miterlimit:1.5;"/><path d="M478.736,1142.43c0.001,-0.109 -0.474,-0.174 -0.866,-0.174c-4.989,0.004 -9.975,0.047 -14.964,0.053c-14.09,0.019 -28.182,0.011 -42.273,0.011c-0.39,-0 -0.879,0.062 -0.879,0.172c-0,2.145 0.208,4.289 0.189,6.433c-0.006,0.716 -0.171,1.431 -0.187,2.147c-0.003,0.108 0.478,0.172 0.864,0.172c19.056,-0.001 38.113,0 57.17,0c0.389,0 0.882,-0.063 0.875,-0.173c0.205,-0.796 -0.059,-1.592 0.009,-2.389c0.097,-1.15 0.405,-2.299 0.428,-3.45c0.018,-0.934 -0.22,-1.869 -0.366,-2.802Z" style="stroke:#000;stroke-width:4.17px;stroke-linecap:round;stroke-linejoin:round;stroke-miterlimit:1.5;"/><path d="M615.617,1142.43c0.001,-0.109 -0.939,-0.174 -1.713,-0.174c-9.866,0.004 -19.728,0.047 -29.593,0.053c-27.866,0.019 -55.734,0.011 -83.599,0.011c-0.773,-0 -1.74,0.062 -1.74,0.172c-0,2.145 0.411,4.289 0.375,6.433c-0.012,0.716 -0.339,1.431 -0.371,2.147c-0.005,0.108 0.945,0.172 1.708,0.172c37.687,-0.001 75.374,0 113.062,0c0.769,0 1.743,-0.063 1.729,-0.173c0.406,-0.796 -0.116,-1.592 0.018,-2.389c0.193,-1.15 0.801,-2.299 0.846,-3.45c0.036,-0.934 -0.434,-1.869 -0.722,-2.802Z" style="stroke:#000;stroke-width:4.17px;stroke-linecap:round;stroke-linejoin:round;stroke-miterlimit:1.5;"/><circle cx="378.372" cy="1092.82" r="11.263"/><path d="M378.372,1072.57l0,4.943" style="fill:none;stroke:#000;stroke-width:4.17px;stroke-linecap:round;stroke-linejoin:round;stroke-miterlimit:1.5;"/><path d="M391.451,1077.46l-3.183,3.781" style="fill:none;stroke:#000;stroke-width:4.17px;stroke-linecap:round;stroke-linejoin:round;stroke-miterlimit:1.5;"/><path d="M398.304,1089.63l-4.871,0.843" style="fill:none;stroke:#000;stroke-width:4.17px;stroke-linecap:round;stroke-linejoin:round;stroke-miterlimit:1.5;"/><path d="M395.71,1103.36l-4.269,-2.492" style="fill:none;stroke:#000;stroke-width:4.17px;stroke-linecap:round;stroke-linejoin:round;stroke-miterlimit:1.5;"/><path d="M384.888,1112.18l-1.661,-4.655" style="fill:none;stroke:#000;stroke-width:4.17px;stroke-linecap:round;stroke-linejoin:round;stroke-miterlimit:1.5;"/><path d="M370.925,1111.96l1.728,-4.631" style="fill:none;stroke:#000;stroke-width:4.17px;stroke-linecap:round;stroke-linejoin:round;stroke-miterlimit:1.5;"/><path d="M360.383,1102.81l4.304,-2.431" style="fill:none;stroke:#000;stroke-width:4.17px;stroke-linecap:round;stroke-linejoin:round;stroke-miterlimit:1.5;"/><path d="M358.215,1089.01l4.858,0.913" style="fill:none;stroke:#000;stroke-width:4.17px;stroke-linecap:round;stroke-linejoin:round;stroke-miterlimit:1.5;"/><path d="M365.442,1077.06l3.129,3.827" style="fill:none;stroke:#000;stroke-width:4.17px;stroke-linecap:round;stroke-linejoin:round;stroke-miterlimit:1.5;"/><path d="M388.831,1054.13l-24.583,-0c-4.862,-0 -8.81,-3.948 -8.81,-8.81c0,-4.863 3.948,-8.81 8.81,-8.81c1.029,-0 2.017,0.176 2.935,0.501c0.051,-5.737 2.481,-9.59 8.157,-10.499c6.615,-1.059 9.52,5.372 11.049,9.262c7.507,-2.21 12.915,2.103 12.915,7.883c0,5.78 -4.693,10.473 -10.473,10.473Z"/><path d="M388.831,1156.43l-24.583,0c-4.862,0 -8.81,-3.947 -8.81,-8.81c0,-4.862 3.948,-8.81 8.81,-8.81c1.029,0 2.017,0.177 2.935,0.501c0.051,-5.736 2.481,-9.589 8.157,-10.498c6.615,-1.06 9.52,5.371 11.049,9.262c7.507,-2.21 12.915,2.102 12.915,7.882c0,5.781 -4.693,10.473 -10.473,10.473Z"/></g></g><g><path d="M785.538,227.466c-34.458,1.116 -185.509,-6.882 -233.535,22.83c-14.92,9.231 -10.407,36.299 -1.513,50.237c18.033,28.261 192.612,17.354 195.307,20.101c0.762,0.777 -25.468,23.613 -28.138,25.227c-3.29,1.988 30.942,-10.834 43.607,-16.684c38.986,-18.01 139.31,9.128 146.189,-47.693c1.285,-10.62 7.117,-19.438 -0.529,-27.717c-21.721,-23.518 -83.715,-27.521 -121.388,-26.301Z" style="fill:#fff;stroke:#000;stroke-width:4.17px;stroke-linecap:round;stroke-linejoin:round;stroke-miterlimit:1.5;"/><path d="M672.216,257.021c0.001,-0.109 -0.679,-0.174 -1.24,-0.174c-7.14,0.004 -14.277,0.047 -21.417,0.054c-20.168,0.018 -40.337,0.01 -60.505,0.01c-0.559,-0 -1.259,0.062 -1.259,0.172c-0,2.145 0.298,4.289 0.272,6.433c-0.009,0.716 -0.245,1.431 -0.269,2.147c-0.004,0.108 0.684,0.172 1.236,0.172c27.276,-0.001 54.552,0 81.828,0c0.557,0 1.261,-0.063 1.251,-0.173c0.294,-0.796 -0.083,-1.592 0.013,-2.389c0.14,-1.15 0.58,-2.299 0.613,-3.45c0.026,-0.933 -0.314,-1.869 -0.523,-2.802Z" style="stroke:#000;stroke-width:4.17px;stroke-linecap:round;stroke-linejoin:round;stroke-miterlimit:1.5;"/><path d="M731.572,283.433c0.001,-0.109 -1.157,-0.174 -2.112,-0.174c-12.161,0.004 -24.316,0.047 -36.476,0.053c-34.347,0.019 -68.697,0.011 -103.044,0.011c-0.952,-0 -2.145,0.062 -2.145,0.172c-0,2.145 0.507,4.289 0.463,6.433c-0.015,0.716 -0.418,1.431 -0.458,2.147c-0.006,0.108 1.165,0.172 2.106,0.172c46.453,-0.001 92.906,0 139.359,0c0.949,0 2.149,-0.063 2.132,-0.173c0.5,-0.796 -0.143,-1.592 0.022,-2.389c0.238,-1.15 0.987,-2.299 1.043,-3.45c0.044,-0.934 -0.535,-1.869 -0.89,-2.802Z" style="stroke:#000;stroke-width:4.17px;stroke-linecap:round;stroke-linejoin:round;stroke-miterlimit:1.5;"/><path d="M868.13,257.021c0.002,-0.109 -1.343,-0.174 -2.452,-0.174c-14.121,0.004 -28.235,0.047 -42.355,0.054c-39.884,0.018 -79.77,0.01 -119.654,0.01c-1.106,-0 -2.491,0.062 -2.491,0.172c0,2.145 0.589,4.289 0.538,6.433c-0.017,0.716 -0.485,1.431 -0.532,2.147c-0.007,0.108 1.353,0.172 2.445,0.172c53.941,-0.001 107.882,0 161.823,0c1.102,0 2.495,-0.063 2.475,-0.173c0.581,-0.796 -0.165,-1.592 0.026,-2.389c0.276,-1.15 1.147,-2.299 1.211,-3.45c0.052,-0.933 -0.621,-1.869 -1.034,-2.802Z" style="stroke:#000;stroke-width:4.17px;stroke-linecap:round;stroke-linejoin:round;stroke-miterlimit:1.5;"/></g><g><g><path d="M1013.05,586.462c-8.468,2.373 -86.781,101.539 -159.268,104.712c-184.378,8.07 57.33,-234.322 56.62,-254.671c0.421,-6.739 11.863,-58.974 19.586,-57.701c6.4,1.639 -1.228,27.336 1.822,25.785c4.884,-1.967 13.037,-35.405 18.913,-36.162c4.632,-0.218 5.963,5.488 6.512,11.724c0.114,9.711 -4.202,21.791 -2.458,20.625c1.233,-0.823 7.619,-11.963 11.366,-18.922c10.105,-21.786 20.108,-8.302 12.643,6.775c-4.762,9.182 -9.648,16.483 -8.332,16.628c1.64,0.18 10.78,-8.479 17.083,-12.097c4.414,-2.42 9.437,-5.398 13.63,-1.777c5.062,5.657 -22.519,21.333 -19.968,26.624c1.022,2.747 8.505,1.697 14.066,1.474c16.26,-2.107 17.044,10.194 2.922,14.12c-40.849,9.132 -72.98,105.475 -111.897,136.14c11.854,-11.43 36.851,-46.294 52.955,-37.39c16.092,8.897 94.929,48.178 73.805,54.113Z" style="fill:#fff;fill-rule:nonzero;stroke:#000;stroke-width:4.17px;stroke-linejoin:round;stroke-miterlimit:2;"/><path d="M918.789,535.418c-0,0 89.146,51.43 99.633,58.073c12.268,-15.78 31.577,-72.118 -17.089,-97.588c-47.323,-24.751 -82.544,39.515 -82.544,39.515Z" style="fill:#fff;fill-rule:nonzero;stroke:#000;stroke-width:4.17px;stroke-miterlimit:24;"/></g><path d="M972.369,711.902c34.755,5.35 200.454,10.021 244.843,11.813c3.543,-32.523 21.832,-215.573 18.542,-227.025c-13.964,-48.135 -96.483,-37.762 -127.814,-29.657c-18.359,4.749 -36.143,15.488 -70.779,14.65c-20.499,-0.496 -51.907,9.97 -58.048,21.281c-13.887,25.579 -10.657,73.823 -8.326,124.157c1.279,27.622 5.375,62.253 1.582,84.781Z" style="fill:#fff;fill-rule:nonzero;stroke:#000;stroke-width:4.17px;stroke-miterlimit:24;"/><g><g><path d="M881.238,1395.38c-2.909,4.773 -5.987,9.455 -9.442,13.854c-2.677,3.409 -5.947,6.476 -8.142,10.238c-1.516,2.598 -2.388,5.512 -3.084,8.421c-0.312,1.314 -0.511,2.671 -0.449,4.024c0.034,0.758 0.155,1.516 0.397,2.237c1.55,4.608 7.303,5.205 11.428,5.241c0.867,0.007 1.734,-0.013 2.6,-0.051c1.047,-0.046 2.093,-0.116 3.137,-0.203c1.656,-0.138 3.308,-0.306 4.962,-0.457c26.627,-2.45 53.386,-3.38 80.056,-5.251c8.734,-0.613 17.469,-1.276 26.175,-2.212c5.946,-0.639 12.179,-1.174 17.908,-3c1.71,-0.547 2.834,-2.081 3.582,-3.634c1.495,-3.105 2.003,-6.689 2.388,-10.078c0.136,-1.203 0.244,-2.409 0.334,-3.617c0.108,-1.458 0.187,-2.919 0.249,-4.38c0.081,-1.899 0.13,-3.8 0.16,-5.7c0.291,-18.279 -0.656,-36.566 -0.929,-54.84c-0.155,-10.363 -0.442,-20.906 0.667,-31.239c-12.096,-0.816 -24.473,1.218 -36.383,3.08c-18.676,2.921 -37.207,6.699 -55.764,10.278c-6.69,1.29 -13.384,2.571 -20.103,3.702c-5.209,0.877 -10.469,1.758 -15.751,2.041c-1.735,12.452 0.623,25.028 0.924,37.491c0.198,8.216 -0.551,16.881 -4.92,24.055" style="fill:#fff;fill-rule:nonzero;stroke:#000;stroke-width:4.17px;stroke-linejoin:round;stroke-miterlimit:2;"/><path d="M881.238,1395.38c-2.909,4.773 -5.987,9.455 -9.442,13.854c-2.677,3.409 -5.947,6.476 -8.142,10.238c-1.516,2.598 -2.388,5.512 -3.084,8.421c-0.312,1.314 -0.511,2.671 -0.449,4.024c0.034,0.758 0.155,1.516 0.397,2.237c1.55,4.608 7.303,5.205 11.428,5.241c0.867,0.007 1.734,-0.013 2.6,-0.051c1.047,-0.046 2.093,-0.116 3.137,-0.203c1.656,-0.138 3.308,-0.306 4.962,-0.457c26.627,-2.45 53.386,-3.38 80.056,-5.251c8.734,-0.613 17.469,-1.276 26.175,-2.212c5.946,-0.639 12.179,-1.174 17.908,-3c1.71,-0.547 2.834,-2.081 3.582,-3.634c1.495,-3.105 2.003,-6.689 2.388,-10.078c0.136,-1.203 0.244,-2.409 0.334,-3.617c0.108,-1.458 0.187,-2.919 0.249,-4.38c0.081,-1.899 0.13,-3.8 0.16,-5.7c0.291,-18.279 -0.656,-36.566 -0.929,-54.84c-0.155,-10.363 -0.442,-20.906 0.667,-31.239c-12.096,-0.816 -24.473,1.218 -36.383,3.08c-18.676,2.921 -37.207,6.699 -55.764,10.278c-6.69,1.29 -13.384,2.571 -20.103,3.702c-5.209,0.877 -10.469,1.758 -15.751,2.041c-1.735,12.452 0.623,25.028 0.924,37.491c0.198,8.216 -0.551,16.881 -4.92,24.055Z" style="fill:none;fill-rule:nonzero;stroke:#000;stroke-width:4.17px;"/><path d="M1128.52,1392.97c-3.317,4.699 -6.689,9.368 -10.406,13.762c-2.871,3.395 -6.297,6.462 -8.664,10.253c-1.612,2.581 -2.592,5.494 -3.365,8.42c-0.321,1.226 -0.541,2.492 -0.537,3.763c0.003,0.767 0.091,1.537 0.304,2.275c1.373,4.747 7.231,5.311 11.359,5.325c0.864,0.003 1.727,-0.022 2.59,-0.062c1.045,-0.05 2.089,-0.123 3.132,-0.211c1.668,-0.141 3.334,-0.309 5.002,-0.457c12.245,-1.091 24.541,-1.639 36.819,-2.199c18.351,-0.836 36.709,-1.51 55.054,-2.461c10.064,-0.523 20.131,-1.1 30.167,-2.019c6.4,-0.586 13.121,-1.021 19.321,-2.844c4.106,-1.213 4.964,-7.112 5.403,-10.653c0.12,-0.965 0.209,-1.933 0.276,-2.903c0.083,-1.193 0.132,-2.389 0.159,-3.585c0.033,-1.448 0.031,-2.896 0.006,-4.343c-0.033,-1.884 -0.106,-3.766 -0.207,-5.648c-0.972,-18.141 -3.971,-36.142 -6.473,-54.113c-1.409,-10.121 -3.046,-20.403 -3.207,-30.65c-11.837,-0.711 -23.896,1.11 -35.573,2.834c-18.644,2.753 -37.156,6.341 -55.699,9.693c-6.584,1.19 -13.171,2.368 -19.781,3.407c-5.109,0.802 -10.266,1.617 -15.439,1.853c-2.921,11.392 -2.31,23.265 -3.008,34.904c-0.536,8.939 -1.956,18.174 -7.233,25.659" style="fill:#fff;fill-rule:nonzero;stroke:#000;stroke-width:4.17px;stroke-linejoin:round;stroke-miterlimit:2;"/><path d="M1128.52,1392.97c-3.317,4.699 -6.689,9.368 -10.406,13.762c-2.871,3.395 -6.297,6.462 -8.664,10.253c-1.612,2.581 -2.592,5.494 -3.365,8.42c-0.321,1.226 -0.541,2.492 -0.537,3.763c0.003,0.767 0.091,1.537 0.304,2.275c1.373,4.747 7.231,5.311 11.359,5.325c0.864,0.003 1.727,-0.022 2.59,-0.062c1.045,-0.05 2.089,-0.123 3.132,-0.211c1.668,-0.141 3.334,-0.309 5.002,-0.457c12.245,-1.091 24.541,-1.639 36.819,-2.199c18.351,-0.836 36.709,-1.51 55.054,-2.461c10.064,-0.523 20.131,-1.1 30.167,-2.019c6.4,-0.586 13.121,-1.021 19.321,-2.844c4.106,-1.213 4.964,-7.112 5.403,-10.653c0.12,-0.965 0.209,-1.933 0.276,-2.903c0.083,-1.193 0.132,-2.389 0.159,-3.585c0.033,-1.448 0.031,-2.896 0.006,-4.343c-0.033,-1.884 -0.106,-3.766 -0.207,-5.648c-0.972,-18.141 -3.971,-36.142 -6.473,-54.113c-1.409,-10.121 -3.046,-20.403 -3.207,-30.65c-11.837,-0.711 -23.896,1.11 -35.573,2.834c-18.644,2.753 -37.156,6.341 -55.699,9.693c-6.584,1.19 -13.171,2.368 -19.781,3.407c-5.109,0.802 -10.266,1.617 -15.439,1.853c-2.921,11.392 -2.31,23.265 -3.008,34.904c-0.536,8.939 -1.956,18.174 -7.233,25.659Z" style="fill:none;fill-rule:nonzero;stroke:#000;stroke-width:4.17px;"/><path d="M1251.06,1176.94c-2.646,-18.891 -5.036,-37.841 -8.829,-56.546c-3.286,-16.205 -7.909,-32.12 -10.081,-48.539c-2.55,-19.285 -2.613,-38.835 -2.689,-58.253c-0.107,-27.266 2.244,-54.371 4.59,-81.51c5.193,-60.072 12.635,-120.277 9.686,-180.672c-0.712,-14.592 -1.985,-29.153 -3.725,-43.658c-1.072,-8.94 -2.095,-17.931 -4.028,-26.733c-2.93,-13.335 -7.314,-26.311 -12.493,-38.932c-11.503,0.929 -22.905,3.018 -34.233,5.156c-17.166,3.239 -34.272,6.908 -51.596,9.223c-8.585,1.147 -17.225,1.806 -25.852,2.554c-11.045,0.957 -22.095,1.872 -33.153,2.678c-34.972,2.55 -70.152,4.18 -105.199,2.234c-1.908,7.249 -4.393,14.361 -6.781,21.46c-4.203,12.495 -8.58,24.928 -12.648,37.468c-10.902,33.607 -21.051,67.443 -32.622,100.831c-8.553,24.68 -16.737,49.494 -24.399,74.464c-5.466,17.817 -10.77,35.723 -15.287,53.807c-7.394,29.597 -13.077,59.632 -16.846,89.907c-2.008,16.138 -2.45,32.473 -2.452,48.717c-0.004,21.359 0.918,42.716 2.273,64.028c3.812,59.977 11.403,119.705 18.914,179.31c0.183,1.454 3.117,1.535 4.12,1.607c0.389,0.028 0.617,0.042 1.009,0.059c0.566,0.023 1.133,0.034 1.7,0.035c8.013,0.021 16.08,-1.061 24.017,-2.008c19.597,-2.338 39.127,-5.219 58.752,-7.329c12.758,-1.372 25.765,-2.776 38.613,-2.042c2.248,-9.774 3.495,-19.698 4.837,-29.63c1.128,-8.352 2.344,-16.692 3.602,-25.026c3.156,-20.909 5.486,-41.957 6.372,-63.092c0.443,-10.573 0.376,-21.146 0.384,-31.725c0.011,-13.712 0.062,-27.423 0.272,-41.133c0.524,-34.238 2.272,-68.412 5.101,-102.536c1.222,-14.734 3.538,-29.411 5.492,-44.057c1.321,-9.906 2.623,-19.815 3.851,-29.733c0.66,-5.332 1.132,-10.712 1.952,-16.021c1.045,-6.765 2.32,-13.494 3.337,-20.265c1.939,-12.903 3.545,-25.852 5.004,-38.817c1.702,-15.124 3.111,-30.289 5.081,-45.382c0.523,-4.002 1.067,-8.011 1.852,-11.971c0.302,-1.525 0.518,-3.706 1.47,-5.025c0.22,-0.306 0.369,0.633 0.38,0.699c0.088,0.495 0.139,0.996 0.186,1.496c0.016,0.164 0.03,0.328 0.044,0.492c0.153,1.839 0.235,3.684 0.31,5.528c0.213,5.241 0.32,10.486 0.405,15.73c0.238,14.796 0.219,29.601 -0.223,44.393c-0.33,11.073 -0.908,22.139 -1.825,33.178c-0.478,5.75 -1.424,11.543 -1.585,17.307c-0.355,12.696 -0.198,25.44 -0.235,38.142c-0.047,16.463 -0.149,33.01 1.236,49.43c0.584,6.926 1.825,13.807 3.13,20.627c1.896,9.915 4.104,19.77 6.441,29.59c6.518,27.39 14.055,54.554 22.484,81.416c2.624,8.36 5.342,16.69 8.171,24.982c1.748,5.123 3.626,10.199 5.15,15.395c7.702,26.253 13.727,52.941 19.689,79.631c4.133,18.5 7.874,37.3 13.802,55.333c18.054,-4.747 36.666,-7.389 55.193,-9.429c24.321,-2.677 48.765,-4.105 73.203,-5.166c0.592,-14.792 0.801,-29.554 -0.522,-44.31c-2.933,-32.736 -10.25,-64.861 -14.802,-97.367" style="stroke:#000;stroke-width:4.17px;stroke-linejoin:round;stroke-miterlimit:2;"/><path d="M1251.06,1176.94c-2.646,-18.891 -5.036,-37.841 -8.829,-56.546c-3.286,-16.205 -7.909,-32.12 -10.081,-48.539c-2.55,-19.285 -2.613,-38.835 -2.689,-58.253c-0.12,-30.343 1.827,-60.546 5.405,-90.669c3.393,-28.555 8.527,-57.003 7.453,-85.863c-1.621,-43.534 -15.778,-85.169 -30.437,-125.776c-22.553,3.023 -45.287,6.17 -68.081,6.237c-9.954,0.029 -19.722,-1.082 -29.606,-2.088c-10.331,-1.052 -20.678,-1.939 -31.03,-2.755c-37.074,-2.923 -74.205,-5.481 -111.338,-7.54c-1.7,6.652 -4.711,13.018 -7.529,19.249c-3.874,8.564 -7.931,17.044 -11.909,25.559c-11.283,24.15 -22.246,48.538 -30.982,73.745c-8.553,24.68 -16.737,49.494 -24.399,74.464c-5.466,17.817 -10.77,35.723 -15.287,53.807c-7.394,29.597 -13.077,59.632 -16.846,89.907c-2.008,16.138 -2.45,32.473 -2.452,48.717c-0.004,21.359 0.918,42.716 2.273,64.028c3.812,59.977 11.403,119.705 18.914,179.31c0.183,1.454 3.117,1.535 4.12,1.607c0.389,0.028 0.617,0.042 1.009,0.059c0.566,0.023 1.133,0.034 1.7,0.035c8.013,0.021 16.08,-1.061 24.017,-2.008c19.597,-2.338 39.127,-5.219 58.752,-7.329c12.758,-1.372 25.765,-2.776 38.613,-2.042c2.248,-9.774 3.495,-19.698 4.837,-29.63c1.128,-8.352 2.344,-16.692 3.602,-25.026c3.156,-20.909 5.486,-41.957 6.372,-63.092c0.443,-10.573 0.376,-21.146 0.384,-31.725c0.011,-13.712 0.062,-27.423 0.272,-41.133c0.524,-34.238 2.272,-68.412 5.101,-102.536c1.222,-14.734 3.538,-29.411 5.492,-44.057c1.321,-9.906 2.623,-19.815 3.851,-29.733c0.66,-5.332 1.132,-10.712 1.952,-16.021c1.045,-6.765 2.32,-13.494 3.337,-20.265c1.939,-12.903 3.545,-25.852 5.004,-38.817c1.702,-15.124 3.111,-30.289 5.081,-45.382c0.523,-4.002 1.067,-8.011 1.852,-11.971c0.302,-1.525 0.518,-3.706 1.47,-5.025c0.22,-0.306 0.369,0.633 0.38,0.699c0.088,0.495 0.139,0.996 0.186,1.496c0.016,0.164 0.03,0.328 0.044,0.492c0.153,1.839 0.235,3.684 0.31,5.528c0.213,5.241 0.32,10.486 0.405,15.73c0.238,14.796 0.219,29.601 -0.223,44.393c-0.33,11.073 -0.908,22.139 -1.825,33.178c-0.478,5.75 -1.424,11.543 -1.585,17.307c-0.355,12.696 -0.198,25.44 -0.235,38.142c-0.047,16.463 -0.149,33.01 1.236,49.43c0.584,6.926 1.825,13.807 3.13,20.627c1.896,9.915 4.104,19.77 6.441,29.59c6.518,27.39 14.055,54.554 22.484,81.416c2.624,8.36 5.342,16.69 8.171,24.982c1.748,5.123 3.626,10.199 5.15,15.395c7.702,26.253 13.727,52.941 19.689,79.631c4.133,18.5 7.874,37.3 13.802,55.333c18.054,-4.747 36.666,-7.389 55.193,-9.429c24.321,-2.677 48.765,-4.105 73.203,-5.166c0.592,-14.792 0.801,-29.554 -0.522,-44.31c-2.933,-32.736 -10.25,-64.861 -14.802,-97.367Z" style="fill:none;fill-rule:nonzero;stroke:#000;stroke-width:4.17px;stroke-miterlimit:100;"/></g></g><g><path d="M1091.63,313.699c-22.527,-22.147 -38.01,-20.732 -73.53,-31.711c-21.815,8.069 -16.338,22.29 -21.126,61.782c-3.348,27.722 -0.462,48.169 17.021,63.348c15.237,13.182 21.3,3.37 31.075,21.114c9.775,17.745 -8.336,36.754 -15.568,52.94c10.99,30.026 77.51,7.085 89.208,-15.293c-2.061,-7.288 -16.502,-4.029 -23.619,-30.822c-4.945,-18.693 -13.676,-45.554 -14.652,-64.876c22.135,4.183 24.172,-48.753 11.191,-56.482Z" style="fill:#fff;fill-rule:nonzero;stroke:#000;stroke-width:4.17px;stroke-miterlimit:24;"/><path d="M1082.62,345.14c-0,-0 1.763,-2.259 -0.414,-4.224" style="fill:none;fill-rule:nonzero;stroke:#000;stroke-width:4.17px;stroke-linecap:round;stroke-miterlimit:24;"/><path d="M1043.97,331.236c-1.605,-2.142 -4.434,-9.376 -11.827,-3.217" style="fill:none;fill-rule:nonzero;stroke:#000;stroke-width:4.17px;stroke-linecap:round;"/><path d="M1007.99,327.371c2.113,-1.732 8.919,-2.818 12.31,-0.059" style="fill:none;fill-rule:nonzero;stroke:#000;stroke-width:4.17px;stroke-linecap:round;"/><path d="M1022.54,340.214c-0.564,15.671 -13.082,15.321 -8.642,20.268c1.574,1.777 5.322,2.314 7.698,1.012" style="fill:none;fill-rule:nonzero;stroke:#000;stroke-width:4.17px;stroke-linecap:round;stroke-miterlimit:24;"/><path d="M1011.96,341.442c2.079,0.178 3.91,-1.341 4.105,-3.492c0.169,-2.081 -1.439,-3.858 -3.52,-4.027c-2.071,-0.175 -3.909,1.333 -4.078,3.414c-0.177,2.079 1.414,3.928 3.493,4.105" style="fill-rule:nonzero;"/><path d="M1034.82,343.444c2.079,0.177 3.911,-1.341 4.106,-3.493c0.169,-2.081 -1.44,-3.857 -3.521,-4.027c-2.071,-0.175 -3.908,1.334 -4.077,3.415c-0.178,2.079 1.413,3.928 3.492,4.105" style="fill-rule:nonzero;"/><path d="M1016.9,384.616c0,-0 19.525,-7.694 20.539,-3.134" style="fill:none;fill-rule:nonzero;stroke:#000;stroke-width:4.17px;stroke-linecap:round;stroke-miterlimit:24;"/><path d="M1067.57,335.608c0.902,0.039 3.485,0.354 5.85,0.865c0.842,-3.248 2.855,-5.021 2.936,-5.113c2.192,-2.164 6.241,-4.75 10.925,-2.727c5.548,2.402 7.199,9.907 6.694,14.583c-0.653,6.037 -6.398,19.479 -20.061,12.071c-2.411,5.477 1.867,19.409 6.792,22.837c0.43,-0.016 4.695,0.884 10.916,-11.847c3.695,1.249 8.549,4.728 12.17,-0.22c4.235,-5.762 1.183,-13.22 -0.383,-16.018c4.364,1.231 8.69,-0.88 9.889,-5.857c1.367,-5.669 -4.021,-11.211 -10.099,-12.369c4.704,-1.167 11.499,-1.711 11.904,-7.919c0.596,-8.275 -7.17,-11.723 -11.561,-13.624c2.338,-0.894 16.295,-4.007 14.765,-10.741c-2.547,-11.035 -12.345,-8.846 -17.884,-8.246c4.72,-4.734 5.392,-9.787 2.08,-14.641c-5.068,-7.399 -17.012,-6.102 -20.891,-2.308c2.101,-5.185 -1.243,-14.717 -5.625,-16.863c-4.667,-2.275 -17.523,2.807 -19.03,6.798c-0.809,-4.916 -1.494,-13.142 -9.394,-14.798c-8.47,-1.803 -15.931,7.306 -17.477,12.2c-0.649,-3.847 -12.453,-14.445 -18.906,-10.547c-5.467,3.344 -5.474,12.426 -1.804,17.068c-5.695,-2.037 -14.067,-2.479 -17.215,3.299c-3.507,6.491 0.547,9.044 3.637,13.053c-2.536,-0.79 -12.586,2.727 -13.501,9.528c-0.754,5.391 8.831,7.343 11.242,7.131c-2.501,3.096 -0.544,7.811 4.585,9.652c5.199,1.798 7.305,-2.909 10.309,-6.608c0.004,3.273 1.521,7.516 4.748,8.481c6.689,1.91 12.396,-6.463 14.285,-9.527c0.801,3.712 3.275,8.544 7.317,10.37c8.92,3.964 12.613,-1.809 16.142,-6.165c-0.952,4.977 4.342,10.13 8.906,10.318c5.854,0.32 10.689,-2.878 14.212,-2.932c3.528,2.725 -2.511,12.117 -4.752,15.939c-0.379,0.651 -0.924,1.073 -1.721,4.877Z" style="fill-rule:nonzero;stroke:#000;stroke-width:4.17px;stroke-miterlimit:24;"/></g><g><path d="M1148.13,847.096c9.229,-2.889 20.824,-1.548 30.804,6.432c10.34,8.271 15.516,20.368 19.673,30.091c10.177,23.793 215.429,496.516 224.613,534.034c1.654,6.758 0.29,12.286 -3.074,12.333c-3.352,0.053 -7.41,-5.383 -9.064,-12.144c-9.193,-37.553 -220,-502.771 -230.208,-526.639c-3.481,-8.14 -7.429,-17.366 -13.985,-22.613c-4.593,-3.672 -12.376,-5.079 -15.906,-1.478c-3.729,3.801 -9.834,3.861 -13.638,0.13c-3.802,-3.729 -3.861,-9.833 -0.131,-13.638c2.863,-2.919 6.637,-5.168 10.916,-6.508" style="fill-rule:nonzero;"/><path d="M1148.13,847.096c9.229,-2.889 20.824,-1.548 30.804,6.432c10.34,8.271 15.516,20.368 19.673,30.091c10.177,23.793 215.429,496.516 224.613,534.034c1.654,6.758 0.29,12.286 -3.074,12.333c-3.352,0.053 -7.41,-5.383 -9.064,-12.144c-9.193,-37.553 -220,-502.771 -230.208,-526.639c-3.481,-8.14 -7.429,-17.366 -13.985,-22.613c-4.593,-3.672 -12.376,-5.079 -15.906,-1.478c-3.729,3.801 -9.834,3.861 -13.638,0.13c-3.802,-3.729 -3.861,-9.833 -0.131,-13.638c2.863,-2.919 6.637,-5.168 10.916,-6.508Z" style="fill:none;fill-rule:nonzero;stroke:#fff;stroke-width:4.17px;stroke-miterlimit:24;"/><g><path d="M1235.5,903.819c5.133,10.204 9.577,20.771 13.922,31.328c6.261,15.21 12.157,30.57 17.941,45.967c13.158,35.026 26.013,70.174 38.878,105.309c19.854,54.221 39.172,108.635 58.68,162.981c17.88,49.814 35.978,99.556 53.35,149.55c-4.73,2.629 -9.834,4.351 -14.811,6.427c-16.341,-34.542 -32.701,-69.075 -49.49,-103.402c-16.278,-33.283 -32.985,-66.358 -48.89,-99.822c-25.106,-52.824 -47.902,-106.693 -72.18,-159.894c-8.668,-18.994 -17.581,-37.871 -26.629,-56.686c-7.702,-16.018 -15.543,-31.978 -22.83,-48.191c-2.348,-5.223 0.39,-11.091 3.479,-15.348c6.986,-9.632 18.016,-17.333 29.217,-21.19c1.177,-0.405 2.371,-0.764 3.58,-1.06c5.293,-1.298 12.888,-1.726 15.783,4.031Z" style="fill:#fff;"/><clipPath id="_clip1"><path d="M1235.5,903.819c5.133,10.204 9.577,20.771 13.922,31.328c6.261,15.21 12.157,30.57 17.941,45.967c13.158,35.026 26.013,70.174 38.878,105.309c19.854,54.221 39.172,108.635 58.68,162.981c17.88,49.814 35.978,99.556 53.35,149.55c-4.73,2.629 -9.834,4.351 -14.811,6.427c-16.341,-34.542 -32.701,-69.075 -49.49,-103.402c-16.278,-33.283 -32.985,-66.358 -48.89,-99.822c-25.106,-52.824 -47.902,-106.693 -72.18,-159.894c-8.668,-18.994 -17.581,-37.871 -26.629,-56.686c-7.702,-16.018 -15.543,-31.978 -22.83,-48.191c-2.348,-5.223 0.39,-11.091 3.479,-15.348c6.986,-9.632 18.016,-17.333 29.217,-21.19c1.177,-0.405 2.371,-0.764 3.58,-1.06c5.293,-1.298 12.888,-1.726 15.783,4.031Z"/></clipPath><g clip-path="url(#_clip1)"><path d="M1207.47,874.409c42.135,106.215 84.137,212.482 125.976,318.814c30.451,77.388 60.632,154.893 91.608,232.073" style="fill:none;stroke:#000;stroke-width:4.17px;stroke-linecap:round;stroke-linejoin:round;stroke-miterlimit:1.5;"/><path d="M1181.43,887.824c27.537,63.412 55.214,126.766 82.606,190.242c12.906,29.908 25.496,59.952 38.442,89.843c17.177,39.661 34.865,79.097 52.129,118.72c20.831,47.813 41.227,95.812 61.919,143.685" style="fill:none;stroke:#000;stroke-width:4.17px;stroke-linecap:round;stroke-linejoin:round;stroke-miterlimit:1.5;"/></g><path d="M1235.5,903.819c5.133,10.204 9.577,20.771 13.922,31.328c6.261,15.21 12.157,30.57 17.941,45.967c13.158,35.026 26.013,70.174 38.878,105.309c19.854,54.221 39.172,108.635 58.68,162.981c17.88,49.814 35.978,99.556 53.35,149.55c-4.73,2.629 -9.834,4.351 -14.811,6.427c-16.341,-34.542 -32.701,-69.075 -49.49,-103.402c-16.278,-33.283 -32.985,-66.358 -48.89,-99.822c-25.106,-52.824 -47.902,-106.693 -72.18,-159.894c-8.668,-18.994 -17.581,-37.871 -26.629,-56.686c-7.702,-16.018 -15.543,-31.978 -22.83,-48.191c-2.348,-5.223 0.39,-11.091 3.479,-15.348c6.986,-9.632 18.016,-17.333 29.217,-21.19c1.177,-0.405 2.371,-0.764 3.58,-1.06c5.293,-1.298 12.888,-1.726 15.783,4.031Z" style="fill:none;stroke:#000;stroke-width:4.17px;stroke-linecap:round;stroke-linejoin:round;stroke-miterlimit:1.5;"/></g></g><g><path d="M1240.07,476.278c-46.988,30.56 -64.426,63.308 -55.989,101.372c23.239,20.308 53.921,43.395 51.943,63.216c-4.202,42.113 -11.034,100.678 -34.729,128.755c-32.303,38.247 -89.367,82.597 -76.477,89.42c7.24,3.823 37.503,-26.963 38.796,-25.094c1.056,1.624 -47.673,36.578 -38.257,47.448c7.742,8.975 51.842,-39.146 53.628,-37.392c1.937,2.034 -46.039,47.373 -37.177,54.707c11.106,9.209 50.897,-36.455 53.57,-38.703c2.626,-2.233 -21.611,27.611 -13.378,33.347c7.068,4.933 23.602,-14.233 30.271,-21.385c5.905,-6.374 21.018,-34.385 34.191,-45.713c15.159,-13.092 86.521,-143.431 83.872,-203.209c-2.742,-61.889 -36.306,-116.701 -90.264,-146.769Z" style="fill:#fff;fill-rule:nonzero;stroke:#000;stroke-width:4.17px;stroke-miterlimit:24;"/><path d="M1188.55,580.33c-0,0 50.17,-89.86 56.665,-100.439c-15.95,-12.045 -72.553,-30.56 -97.337,18.458c-24.083,47.667 40.672,81.981 40.672,81.981Z" style="fill:#fff;fill-rule:nonzero;stroke:#000;stroke-width:4.17px;stroke-miterlimit:24;"/></g></g></g></g><g id="Layer-1" serif:id="Layer 1"></g></svg>