<?xml version="1.0" encoding="UTF-8" standalone="no"?><!DOCTYPE svg PUBLIC "-//W3C//DTD SVG 1.1//EN" "http://www.w3.org/Graphics/SVG/1.1/DTD/svg11.dtd"><svg width="100%" height="100%" viewBox="0 0 1667 1667" version="1.1" xmlns="http://www.w3.org/2000/svg" xmlns:xlink="http://www.w3.org/1999/xlink" xml:space="preserve" xmlns:serif="http://www.serif.com/" style="fill-rule:evenodd;clip-rule:evenodd;stroke-linecap:round;stroke-linejoin:round;stroke-miterlimit:1.5;"><rect id="Window" x="0" y="0" width="1666.67" height="1666.67" style="fill:none;"/><g id="Window1" serif:id="Window"><path d="M241.326,718.645c53.318,-289.15 497.56,-460.648 825.061,-400.258c327.502,60.391 414.243,329.802 360.924,618.951c-53.318,289.149 -571.416,438.844 -901.819,397.151c-293.615,-37.051 -369.988,-379.185 -284.166,-615.844" style="fill:#fbb040;fill-rule:nonzero;"/><g><path d="M884.404,380.521l30.927,-12.431l0,28.518l-30.927,12.431l0,-28.518Z" style="fill:#fff;stroke:#000;stroke-width:4.17px;"/><path d="M973.997,380.521l-30.927,-12.431l-0,28.518l30.927,12.431l-0,-28.518Z" style="fill:#fff;stroke:#000;stroke-width:4.17px;"/><g><path d="M941.483,264.988c-0.74,-0.101 -31.035,0.343 -61.571,-22.99c-17.616,8.239 -11.993,19.781 -13.224,53.036c-0.841,23.387 2.959,40.209 18.699,51.657c13.613,9.968 27.417,2.588 24.789,19.346c-2.766,17.63 -1.983,25.069 -1.456,41.734c11.3,24.329 58.026,20.327 66.212,0.841c-2.219,-5.973 -13.667,-19.688 -21.51,-41.595c-5.475,-15.241 -13.022,-39.765 -15.195,-55.847c18.8,1.923 15.74,-40.559 3.256,-46.182Z" style="fill:#fff;fill-rule:nonzero;"/><clipPath id="_clip1"><path d="M941.483,264.988c-0.74,-0.101 -31.035,0.343 -61.571,-22.99c-17.616,8.239 -11.993,19.781 -13.224,53.036c-0.841,23.387 2.959,40.209 18.699,51.657c13.613,9.968 27.417,2.588 24.789,19.346c-2.766,17.63 -1.983,25.069 -1.456,41.734c11.3,24.329 58.026,20.327 66.212,0.841c-2.219,-5.973 -13.667,-19.688 -21.51,-41.595c-5.475,-15.241 -13.022,-39.765 -15.195,-55.847c18.8,1.923 15.74,-40.559 3.256,-46.182Z" clip-rule="nonzero"/></clipPath><g clip-path="url(#_clip1)"><path d="M938.206,290.224c-0,-0 2.22,-2.644 -0.437,-4.191" style="fill:none;fill-rule:nonzero;stroke:#000;stroke-width:4.17px;stroke-linejoin:miter;stroke-miterlimit:10;"/><path d="M904.311,279.444c-1.527,-1.728 -5.684,-4.829 -10.116,-1.876" style="fill:none;fill-rule:nonzero;stroke:#000;stroke-width:4.17px;stroke-linejoin:miter;stroke-miterlimit:10;"/><path d="M875.424,278.302c1.675,-1.58 7.022,-4.156 10.264,-0.935" style="fill:none;fill-rule:nonzero;stroke:#000;stroke-width:4.17px;stroke-linejoin:miter;stroke-miterlimit:10;"/><path d="M888.054,288.22c0.639,13.123 -9.766,13.715 -5.724,17.515c1.433,1.379 4.588,1.581 6.464,0.296" style="fill:none;fill-rule:nonzero;stroke:#000;stroke-width:4.17px;stroke-linejoin:miter;stroke-miterlimit:10;"/><path d="M876.587,286.004c-0,-1.843 1.486,-3.396 3.397,-3.396c1.843,-0 3.329,1.553 3.329,3.396c-0,1.911 -1.486,3.397 -3.329,3.397c-1.911,0 -3.397,-1.486 -3.397,-3.397m-0,0c-0,-1.843 1.486,-3.396 3.397,-3.396c1.843,-0 3.329,1.553 3.329,3.396c-0,1.911 -1.486,3.397 -3.329,3.397c-1.911,0 -3.397,-1.486 -3.397,-3.397" style="fill-rule:nonzero;"/><path d="M895.466,286.539c-0,-1.843 1.486,-3.397 3.397,-3.397c1.843,-0 3.329,1.554 3.329,3.397c0,1.91 -1.486,3.396 -3.329,3.396c-1.911,0 -3.397,-1.486 -3.397,-3.396m-0,-0c-0,-1.843 1.486,-3.397 3.397,-3.397c1.843,-0 3.329,1.554 3.329,3.397c0,1.91 -1.486,3.396 -3.329,3.396c-1.911,0 -3.397,-1.486 -3.397,-3.396" style="fill-rule:nonzero;"/><path d="M888,326.957c-0,-0 11.986,-0.841 14.111,-9.424" style="fill:none;fill-rule:nonzero;stroke:#000;stroke-width:4.17px;stroke-linejoin:miter;stroke-miterlimit:10;"/></g><path d="M941.483,264.988c-0.74,-0.101 -31.035,0.343 -61.571,-22.99c-17.616,8.239 -11.993,19.781 -13.224,53.036c-0.841,23.387 2.959,40.209 18.699,51.657c13.613,9.968 27.417,2.588 24.789,19.346c-2.766,17.63 -1.983,25.069 -1.456,41.734c11.3,24.329 58.026,20.327 66.212,0.841c-2.219,-5.973 -13.667,-19.688 -21.51,-41.595c-5.475,-15.241 -13.022,-39.765 -15.195,-55.847c18.8,1.923 15.74,-40.559 3.256,-46.182Z" style="fill:none;fill-rule:nonzero;stroke:#000;stroke-width:4.17px;stroke-linecap:butt;stroke-linejoin:miter;stroke-miterlimit:10;"/><path d="M929.839,242.835c-8.34,-14.111 -20.279,-18.503 -41.245,-17.367c-27.14,1.433 -39.126,12.383 -32.81,27.335c6.363,14.899 52.545,11.69 60.193,9.518c8.387,-2.368 13.667,3.06 10.412,8.092c-2.173,3.605 -2.913,5.925 -2.57,11.051c-0.195,0.201 4.588,3.706 4.588,3.706c0.592,-6.814 7.304,-11.3 12.732,-9.82c3.848,1.035 11.3,7.6 5.771,18.005c-2.912,5.429 -9.228,11.3 -17.562,8.388c-2.569,11.791 12.773,25.512 12.773,25.512c0,0 14.112,-24.967 16.284,-39.032c1.379,-9.026 2.866,-45.045 -28.566,-45.388Z" style="fill-rule:nonzero;stroke:#000;stroke-width:4.17px;stroke-linecap:butt;stroke-linejoin:miter;stroke-miterlimit:10;"/></g><path d="M674.111,530.558c-7.968,14.569 -14.821,29.903 -22.439,44.421c-0.169,0.32 -0.338,0.641 -0.507,0.961c-14.268,-10.529 -26.866,-19.132 -34.517,-21.98c-22.505,-8.368 -68.018,-30.884 -66.776,-37.249c1.161,-5.941 29.287,9.372 28.955,6.807c-0.297,-2.309 -34.892,-23.71 -30.355,-32.538c3.232,-6.282 32.92,18.205 33.62,14.131c0.865,-5.057 -34.055,-30.574 -27.36,-37.542c6.077,-6.328 38.453,27.545 41.062,25.524c2.248,-1.742 -25.208,-27.574 -16.369,-36.209c5.232,-5.112 31.016,34.86 35.738,27.513c7.218,-11.2 -3.359,-27.119 7.684,-24.382c7.848,1.952 10.532,31.135 20.478,41.34c8.401,8.622 18.915,18.956 30.786,29.203Z" style="fill:#fff;stroke:#000;stroke-width:4.17px;stroke-linecap:butt;stroke-linejoin:miter;stroke-miterlimit:10;"/><path d="M836.541,440.394l-61.152,107.659l-117.042,-43.282l-39.971,59.348c0,-0 94.308,81.147 149.551,82.968c67.743,2.233 116.462,-142.602 116.643,-142.942c25.731,-48.157 14.205,-125.505 -48.029,-63.751Z" style="fill:#fff;stroke:#000;stroke-width:4.17px;"/><path d="M969.509,400.996c-3.376,26.686 -67.462,22.317 -59.308,0.021c4.926,-13.467 -44.758,11.595 -71.057,36.415c-9.32,8.795 -12.189,124.491 -10.662,140.23c73.174,4.641 196.68,16.497 244.785,18.367c0.74,-54.072 -9.786,-98.418 -16.398,-123.036c-2.203,-8.205 24.863,-32.762 12.218,-48.583c-14.108,-17.652 -69.35,-26.113 -99.578,-23.414Z" style="fill:#fff;fill-rule:nonzero;stroke:#000;stroke-width:4.17px;stroke-linecap:butt;stroke-linejoin:miter;stroke-miterlimit:10;"/><path d="M672.331,1311.9c-13.792,-57.181 -43.65,-294.242 -12.673,-444.841c17.523,-85.191 47.703,-134.479 70.845,-161.8c53.388,-63.026 91.162,-104.612 96.747,-127.339c104.472,4.074 192.006,0.856 245.053,3.597c52.372,185.917 16.929,174.584 4.309,351.502c-7.544,105.746 0.424,104.045 14.848,210.715c9.23,68.256 8.015,99.882 13.155,149.808c-44.361,0 -105.732,16.296 -147.437,26.152c-26.152,-65.961 -82.476,-299.426 -84.303,-353.387c-2.358,-69.565 28.458,-246.642 24.597,-242.79c-7.738,7.747 -54.123,200.624 -59.871,241.987c-14.844,106.982 -12.23,170.517 -21.249,276.731c-3.032,35.761 -2.033,44.515 -4.775,62.801c-42.2,-4.125 -137.242,15.174 -139.246,6.864Z" style="stroke:#000;stroke-width:4.17px;stroke-linecap:butt;stroke-miterlimit:2;"/><path d="M959.394,1386.16c-15.682,27.283 -30.658,24.158 -34.233,40.615c-3.619,16.644 29.07,12.119 40.809,10.838c39.564,-4.407 127.275,-8.851 146.301,-15.132c17.282,-5.688 -6.144,-99.443 -7.425,-132.089c-34.758,-1.469 -150.671,19.758 -148.827,25.952c7.982,26.726 14.651,50.24 3.375,69.816" style="fill:#fff;fill-rule:nonzero;stroke:#000;stroke-width:4.17px;stroke-linecap:butt;stroke-miterlimit:2;"/><path d="M666.99,1388.38c-15.682,27.283 -30.658,24.158 -34.233,40.615c-3.619,16.645 29.07,12.119 40.808,10.838c39.565,-4.406 127.276,-8.85 146.302,-15.132c17.282,-5.688 -6.144,-99.443 -7.426,-132.088c-34.758,-1.469 -143.241,10.208 -141.397,16.402c7.982,26.727 7.221,59.789 -4.054,79.365" style="fill:#fff;fill-rule:nonzero;stroke:#000;stroke-width:4.17px;stroke-linecap:butt;stroke-miterlimit:2;"/><path d="M947.222,428.003l-17.705,-17.705l-18.677,18.676l17.705,17.705l18.677,-18.676Z" style="stroke:#000;stroke-width:4.17px;"/><path d="M930.817,439.727l-5.586,-0l-9.414,64.31l3.429,73.749l8.984,14.223l8.572,-14.223l1.228,-73.897l-7.213,-64.162Z" style="stroke:#000;stroke-width:4.17px;"/><path d="M974.397,380.471l-44.138,31.64l13.21,21.142l30.928,-24.263l-0,-28.519Z" style="fill:#fff;stroke:#000;stroke-width:4.17px;"/><path d="M883.431,380.631l42.964,30.932l-12.037,21.85l-30.927,-24.263l-0,-28.519Z" style="fill:#fff;stroke:#000;stroke-width:4.17px;"/><g><path d="M838.746,387.518c-0.768,-0.3 -1.61,-0.468 -2.48,-0.468l-62.938,0l-91.016,-1.111l-96.927,1.111c-0.228,0 -0.455,0.013 -0.681,0.034c-0.048,0.006 -0.096,0.014 -0.144,0.022c-0.175,0.019 -0.349,0.044 -0.52,0.078c-0.059,0.013 -0.118,0.029 -0.177,0.043c-0.15,0.034 -0.3,0.07 -0.447,0.114c-0.111,0.034 -0.22,0.076 -0.33,0.115c-0.059,0.021 -0.122,0.039 -0.181,0.062c-0.012,0.006 -0.021,0.011 -0.034,0.016c-0.295,0.117 -0.579,0.254 -0.854,0.41c-0.028,0.016 -0.059,0.035 -0.087,0.053c-0.249,0.145 -0.486,0.306 -0.713,0.481c-0.031,0.025 -0.063,0.046 -0.095,0.071c-0.234,0.188 -0.454,0.39 -0.661,0.606c-0.043,0.045 -0.082,0.091 -0.125,0.138c-0.175,0.191 -0.34,0.393 -0.491,0.604c-0.031,0.041 -0.063,0.08 -0.092,0.123c-0.164,0.237 -0.309,0.486 -0.441,0.743c-0.037,0.073 -0.071,0.147 -0.105,0.22c-0.109,0.23 -0.206,0.466 -0.288,0.709c-0.016,0.047 -0.037,0.093 -0.052,0.14c-0.087,0.28 -0.152,0.57 -0.203,0.863c-0.015,0.082 -0.027,0.162 -0.038,0.246c-0.043,0.3 -0.07,0.604 -0.071,0.915c-0,0.005 -0.002,0.011 -0.002,0.018l-0,0.009l-0.835,56.738l-0.554,180.226l1.389,79.849c-0,2.892 1.806,5.372 4.352,6.364c0.767,0.298 1.61,0.468 2.48,0.468l62.938,0l97.626,0.502l90.317,-0.502c0.229,0 0.456,-0.012 0.681,-0.034c0.048,-0.005 0.094,-0.016 0.144,-0.021c0.176,-0.022 0.349,-0.045 0.52,-0.079c0.059,-0.012 0.116,-0.028 0.175,-0.043c0.152,-0.034 0.302,-0.069 0.449,-0.114c0.111,-0.034 0.22,-0.075 0.329,-0.114c0.06,-0.022 0.123,-0.04 0.182,-0.063c0.012,-0.005 0.021,-0.012 0.034,-0.016c0.295,-0.118 0.579,-0.254 0.852,-0.409c0.031,-0.016 0.059,-0.036 0.089,-0.054c0.249,-0.146 0.486,-0.305 0.713,-0.48c0.031,-0.025 0.063,-0.047 0.093,-0.072c0.236,-0.187 0.456,-0.389 0.663,-0.606c0.043,-0.044 0.082,-0.091 0.125,-0.137c0.174,-0.191 0.338,-0.393 0.49,-0.604c0.03,-0.041 0.064,-0.08 0.093,-0.123c0.164,-0.238 0.309,-0.486 0.441,-0.744c0.038,-0.073 0.072,-0.146 0.105,-0.219c0.109,-0.231 0.206,-0.467 0.288,-0.71c0.016,-0.048 0.036,-0.093 0.052,-0.141c0.087,-0.279 0.152,-0.568 0.204,-0.861c0.014,-0.082 0.026,-0.164 0.037,-0.247c0.041,-0.3 0.07,-0.604 0.072,-0.914c-0,-0.006 0.001,-0.011 0.001,-0.018l0,-0.009l-1.613,-261.72l1.613,-55.093c0,-2.893 -1.806,-5.373 -4.352,-6.365" style="fill:#fff;fill-rule:nonzero;stroke:#000;stroke-width:4.17px;stroke-linecap:butt;stroke-miterlimit:2;"/><path d="M760.656,665.11c-12.092,-0 -21.9,-9.808 -21.9,-21.898c0,-3.421 0.791,-6.669 2.199,-9.559c0.183,-0.389 0.39,-0.779 0.606,-1.157c3.746,-6.68 10.89,-11.194 19.095,-11.194c4.275,-0 8.259,1.224 11.625,3.344c0.39,0.239 0.768,0.488 1.137,0.759c5.542,3.973 9.146,10.468 9.146,17.807c0,12.09 -9.807,21.898 -21.908,21.898m30.189,-26.37c0.13,-0.357 0.26,-0.747 0.413,-1.178c0.118,-0.348 0.204,-0.694 0.26,-1.051l-0,-0.011c0.042,-0.302 0.065,-0.595 0.065,-0.898c-0,-1.993 -0.975,-3.909 -2.719,-5.12c-5.152,-3.562 -4.892,-2.987 -6.483,-7.87c-0.098,-0.292 -0.195,-0.606 -0.304,-0.942c-0.042,-0.097 -0.074,-0.206 -0.107,-0.313c-0.877,-2.609 -3.41,-4.374 -6.258,-4.374l-0.021,-0c-6.831,0.022 -5.639,0.389 -11.16,-3.485c-1.148,-0.812 -2.512,-1.213 -3.875,-1.213c-1.353,0 -2.707,0.401 -3.865,1.213c-5.553,3.897 -4.351,3.507 -11.171,3.485l-0.011,-0c-2.847,-0 -5.38,1.765 -6.245,4.374c-2.09,6.267 -1.376,5.293 -6.896,9.125c-1.58,1.093 -2.522,2.749 -2.696,4.514c-0.021,0.205 -0.032,0.4 -0.032,0.606c-0,0.109 -0,0.216 0.011,0.324c0.033,0.541 0.13,1.093 0.314,1.636c2.143,6.256 2.132,5.054 -0,11.289c-0.216,0.638 -0.325,1.311 -0.325,1.96c-0,1.981 0.974,3.907 2.728,5.108c5.532,3.844 4.817,2.869 6.896,9.126c0.877,2.62 3.398,4.384 6.245,4.384l0.011,-0c6.841,-0.021 5.662,-0.4 11.171,3.474c1.158,0.824 2.512,1.225 3.865,1.225c1.363,-0 2.727,-0.401 3.875,-1.213c5.521,-3.876 4.329,-3.507 11.16,-3.486l0.033,-0c2.836,-0 5.369,-1.764 6.246,-4.373c2.088,-6.256 1.341,-5.293 6.906,-9.137c1.732,-1.201 2.707,-3.117 2.707,-5.108c-0,-0.649 -0.098,-1.322 -0.325,-1.96c-1.993,-5.834 -2.122,-5.196 -0.413,-10.111" style="fill-rule:nonzero;stroke:#000;stroke-width:4.17px;stroke-linecap:butt;stroke-miterlimit:2;"/><path d="M757.388,653.879l-10.395,-10.395l4.425,-4.425l5.97,5.97l11.939,-11.939l4.425,4.425l-16.364,16.364Z" style="fill:#fff;stroke:#000;stroke-width:4.17px;"/><path d="M803.819,410.982l-185.989,-0c0,8.43 -6.822,15.265 -15.238,15.265l-0,252.084c8.416,0 15.238,6.835 15.238,15.266l185.989,-0c0,-8.431 6.822,-15.266 15.241,-15.266l-0,-252.084c-8.419,-0 -15.241,-6.835 -15.241,-15.265Z" style="fill:none;fill-rule:nonzero;stroke:#000;stroke-width:4.17px;stroke-linecap:butt;stroke-linejoin:miter;stroke-miterlimit:10;"/><path d="M741.999,451.203c0.001,-0.132 -0.443,-0.212 -0.808,-0.211c-4.657,0.004 -9.312,0.056 -13.969,0.064c-13.153,0.023 -26.307,0.013 -39.46,0.013c-0.365,-0 -0.822,0.076 -0.822,0.21c0,2.612 0.194,5.224 0.177,7.835c-0.005,0.872 -0.159,1.743 -0.175,2.615c-0.002,0.132 0.446,0.21 0.807,0.21c17.789,-0.002 35.578,-0 53.367,-0c0.363,-0 0.823,-0.077 0.816,-0.211c0.192,-0.97 -0.054,-1.94 0.009,-2.91c0.091,-1.401 0.378,-2.8 0.399,-4.202c0.017,-1.137 -0.205,-2.276 -0.341,-3.413Z" style="stroke:#000;stroke-width:4.17px;"/><path d="M795.607,492.545c0.002,-0.133 -1.316,-0.212 -2.402,-0.212c-13.835,0.005 -27.664,0.057 -41.499,0.065c-39.076,0.023 -78.155,0.012 -117.232,0.012c-1.083,0 -2.44,0.077 -2.44,0.211c0,2.611 0.577,5.223 0.527,7.834c-0.017,0.872 -0.475,1.743 -0.521,2.615c-0.007,0.132 1.325,0.21 2.396,0.21c52.849,-0.001 105.698,0 158.547,0c1.079,0 2.444,-0.076 2.425,-0.211c0.569,-0.969 -0.162,-1.939 0.025,-2.909c0.271,-1.401 1.124,-2.801 1.186,-4.202c0.051,-1.138 -0.607,-2.277 -1.012,-3.413Z" style="stroke:#000;stroke-width:4.17px;"/><path d="M795.607,533.886c0.002,-0.132 -1.316,-0.212 -2.402,-0.211c-13.835,0.004 -27.664,0.056 -41.499,0.064c-39.076,0.023 -78.155,0.013 -117.232,0.013c-1.083,-0 -2.44,0.076 -2.44,0.21c0,2.612 0.577,5.223 0.527,7.835c-0.017,0.872 -0.475,1.743 -0.521,2.615c-0.007,0.132 1.325,0.21 2.396,0.21c52.849,-0.002 105.698,-0 158.547,-0c1.079,-0 2.444,-0.077 2.425,-0.211c0.569,-0.97 -0.162,-1.94 0.025,-2.91c0.271,-1.401 1.124,-2.8 1.186,-4.202c0.051,-1.137 -0.607,-2.276 -1.012,-3.413Z" style="stroke:#000;stroke-width:4.17px;"/><path d="M795.607,575.228c0.002,-0.133 -1.316,-0.212 -2.402,-0.212c-13.835,0.005 -27.664,0.057 -41.499,0.065c-39.076,0.022 -78.155,0.012 -117.232,0.012c-1.083,-0 -2.44,0.076 -2.44,0.211c0,2.611 0.577,5.223 0.527,7.834c-0.017,0.872 -0.475,1.743 -0.521,2.615c-0.007,0.132 1.325,0.21 2.396,0.21c52.849,-0.002 105.698,-0 158.547,-0c1.079,-0 2.444,-0.076 2.425,-0.211c0.569,-0.969 -0.162,-1.939 0.025,-2.91c0.271,-1.4 1.124,-2.8 1.186,-4.201c0.051,-1.138 -0.607,-2.277 -1.012,-3.413Z" style="stroke:#000;stroke-width:4.17px;"/></g><g><path d="M928.364,582.818c2.51,16.477 5.312,32.897 8.203,49.307c-21.126,2.373 -39.015,5.588 -46.435,10.65c-18.681,12.744 -64.246,16.78 -67.257,11.036c-2.81,-5.362 28.718,-10.994 26.852,-12.793c-1.678,-1.607 -42.055,3.314 -44.035,-6.412c-1.406,-6.923 43.895,-5.49 41.897,-9.101c-2.49,-4.493 -50.805,-4.846 -49.941,-14.476c0.787,-8.738 50.94,0.828 51.712,-2.381c0.666,-2.765 -40.795,-11.234 -39.297,-23.499c0.88,-7.258 44.804,11.264 43.561,2.624c-1.753,-12.152 -18.13,-20.794 -9.062,-23.19c14.311,-3.768 39.618,22.656 53.748,20.836c8.277,-1.064 18.702,-1.756 30.054,-2.601Z" style="fill:#fff;stroke:#000;stroke-width:4.17px;stroke-linecap:butt;stroke-linejoin:miter;stroke-miterlimit:10;"/><path d="M1010.18,477.539c-0,-0 7.996,-49.917 41.686,-58.02c40.853,-9.826 56.298,36.124 54.487,69.667c-2.261,41.875 -17.447,96.224 -28.941,125.42c-11.495,29.197 -160.433,26.465 -160.433,26.465l-7.323,-64.281l83.546,-30.531l16.978,-68.72Z" style="fill:#fff;stroke:#000;stroke-width:4.17px;"/></g></g></g></svg>