<?xml version="1.0" encoding="UTF-8"?><svg id="Layer_1" xmlns="http://www.w3.org/2000/svg" viewBox="0 0 800 800"><defs><style>.cls-1,.cls-2,.cls-3,.cls-4,.cls-5,.cls-6,.cls-7,.cls-8{stroke:#000;}.cls-1,.cls-2,.cls-3,.cls-4,.cls-5,.cls-7{stroke-width:3px;}.cls-1,.cls-2,.cls-3,.cls-5,.cls-8{stroke-miterlimit:24;}.cls-2,.cls-7{fill:#fff;}.cls-3{fill:#231f20;}.cls-4,.cls-6,.cls-7{stroke-miterlimit:10;}.cls-9{fill:#fbb040;}.cls-5,.cls-6,.cls-8{stroke-linecap:round;}.cls-5,.cls-8{fill:none;}.cls-6,.cls-8{stroke-width:2px;}</style></defs><g id="_2"><path id="backgroung_shape" class="cls-9" d="M226.68,365.91c-20.84-79.66,142.83-172.61,220.13-164.53,92.45,9.66,143.76,34.53,164.6,114.19,20.84,79.66-90.77,184.15-180.65,207.67-89.88,23.52-183.24-77.67-204.08-157.33Z"/><path id="path" class="cls-5" d="M721.74,526.17c-75.34,7.63-155.74,18.68-240.36,34.31-122.94,22.71-234.75,51.38-334.42,82.04"/><path id="head" class="cls-7" d="M406.22,204.12c-5.99,7.84-14.82,8.48-16.96,10.11-3.62,10.06,11.12,27.15,23.93,14.43,1.36-6.1,2.17-14.27,8.7-17.25,6.5-2.97,6.14,1.09,13.26,.55,8.17-.62,13.3-5.81,18.17-14.37,6.96-12.22,9.41-13.34,4.92-20.22-16.14,1.57-19.46-7.2-22.12-4.18-1.41,1.6-6.11,7.47-6.15,6.62-.28-5.79-6.02-4.44-7.85-2.22-2.4,2.93-2.69,6.12,.56,8.39,.51,.35-5.33,3.56-16.46,18.13Z"/><path id="ear_inside" class="cls-8" d="M424.22,182.3s-.12-1.89,1.84-1.91"/><path id="brow" class="cls-6" d="M442.13,183.57c.97,.09,2.63,.5,3.73,1.64"/><path id="brow-2" class="cls-8" d="M452.82,190.38c-.57-.92-1.75-2.11-3.09-2.53"/><path id="nose" class="cls-8" d="M445.92,190.88c-3.26,4.51,.83,6.95-1.99,7.54-.83,.17-2.02-.88-2.61-1.71"/><path id="eye" d="M448.77,193.88c-.64-.41-.81-1.25-.4-1.86,.41-.64,1.25-.81,1.86-.4,.64,.41,.81,1.25,.4,1.86-.41,.64-1.25,.81-1.86,.4Z"/><path id="mouth" class="cls-8" d="M436.53,204.63s-4.31-2.51-2.85-6.59"/><g id="bike"><path id="bike-2" class="cls-1" d="M348.6,403.22l43.24,78.49,70.88-108.58-114.11,30.09Zm-16.72,11.68l-42.59,86.76,89.11-14.41-46.52-72.34Zm147.59-49.63c37.49,36.06,84.1,78.11,98.16,89.08-2.96,3.84-6.05,6.25-11.26,10.35-28.63-20.08-54.53-46.78-90.13-78.98-20.64,29.44-45.76,67.14-68.45,109.82-62.72,12.5-98.99,18.42-132.15,24.59-1.61-1.45-2.81-3.36-5.25-6.12,14.73-30.64,33.07-77.26,52.86-124.5-5-9.52-9.17-14.12-13.85-21.9,1.21-.86,3.67-2.91,5.93-5.2,4.71,8,8.59,16.46,13.87,22.8,42.73-8.31,120.18-27.95,126.93-29.49,26.1-9.22,14.01-.04,23.34,9.54Z"/><path id="handles" class="cls-1" d="M456.15,355.72c-1.94-9.62-13.13-28.84-9.21-36.76,4.01-8.14,32.72-20.43,49.13-10.66,11.13,6.65,10.37,22.07,11.39,28.06-2.52,.56-6.88,.1-9.07,1.22-1.13-7.53-.03-15.84-7.07-20.08-8.77-5.24-25.69,1.9-27.21,8.1-1.51,6.08,7.81,19.47,9.28,26.53-5.1,1.06-11,2.29-17.25,3.58Z"/><path id="seddle" class="cls-2" d="M309.56,365.43c-3.89,4.13-1.26,6.91-8.92,9.01-12.53,3.42-29.41-11.14-25.9-17.72,3.38-4.2,55.5-19.45,61.36-8.5,2.05,3.84-22.42,12.86-26.55,17.21Z"/><path id="wheel" class="cls-4" d="M282.28,424.93c-49.8-5.28-94.45,30.78-99.73,80.54-5.28,49.76,30.81,94.37,80.61,99.65,49.8,5.28,94.45-30.78,99.73-80.54,5.28-49.76-30.81-94.37-80.61-99.64Zm-5.43,12.92l-7.75,73.04-73.12-7.75c4.28-40.34,40.49-69.58,80.87-65.3Zm-15.83,153.54c-40.38-4.28-69.65-40.46-65.37-80.81l73.12,7.75-7.75,73.06Zm23.88-152.68c40.38,4.28,69.63,40.45,65.35,80.79l-73.1-7.75,7.75-73.04Zm-16.3,153.49l7.75-73.06,73.1,7.75c-4.28,40.34-40.48,69.59-80.86,65.31Z"/><path id="wheel-2" class="cls-4" d="M561.01,367.27c-49.97,3.26-87.83,46.38-84.57,96.31,3.26,49.93,46.42,87.76,96.39,84.5,49.97-3.26,87.83-46.38,84.57-96.31-3.26-49.93-46.42-87.76-96.39-84.5Zm-3.15,13.66l4.79,73.3-73.37,4.79c-2.65-40.48,28.07-75.44,68.58-78.08Zm10.52,153.99c-40.52,2.64-75.52-28.04-78.16-68.53l73.37-4.79,4.79,73.31Zm-2.45-154.52c40.52-2.64,75.5,28.03,78.15,68.51l-73.36,4.79-4.79-73.3Zm10.05,154.02l-4.79-73.31,73.36-4.79c2.65,40.48-28.05,75.45-68.57,78.1Z"/></g><path id="pants" class="cls-4" d="M469.86,374.59c18.45,24.22-13.42,71.28-36.17,114.96-9.22-3.95-41.5-25.96-50.73-28.85,19.74-33.22,17.39-39.42,20.94-48.53,2.39-6.13-36.95-23.61-94.52-39.53-31.14-8.6-38.89-23.01-41.5-43.87-2.57-20.4,27.34-43.8,40.22-54.43,21.68,9.94,71.29,33.52,80.77,40.93-1.59,2.3-4.83,8.09-7.37,13.72,12.61,6.19,72.96,25.41,88.35,45.6Z"/><path id="tshirt" class="cls-2" d="M388.9,315.11c-10.82-5.33-81.39-40.22-80.54-40.97,7.47-6.6,52.14-46.33,55.91-49.64,14.68-12.9,35.03-14.73,35.03-14.73,0,0-2.06,19.77,14.18,19.78,1.5,8.67,5.51,28.43-1.95,43.56-4.16,8.43-18.41,35.47-22.64,42.01Z"/><path id="arm" class="cls-2" d="M477.71,324.38c5.58,3.25,9.68,.23,15.42-.05,2.9-.15,2.35,5.07,4.49,7.08,4.61,4.34,9.67-.86,11.96,3.3,3.77,6.89-6.09,20.84-14.14,25.69-5.37,3.22-9.47,4.87-14.38,1.36-1.98-1.41-9.68-5.51-14.98-8.26-24.57-12.72-24.33-15.03-46.62-29.4-22.73-14.64-45.42-34.87-51.22-58.97,9.18-8.82,30.01-11.99,40.18-12.81,12.38,27.36,24.21,44.48,32.46,49.88,14.89,10.75,34.74,20.97,36.84,22.19Z"/><path id="sleeve" class="cls-2" d="M409.14,253.62s-36.46,10.23-40.8,11.65c-2.94-6.74-4.71-28.56,14.95-33.22,19.12-4.52,25.84,21.57,25.84,21.57Z"/><path id="boot" class="cls-2" d="M420.77,517.73c-.5,10.64,2.36,20.56,.09,27.01-2.27,6.51-6.24,3.69-10.03,.74-12.72-9.92-45.93-28.7-51.19-34.9-4.76-5.64,13.69-29.71,23.97-50.35,12.37,7.02,40.72,24.06,50.22,28.35-5.18,12.79-12.79,23.44-13.06,29.16Z"/><g id="bandana"><path class="cls-3" d="M458.83,186.2c.33,.3,.82,.22,1.05-.16,1.05-1.71,1.66-8.46-1.33-12.39-2.63-3.45-6.65-4.75-9.1-5.19-1.3-.23-6.72-.58-11.56,2.57-1.02,.66-1.78,1.36-2.3,1.89,3.44,.97,7.71,2.5,12.31,5.01,4.81,2.62,8.21,5.82,10.92,8.27Z"/><g><path class="cls-3" d="M434.09,170.85c1.46-.26,2.38-3.7,.76-6.3-1.22-1.95-1.65-4.34-1.97-5.61-.42,.43-2.88,3.03-2.46,6.56,.33,2.75,2.34,5.58,3.67,5.35Z"/><path class="cls-3" d="M432.39,172.42c.87-1.21-.88-4.31-3.85-5.05-2.23-.55-4.22-1.96-5.33-2.65,0,.6,.05,4.18,2.82,6.42,2.15,1.75,5.58,2.37,6.36,1.28Z"/><circle id="knot" class="cls-3" cx="434.11" cy="171.55" r="1.67" transform="translate(230.13 591.4) rotate(-85.65)"/></g></g><path id="eye-2" d="M441.32,189.19c-.64-.41-.81-1.25-.4-1.86,.41-.64,1.25-.81,1.86-.4,.64,.41,.81,1.25,.4,1.86-.41,.64-1.25,.81-1.86,.4Z"/><g id="movement"><line class="cls-5" x1="157.73" y1="532.23" x2="111.26" y2="546.27"/><line class="cls-5" x1="156.02" y1="553.93" x2="78.26" y2="577.43"/><line class="cls-5" x1="169.48" y1="571.06" x2="123.02" y2="585.1"/></g></g></svg>