<svg xmlns="http://www.w3.org/2000/svg" version="1.1" xmlns:xlink="http://www.w3.org/1999/xlink" xmlns:svgjs="http://svgjs.dev/svgjs" width="1000" height="623" viewBox="0 0 1000 623"><g transform="matrix(1,0,0,1,-0.6060606060606233,0.2522267206477409)"><svg viewBox="0 0 396 247" data-background-color="#ffffff" preserveAspectRatio="xMidYMid meet" height="623" width="1000" xmlns="http://www.w3.org/2000/svg" xmlns:xlink="http://www.w3.org/1999/xlink"><g id="tight-bounds" transform="matrix(1,0,0,1,0.2400000000000091,-0.09999999999999432)"><svg viewBox="0 0 395.52 247.2" height="247.2" width="395.52"><g><svg></svg></g><g><svg viewBox="0 0 395.52 247.2" height="247.2" width="395.52"><g transform="matrix(1,0,0,1,0,102.2108322324967)"><svg viewBox="0 0 395.52 42.77833553500659" height="42.77833553500659" width="395.52"><g><svg viewBox="0 0 395.52 42.77833553500659" height="42.77833553500659" width="395.52"><g><svg viewBox="0 0 395.52 42.77833553500659" height="42.77833553500659" width="395.52"><g><svg viewBox="0 0 395.52 42.77833553500659" height="42.77833553500659" width="395.52"><g><svg viewBox="0 0 395.52 42.77833553500659" height="42.77833553500659" width="395.52"><g transform="matrix(1,0,0,1,0,0)"><svg width="395.52" viewBox="-8.3 -32 302.78000000000003 32.75" height="42.77833553500659" data-palette-color="#ef5350"><path d="M12.9-19.4L12.9-19.4-8.3-21.65 13.25-21.65Q13-20.65 12.9-19.4ZM-6.9-26.45L14.6-26.45 13.85-24.25-6.9-26.45ZM-7.85-16.85L12.9-16.85Q13-15.5 13.3-14.6L13.3-14.6-7.85-16.85ZM19.9-9.8L19.9-9.8-6.55-12.05 15-12.05Q16.65-10.45 19.9-9.8ZM-3.15-31.25L18.35-31.25Q17.2-30.5 16.15-29.2L16.15-29.2-3.15-31.25ZM10.55-5.05L-7.4-7.25 11.3-7.25 10.55-5.05ZM8.95-0.2L-8.25-2.4 9.7-2.4 8.95-0.2ZM10.65-0.55L13.45-8.8Q17.65-7.65 21.13-7.65 24.6-7.65 26.8-7.95L26.8-7.95 27.2-10.45 23.05-10.85Q18.3-11.3 16.32-13 14.35-14.7 14.35-17.8L14.35-17.8Q14.35-19.15 14.65-20.8L14.65-20.8Q15.8-27.2 18.85-29.6 21.9-32 28.23-32 34.55-32 39.4-30.75L39.4-30.75 36.8-22.75Q32.45-23.5 29.83-23.5 27.2-23.5 25.3-23.25L25.3-23.25 24.9-20.8 28.25-20.45Q33.35-19.9 35.5-18.03 37.65-16.15 37.65-13L37.65-13Q37.65-9.8 36.3-6.4L36.3-6.4Q35.55-4.65 34.73-3.48 33.9-2.3 32.63-1.48 31.35-0.65 30.3-0.23 29.25 0.2 27.6 0.4L27.6 0.4Q25.3 0.75 21.9 0.75L21.9 0.75Q15.7 0.75 10.65-0.55L10.65-0.55ZM67.1-7.55L67.1-7.55 60.9-7.55 59.6 0 50.1 0 55.6-31.25 70.6-31.25Q79.1-31.25 79.1-23.35L79.1-23.35Q79.1-19.6 78.05-16.57 77-13.55 75.72-11.78 74.45-10 72.22-8.78 70-7.55 67.1-7.55ZM62.3-15.55L64.5-15.55Q66.2-15.55 67.07-15.93 67.95-16.3 68.2-17.65L68.2-17.65Q68.85-21.35 68.85-21.7L68.85-21.7Q68.85-22.65 68.1-22.95 67.35-23.25 65.85-23.25L65.85-23.25 63.65-23.25 62.3-15.55ZM49-2.4L48.6-0.15 27.4-2.4 49-2.4ZM50.7-12.05L50.3-9.8 29.1-12.05 50.7-12.05ZM52.35-21.65L51.95-19.4 30.8-21.65 52.35-21.65ZM53.2-26.45L52.8-24.2 31.65-26.45 53.2-26.45ZM49.85-7.25L49.45-5 28.25-7.25 49.85-7.25ZM54.05-31.25L53.65-29 32.5-31.25 54.05-31.25ZM51.5-16.85L51.1-14.6 29.95-16.85 51.5-16.85ZM110.9-19.05L109.6-11.8 100.1-11.8 99.45-8 111.1-8 109.7 0 88.55 0 94.05-31.25 114.95-31.25 112.35-23.25 102.1-23.25 101.4-19.05 110.9-19.05ZM87.45-2.4L87.05-0.15 65.85-2.4 87.45-2.4ZM89.15-12.05L88.75-9.8 67.55-12.05 89.15-12.05ZM90-16.85L89.6-14.6 68.4-16.85 90-16.85ZM90.85-21.65L90.45-19.4 69.25-21.65 90.85-21.65ZM91.65-26.45L91.3-24.2 70.1-26.45 91.65-26.45ZM88.3-7.25L87.9-5 66.7-7.25 88.3-7.25ZM92.5-31.25L92.1-29 70.95-31.25 92.5-31.25ZM142.29 0L137.19-11.1Q136.99-11.45 136.99-12.08 136.99-12.7 137.09-13.5L137.09-13.5 136.69-13.5 134.34 0 124.84 0 130.34-31.25 139.29-31.25 144.39-20.15Q144.54-19.8 144.54-19.18 144.54-18.55 144.44-17.75L144.44-17.75 144.84-17.75 147.24-31.25 156.74-31.25 151.24 0 142.29 0ZM123.74-2.4L123.34-0.15 102.14-2.4 123.74-2.4ZM125.44-12.05L125.04-9.8 103.84-12.05 125.44-12.05ZM126.29-16.85L125.89-14.6 104.69-16.85 126.29-16.85ZM127.14-21.65L126.74-19.4 105.54-21.65 127.14-21.65ZM127.94-26.45L127.59-24.2 106.39-26.45 127.94-26.45ZM124.59-7.25L124.19-5 102.99-7.25 124.59-7.25ZM128.79-31.25L128.39-29 107.24-31.25 128.79-31.25ZM172.89-31.25L186.19-31.25Q192.64-31.25 195.37-28.98 198.09-26.7 198.09-21.6L198.09-21.6Q198.09-19 197.49-15.6L197.49-15.6Q195.99-7.2 192.37-3.6 188.74 0 180.69 0L180.69 0 167.39 0 172.89-31.25ZM184.89-23.25L184.89-23.25 180.94-23.25 178.29-8 182.24-8Q184.19-8 185.14-8.47 186.09-8.95 186.39-10.65L186.39-10.65 188.14-20.6Q188.19-20.9 188.19-21.4L188.19-21.4Q188.19-22.55 187.39-22.9 186.59-23.25 184.89-23.25ZM166.29-2.4L165.89-0.15 144.69-2.4 166.29-2.4ZM167.99-12.05L167.59-9.8 146.39-12.05 167.99-12.05ZM168.84-16.85L168.44-14.6 147.24-16.85 168.84-16.85ZM169.69-21.65L169.29-19.4 148.09-21.65 169.69-21.65ZM170.49-26.45L170.14-24.2 148.94-26.45 170.49-26.45ZM167.14-7.25L166.74-5 145.54-7.25 167.14-7.25ZM171.34-31.25L170.94-29 149.79-31.25 171.34-31.25ZM218.94 0L209.44 0 214.94-31.25 224.44-31.25 218.94 0ZM208.34-2.4L207.94-0.15 186.74-2.4 208.34-2.4ZM210.04-12.05L209.64-9.8 188.44-12.05 210.04-12.05ZM210.89-16.85L210.49-14.6 189.29-16.85 210.89-16.85ZM211.74-21.65L211.34-19.4 190.14-21.65 211.74-21.65ZM212.54-26.45L212.19-24.2 190.99-26.45 212.54-26.45ZM209.19-7.25L208.79-5 187.59-7.25 209.19-7.25ZM213.39-31.25L212.99-29 191.84-31.25 213.39-31.25ZM255.59-19.05L254.24-11.6 246.14-11.6 244.14 0 234.64 0 240.14-31.25 259.64-31.25 256.99-23.25 248.19-23.25 247.49-19.05 255.59-19.05ZM233.54-2.4L233.14-0.15 211.94-2.4 233.54-2.4ZM235.24-12.05L234.84-9.8 213.64-12.05 235.24-12.05ZM236.09-16.85L235.69-14.6 214.49-16.85 236.09-16.85ZM236.94-21.65L236.54-19.4 215.34-21.65 236.94-21.65ZM237.74-26.45L237.39-24.2 216.19-26.45 237.74-26.45ZM234.39-7.25L233.99-5 212.79-7.25 234.39-7.25ZM238.59-31.25L238.19-29 217.04-31.25 238.59-31.25ZM269.78-2.4L269.38-0.15 248.23-2.4 269.78-2.4ZM270.58-7.25L270.23-5 249.08-7.25 270.58-7.25ZM270.13-12.05L270.58-9.8 249.38-12.05 270.13-12.05ZM269.18-16.85L269.63-14.6 248.43-16.85 269.18-16.85ZM246.58-26.45L267.28-26.45 267.73-24.2 246.58-26.45ZM247.53-21.65L268.23-21.65 268.68-19.4 247.53-21.65ZM266.38-31.25L266.83-29 245.68-31.25 266.38-31.25ZM267.88-31.25L278.38-31.25 279.03-20.25 279.38-20.25 283.98-31.25 294.48-31.25 281.88-8.5 280.43 0 270.93 0 272.38-8.5 267.88-31.25Z" opacity="1" transform="matrix(1,0,0,1,0,0)" fill="#ef5350" class="undefined-text-0" data-fill-palette-color="primary" id="text-0"></path></svg></g></svg></g></svg></g></svg></g><g></g></svg></g></svg></g><g mask="url(#8b527930-7f5f-4818-8d2c-fdd448ffb2d6)"><g transform="matrix(2.4880771182141044, 0, 0, 2.4880771182141044, 74.97339421613395, 1)"><svg xmlns="http://www.w3.org/2000/svg" xmlns:xlink="http://www.w3.org/1999/xlink" version="1.1" x="0" y="0" viewBox="0.65 0.55 98.69999999999999 98.55" style="enable-background:new 0 0 100 100;" xml:space="preserve" height="98.55" width="98.69999999999999" class="icon-none" data-fill-palette-color="accent" id="none"><path d="M98.9 33l-32-32c-0.6-0.6-1.6-0.6-2.1 0L1.1 64.6c-0.6 0.6-0.6 1.5 0 2.1l32 32c0.3 0.3 0.7 0.4 1.1 0.4s0.8-0.2 1.1-0.4l63.6-63.6C99.5 34.5 99.5 33.6 98.9 33zM34.2 95.5L4.3 65.6 65.8 4.1 95.7 34 34.2 95.5zM42.3 42.1c-4.3 4.3-4.3 11.2 0 15.4 2.1 2.1 4.9 3.2 7.7 3.2s5.6-1.1 7.7-3.2c4.3-4.3 4.3-11.2 0-15.4C53.5 37.9 46.5 37.9 42.3 42.1zM55.6 55.4c-3.1 3.1-8.1 3.1-11.2 0-3.1-3.1-3.1-8.1 0-11.2 1.5-1.5 3.6-2.3 5.6-2.3s4.1 0.8 5.6 2.3C58.7 47.3 58.7 52.3 55.6 55.4zM61.6 14.5l1.1-1.1c-0.6-0.6-1.5-0.6-2.1 0l-47 47c-0.6 0.6-0.6 1.5 0 2.1 1.7 1.7 1.7 4.5 0 6.2-0.6 0.6-0.6 1.5 0 2.1L29 86.2c0.3 0.3 0.7 0.4 1.1 0.4 0.4 0 0.8-0.1 1.1-0.4 1.7-1.7 4.5-1.7 6.2 0 0.6 0.6 1.5 0.6 2.1 0l47-47c0.6-0.6 0.6-1.5 0-2.1-1.7-1.7-1.7-4.5 0-6.2 0.6-0.6 0.6-1.5 0-2.1L71 13.4c-0.6-0.6-1.5-0.6-2.1 0-1.7 1.7-4.5 1.7-6.2 0L61.6 14.5zM69.9 16.5L83.3 30c-1.6 2.5-1.6 5.7 0 8.1L38.3 83.2c-2.5-1.6-5.7-1.6-8.1 0L16.7 69.7c1.6-2.5 1.6-5.7 0-8.1l45.1-45.1C64.2 18.1 67.4 18.1 69.9 16.5z" fill="#fcd34d" data-fill-palette-color="accent"></path></svg></g></g></svg></g><defs><mask id="8b527930-7f5f-4818-8d2c-fdd448ffb2d6"><rect width="640" height="400" fill="white"></rect><rect width="435.072" height="62.976212214531024" fill="black" x="102.464" y="168.5118938927345" id="transform-me" transform="matrix(1,0,0,1,-122.24000000000001,-76.4)"></rect></mask></defs></svg><rect width="395.52" height="247.2" fill="none" stroke="none" visibility="hidden"></rect></g></svg></g></svg>