<svg xmlns="http://www.w3.org/2000/svg" version="1.1" xmlns:xlink="http://www.w3.org/1999/xlink" xmlns:svgjs="http://svgjs.dev/svgjs" width="1000" height="151" viewBox="0 0 1000 151"><g transform="matrix(1,0,0,1,-0.6060606060606233,0.3148106121189187)"><svg viewBox="0 0 396 60" data-background-color="#ffffff" preserveAspectRatio="xMidYMid meet" height="151" width="1000" xmlns="http://www.w3.org/2000/svg" xmlns:xlink="http://www.w3.org/1999/xlink"><g id="tight-bounds" transform="matrix(1,0,0,1,0.2400000000000091,-0.1250903094512239)"><svg viewBox="0 0 395.52 60.250180618902455" height="60.250180618902455" width="395.52"><g><svg viewBox="0 0 395.52 60.250180618902455" height="60.250180618902455" width="395.52"><g><svg viewBox="0 0 518.5597661261265 78.99302075949367" height="60.250180618902455" width="395.52"><g><rect width="5.154610805273924" height="57.444273417721504" x="409.01374556354426" y="10.774373670886085" fill="#ef5350" opacity="1" stroke-width="0" stroke="transparent" fill-opacity="1" class="rect-uu-0" data-fill-palette-color="primary" rx="1%" id="uu-0" data-palette-color="#ef5350"></rect></g><g><rect width="5.154610805273924" height="57.444273417721504" x="420.91522915059033" y="10.774373670886085" fill="#ef5350" opacity="1" stroke-width="0" stroke="transparent" fill-opacity="1" class="rect-uu-1" data-fill-palette-color="primary" rx="1%" id="uu-1" data-palette-color="#ef5350"></rect></g><g transform="matrix(1,0,0,1,0,10.917269873417727)"><svg viewBox="0 0 395.52 57.15848101265822" height="57.15848101265822" width="395.52"><g><svg viewBox="0 0 395.52 57.15848101265822" height="57.15848101265822" width="395.52"><g><svg viewBox="0 0 395.52 57.15848101265822" height="57.15848101265822" width="395.52"><g transform="matrix(1,0,0,1,0,0)"><svg width="395.52" viewBox="-0.1 -33.45 231.43 33.45" height="57.15848101265822" data-palette-color="#ef5350"><path d="M10.69-33.45L18.21-33.45Q20.68-33.45 22.68-32.71 24.68-31.98 26.09-30.71 27.49-29.44 28.25-27.75 29-26.05 29-24.15L29-24.15 29-9.3Q29-7.4 28.25-5.7 27.49-4 26.09-2.73 24.68-1.46 22.68-0.73 20.68 0 18.21 0L18.21 0 10.69 0Q8.23 0 6.23-0.73 4.22-1.46 2.82-2.73 1.42-4 0.66-5.7-0.1-7.4-0.1-9.3L-0.1-9.3-0.1-24.15Q-0.1-26.05 0.66-27.75 1.42-29.44 2.82-30.71 4.22-31.98 6.23-32.71 8.23-33.45 10.69-33.45L10.69-33.45ZM22.8-14.99L22.8-18.7 22.46-20.8 20.9-22.34 18.36-22.61 12.89-22.61 11.4-22.9Q11.28-23.32 11.23-23.65 11.18-23.97 11.06-24.34L11.06-24.34 11.06-26.9 11.4-28.34 13.01-28.66 19.21-28.66 21.51-28.2 22.09-30.86 19.26-31.25 12.84-31.25 10.4-30.91 8.81-29.35 8.5-27.29 8.5-23.95 8.81-21.9 10.4-20.36 12.84-20.04 18.36-20.04 19.85-19.8Q19.92-19.43 20.02-19.12 20.12-18.8 20.19-18.46L20.19-18.46 20.19-15.26Q20.14-14.94 20.03-14.58 19.92-14.21 19.85-13.89L19.85-13.89 18.26-13.65 12.21-13.65 9.81-14.04 9.2-11.4 12.06-11.06 18.41-11.06 20.9-11.35 22.46-12.89 22.8-14.99ZM39.6-33.45L47.12-33.45Q49.58-33.45 51.58-32.71 53.59-31.98 54.99-30.71 56.39-29.44 57.15-27.75 57.91-26.05 57.91-24.15L57.91-24.15 57.91-9.3Q57.91-7.4 57.15-5.7 56.39-4 54.99-2.73 53.59-1.46 51.58-0.73 49.58 0 47.12 0L47.12 0 39.6 0Q37.13 0 35.13-0.73 33.13-1.46 31.72-2.73 30.32-4 29.56-5.7 28.81-7.4 28.81-9.3L28.81-9.3 28.81-24.15Q28.81-26.05 29.56-27.75 30.32-29.44 31.72-30.71 33.13-31.98 35.13-32.71 37.13-33.45 39.6-33.45L39.6-33.45ZM51.61-22.19L51.61-27.29 51.27-29.35 49.7-30.91 47.21-31.25 38.11-31.25 38.11-11.06 40.65-11.06 40.65-18.26 47.21-18.26 49.7-18.55 51.27-20.09 51.61-22.19ZM49-22.46L48.65-21.09 47.07-20.85 40.65-20.85 40.65-28.66 47.07-28.66 48.75-28.39 49-26.95 49-22.46ZM79.9-11.06L79.9-13.65 70.16-13.65 70.16-19.85 78.32-19.85 78.32-22.41 70.16-22.41 70.16-28.66 79.56-28.66 79.56-31.25 67.62-31.25 67.62-11.06 79.9-11.06ZM68.5-33.45L76.02-33.45Q78.49-33.45 80.49-32.71 82.49-31.98 83.89-30.71 85.3-29.44 86.05-27.75 86.81-26.05 86.81-24.15L86.81-24.15 86.81-9.3Q86.81-7.4 86.05-5.7 85.3-4 83.89-2.73 82.49-1.46 80.49-0.73 78.49 0 76.02 0L76.02 0 68.5 0Q66.04 0 64.03-0.73 62.03-1.46 60.63-2.73 59.22-4 58.47-5.7 57.71-7.4 57.71-9.3L57.71-9.3 57.71-24.15Q57.71-26.05 58.47-27.75 59.22-29.44 60.63-30.71 62.03-31.98 64.03-32.71 66.04-33.45 68.5-33.45L68.5-33.45ZM109.47-11.06L109.47-27.34 109.12-29.39 107.56-30.96 105.07-31.25 98.97-31.25 94.57-30.64 94.57-11.06 97.16-11.06 97.16-28.39 99.06-28.71 104.92-28.71 106.61-28.44 106.85-27 106.85-11.06 109.47-11.06ZM97.4-33.45L104.92-33.45Q107.39-33.45 109.39-32.71 111.39-31.98 112.8-30.71 114.2-29.44 114.96-27.75 115.72-26.05 115.72-24.15L115.72-24.15 115.72-9.3Q115.72-7.4 114.96-5.7 114.2-4 112.8-2.73 111.39-1.46 109.39-0.73 107.39 0 104.92 0L104.92 0 97.4 0Q94.94 0 92.94-0.73 90.93-1.46 89.53-2.73 88.13-4 87.37-5.7 86.61-7.4 86.61-9.3L86.61-9.3 86.61-24.15Q86.61-26.05 87.37-27.75 88.13-29.44 89.53-30.71 90.93-31.98 92.94-32.71 94.94-33.45 97.4-33.45L97.4-33.45ZM126.31-33.45L133.83-33.45Q136.29-33.45 138.3-32.71 140.3-31.98 141.7-30.71 143.11-29.44 143.86-27.75 144.62-26.05 144.62-24.15L144.62-24.15 144.62-9.3Q144.62-7.4 143.86-5.7 143.11-4 141.7-2.73 140.3-1.46 138.3-0.73 136.29 0 133.83 0L133.83 0 126.31 0Q123.84 0 121.84-0.73 119.84-1.46 118.43-2.73 117.03-4 116.27-5.7 115.52-7.4 115.52-9.3L115.52-9.3 115.52-24.15Q115.52-26.05 116.27-27.75 117.03-29.44 118.43-30.71 119.84-31.98 121.84-32.71 123.84-33.45 126.31-33.45L126.31-33.45ZM138.91-14.99L138.91-27.29 138.56-29.35 137.03-30.91 134.51-31.25 123.62-31.25 123.62-11.06 134.51-11.06 137.03-11.35 138.56-12.89 138.91-14.99ZM136.32-15.26L135.98-13.89 134.37-13.65 126.16-13.65 126.16-28.66 134.37-28.66 136.07-28.39 136.32-26.95 136.32-15.26ZM159.02-13.65L153.26-13.65 153.26-11.06 167.37-11.06 167.37-13.65 161.63-13.65 161.63-28.66 167.37-28.66 167.37-31.25 153.26-31.25 153.26-28.66 159.02-28.66 159.02-13.65ZM155.21-33.45L162.73-33.45Q165.2-33.45 167.2-32.71 169.2-31.98 170.61-30.71 172.01-29.44 172.77-27.75 173.52-26.05 173.52-24.15L173.52-24.15 173.52-9.3Q173.52-7.4 172.77-5.7 172.01-4 170.61-2.73 169.2-1.46 167.2-0.73 165.2 0 162.73 0L162.73 0 155.21 0Q152.75 0 150.74-0.73 148.74-1.46 147.34-2.73 145.93-4 145.18-5.7 144.42-7.4 144.42-9.3L144.42-9.3 144.42-24.15Q144.42-26.05 145.18-27.75 145.93-29.44 147.34-30.71 148.74-31.98 150.74-32.71 152.75-33.45 155.21-33.45L155.21-33.45ZM193.88-20.29L193.88-22.85 185.73-22.85 185.73-28.66 195.27-28.66 195.27-31.25 183.11-31.25 183.11-11.06 185.73-11.06 185.73-20.29 193.88-20.29ZM184.12-33.45L191.64-33.45Q194.1-33.45 196.1-32.71 198.11-31.98 199.51-30.71 200.91-29.44 201.67-27.75 202.43-26.05 202.43-24.15L202.43-24.15 202.43-9.3Q202.43-7.4 201.67-5.7 200.91-4 199.51-2.73 198.11-1.46 196.1-0.73 194.1 0 191.64 0L191.64 0 184.12 0Q181.65 0 179.65-0.73 177.65-1.46 176.24-2.73 174.84-4 174.08-5.7 173.32-7.4 173.32-9.3L173.32-9.3 173.32-24.15Q173.32-26.05 174.08-27.75 174.84-29.44 176.24-30.71 177.65-31.98 179.65-32.71 181.65-33.45 184.12-33.45L184.12-33.45ZM217.88-20.29L213.53-31.25 210.48-31.25 216.58-16.75 216.58-11.06 219.17-11.06 219.17-16.7 225.37-31.25 222.32-31.25 217.88-20.29ZM213.02-33.45L220.54-33.45Q223-33.45 225.01-32.71 227.01-31.98 228.41-30.71 229.82-29.44 230.57-27.75 231.33-26.05 231.33-24.15L231.33-24.15 231.33-9.3Q231.33-7.4 230.57-5.7 229.82-4 228.41-2.73 227.01-1.46 225.01-0.73 223 0 220.54 0L220.54 0 213.02 0Q210.55 0 208.55-0.73 206.55-1.46 205.15-2.73 203.74-4 202.99-5.7 202.23-7.4 202.23-9.3L202.23-9.3 202.23-24.15Q202.23-26.05 202.99-27.75 203.74-29.44 205.15-30.71 206.55-31.98 208.55-32.71 210.55-33.45 213.02-33.45L213.02-33.45Z" opacity="1" transform="matrix(1,0,0,1,0,0)" fill="#ef5350" class="undefined-text-0" data-fill-palette-color="primary" id="text-0"></path></svg></g></svg></g></svg></g></svg></g><g transform="matrix(1,0,0,1,439.56358551940855,0)"><svg viewBox="0 0 78.99618060671794 78.99302075949367" height="78.99302075949367" width="78.99618060671794"><g><svg xmlns="http://www.w3.org/2000/svg" xmlns:xlink="http://www.w3.org/1999/xlink" version="1.1" x="0" y="0" viewBox="0 0.002 100 99.996" style="enable-background:new 0 0 100 100;" xml:space="preserve" height="78.99302075949367" width="78.99618060671794" class="icon-icon-0" data-fill-palette-color="accent" id="icon-0"><g fill="#fcd34d" data-fill-palette-color="accent"><path d="M50 0.002C22.388 0.002 0 22.383 0 50c0 27.611 22.388 49.998 50 49.998 27.617 0 50-22.387 50-49.998C100 22.383 77.617 0.002 50 0.002zM79.167 74.081l-24.206 8.392c-1.348 0.457-3.066 1.193-4.961 1.186-1.907 0.008-3.47-0.678-4.968-1.186l-24.193-8.384V25.825h58.328V74.081z" fill="#fcd34d" data-fill-palette-color="accent"></path><rect x="42.852" y="35.941" width="14.44" height="3.249" fill="#fcd34d" data-fill-palette-color="accent"></rect><rect x="62.097" y="35.941" width="14.439" height="3.249" fill="#fcd34d" data-fill-palette-color="accent"></rect><rect x="23.47" y="35.941" width="14.44" height="3.249" fill="#fcd34d" data-fill-palette-color="accent"></rect></g></svg></g></svg></g></svg></g></svg></g><defs></defs></svg><rect width="395.52" height="60.250180618902455" fill="none" stroke="none" visibility="hidden"></rect></g></svg></g></svg>