<?xml version="1.0" encoding="UTF-8"?><svg id="Layer_1" xmlns="http://www.w3.org/2000/svg" viewBox="0 0 800 800"><defs><style>.cls-1,.cls-2{stroke-width:3.02px;}.cls-1,.cls-2,.cls-3,.cls-4,.cls-5,.cls-6,.cls-7,.cls-8,.cls-9,.cls-10,.cls-11,.cls-12{stroke:#000;}.cls-1,.cls-2,.cls-3,.cls-4,.cls-10,.cls-11{stroke-miterlimit:24;}.cls-1,.cls-3,.cls-4,.cls-5,.cls-12{fill:#fff;}.cls-3,.cls-4,.cls-6,.cls-10,.cls-12{stroke-width:3.07px;}.cls-13{fill:#fbb040;}.cls-4,.cls-8,.cls-9,.cls-11{stroke-linecap:round;}.cls-5,.cls-6,.cls-7,.cls-8,.cls-9,.cls-12{stroke-miterlimit:10;}.cls-5,.cls-7{stroke-width:2.78px;}.cls-8,.cls-9,.cls-11{fill:none;}.cls-8,.cls-11{stroke-width:2.01px;}.cls-9{stroke-width:2.05px;}</style></defs><path id="background_shape" class="cls-13" d="M173.43,431.41c-19.1-93.8,99.92-195.25,194.24-226.96,94.31-31.71,264.51,109.67,260.89,205.49-5.34,141.58-200.31,198.09-279.73,189.28-99.62-11.06-167.04-126.76-175.4-167.8Z"/><g><ellipse class="cls-7" cx="89.43" cy="305.9" rx="8.12" ry="7.04" transform="translate(-226.91 267.1) rotate(-66.71)"/><polygon class="cls-7" points="85.85 273.43 82.81 275.03 93.47 304.87 96.51 303.27 85.85 273.43"/></g><g><ellipse class="cls-7" cx="331.26" cy="76.68" rx="7.04" ry="8.12" transform="translate(11.62 192.61) rotate(-32.97)"/><polygon class="cls-7" points="333.19 109.29 329.92 108.23 335.42 77.02 338.69 78.09 333.19 109.29"/></g><g><ellipse class="cls-7" cx="626.31" cy="292.01" rx="7.04" ry="8.12" transform="translate(-58.05 387.85) rotate(-32.97)"/><polygon class="cls-7" points="628.24 324.62 624.98 323.55 630.47 292.34 633.74 293.41 628.24 324.62"/></g><g><ellipse class="cls-7" cx="585.32" cy="154.98" rx="8.12" ry="7.04" transform="translate(73.02 477.73) rotate(-47.04)"/><polygon class="cls-7" points="592.88 123.19 589.48 123.68 589.48 155.37 592.88 154.88 592.88 123.19"/><polygon class="cls-7" points="623.38 121.36 623.38 117.96 589.48 122.8 589.48 126.21 623.38 121.36"/><ellipse class="cls-7" cx="615.82" cy="150.62" rx="8.12" ry="7.04" transform="translate(85.92 498.67) rotate(-47.04)"/><polygon class="cls-7" points="623.38 118.84 619.98 119.33 619.98 151.02 623.38 150.53 623.38 118.84"/></g><g><ellipse class="cls-7" cx="143.15" cy="167.73" rx="8.12" ry="7.04" transform="translate(-51.09 272.12) rotate(-77.77)"/><polygon class="cls-7" points="133.4 136.55 130.73 138.7 146.92 165.94 149.6 163.79 133.4 136.55"/><polygon class="cls-7" points="158.69 119.39 156.95 116.47 130.28 137.95 132.02 140.88 158.69 119.39"/><ellipse class="cls-7" cx="167.14" cy="148.4" rx="8.12" ry="7.04" transform="translate(-13.29 280.33) rotate(-77.77)"/><polygon class="cls-7" points="157.39 117.22 154.72 119.37 170.91 146.61 173.59 144.46 157.39 117.22"/></g><g><ellipse class="cls-7" cx="415.07" cy="167.32" rx="6.45" ry="5.59" transform="translate(9.76 357.06) rotate(-47.04)"/><path class="cls-7" d="M434.06,152.97c-2.67-3.66-6.44-9.41-11.79-9.61-.5-.02-.92-.1-1.26-.24v24.19h-3.97v-31.84h3.94s.02,.06,.02,.06c0,0,4.45,5.02,7.8,7.03,3.47,2.08,5.75,5.75,5.25,10.4Z"/></g><g><g><path id="pants" class="cls-6" d="M555.5,481.01c18.31,3.3,84.67-11.02,102.58-16.24,5.47,14.65,11.4,31.88,14.86,53.72-25.92,5.82-126.1,40.59-147,33.02-30.13-10.91-46.28-71.65-48.53-86.9-8.87,14.57-17.48,35.4-25.14,69.06-4.35,19.13-7.2,74.66-8.43,107.46,0,.24-.23,.42-.47,.38-18.71-2.67-28.78,3.01-52.37,.04-5.54-26.77-12.53-102.83-4.84-123.93,9.48-26,25.68-58.46,46.43-97.12,36.9-2.61,48.91,1.71,85.55,1,10.93,30.15,18.48,56.11,37.37,59.51Z"/><path id="boot_R" class="cls-3" d="M672.5,518.58c-.18-.54-15.1-53.58-14.75-53.69,6.92-2.16,44.76-12.55,47.4-6.55,2.9,6.59,7.56,37.81,10.51,51.81,.89,4.16,4.69,15.5-1.38,14.79-6.01-.72-7.67-4.47-17.97-9.13-7.4-3.35-16.06,1.34-23.81,2.77Z"/><path id="boot_L" class="cls-3" d="M391.13,641.77c10.03-1.47,40.67,.19,52.48,1.08-1.49,11.66-3.35,43.37-9.82,44.36-7.12,1.08-39.94-1.23-54.22-2.05-4.25-.24-13.47-1.75-11.18-7.43,2.27-5.61,13.81-4.53,19.7-11.93,3.16-3.96,3.05-13.03,3.04-24.02Z"/><path id="arm_L" class="cls-3" d="M415.87,400.93c-.18,.17-.42,.25-.67,.23-15.81-1.07-39.03-.06-58.35-7.84-19.39-7.81-27.4-39.65-41.61-46.89-8.44-4.3-19.08-10.85-16.73-13.41,1.88-2.05,7.85,1.77,7.53,.03-.52-2.81-10.16-9.35-9.19-11.69,1.54-3.7,12.08,5.32,13.78,4.78,.68-.22-10.31-12.54-7.81-14.28,4.67-3.24,13.67,12.38,13.65,10.01-.03-3.41-3.95-12.25,.18-13.25,3.15-.76,5.49,13.04,8.64,13.64,2.84,.54,2.5-9.21,6.44-8.5,6.42,1.15,.43,17.88,4.28,22.28,7.74,8.83,19.45,24.28,29.3,29.7,9.34,5.14,32.23,1.9,48.98,3.84,.38,.04,.69,.33,.77,.7,1.87,8.27,7.7,24.13,.79,30.65Z"/><path id="arm_R" class="cls-4" d="M554.27,381.22c10.72,3.9,32.7,10.79,50.09,11.85,13.34,.82,33.33,2.88,36.37,3.31,14.28,2.06,20.55-11.44,23.82-8.22,1.76,1.73-3.53,7.27-3.04,9.32,.41,1.73,16-7.65,17.77-4.23,1.4,2.7-12.94,8.79-12.7,9.47,.33,.65,17.55-3.33,18.2-.1,.75,3.77-16.31,4.91-16.34,6.11-.04,1.56,14.32,.41,14.53,3.53,.32,4.65-18.68,1.21-19.09,2.57-.94,3.11,9.41,4.23,9.33,8.21-.05,2.64-12.26-1-19.23-3.11-8.98-2.72-22.88,.53-32.75,1.68-25.06,2.93-47.1-4.33-71.24-10.64-6.95-7.15,1.85-21.76,4.28-29.74Z"/><path id="hair" class="cls-10" d="M467.48,298.79c8.75-4.04,23.28-1.03,30.2,9.1,4.59,6.71,.97,18.24,2.12,21.37,1.55,4.18,7.16,11.01,11.09,16.2-11.85,8.9-45.11,6.37-62.22-1.38,2.74-3.75,5.58-9.1,5.93-14.71,.46-7.51-4.61-13.68-1.67-20.61,1.58-3.73,5.43-10.53,14.56-9.97Z"/><path id="head" class="cls-12" d="M490.71,350.05c.33,9.06,6.61,14.23,7.35,16.6-2.63,9.47-22.76,14.45-25.62-1.89,2.22-5.3,5.96-11.86,2.64-17.56-3.3-5.68-5.18-2.45-10.24-6.64-5.8-4.8-6.89-11.42-6-20.43,1.27-12.86,.03-15,7.05-17.77,11.27,9.75,18.5,6.94,18.89,10.63,.21,1.95,.54,6.84,1.02,6.22,3.29-4.19,6.88-.13,7.06,2.51,.25,3.48-1.23,6.01-4.87,6-.57,0,2.1,5.5,2.71,22.35Z"/><path id="shirt" class="cls-3" d="M474.7,360.73c1.3,7.1,17.28,9.76,21.68,2.51,26.34-8.69,36.08,10.49,58.51,18.19,.56,7.09-5.1,19.88-5.6,29.49-14.25-3.2-22.24-6.04-30.79-3.29-.55,5.1-1.17,7.72-.7,13.4-26.54-1.04-58.64,1.34-85.95,.79,2.88-6.23,4.42-11.54,5.2-17.6-5.68-1.18-14.71-3.13-21.28-3.01-.51,0-.1-.37-.1-.87,.13-13.13-6.47-20.16-3.3-30.9,19.21,2.12,37.64-22.01,62.33-8.69Z"/><path id="ear" class="cls-9" d="M488.55,323.68s1.25-1.15,.05-1.79"/><path id="brow" class="cls-9" d="M475.07,315.23c-.13-.11-1.55-1.56-3.61-.93"/><path id="brow-2" class="cls-9" d="M462.87,314.43c.72-.45,2.36-1.45,3.94-.44"/><path id="nose" class="cls-9" d="M468.75,324.65c-1.55,.61-2.89,.25-3.15-.47-.63-1.77,2.83-1.24,2.89-6.01"/><path id="mouth" class="cls-9" d="M473.79,330.23c-1.94-.09-3.87-.18-5.81-.27-.42,2.36,1.24,4.24,2.75,4.3,1.49,.06,3.28-1.67,3.07-4.03Z"/><path id="eye" d="M465.09,316.05c.66,.04,1.17,.62,1.13,1.31s-.62,1.2-1.28,1.16-1.2-.62-1.16-1.31,.62-1.2,1.31-1.16Zm0,0c.66,.04,1.17,.62,1.13,1.31s-.62,1.2-1.28,1.16-1.2-.62-1.16-1.31,.62-1.2,1.31-1.16Z"/><path id="eye-2" d="M472.69,316.64c.66,.04,1.17,.62,1.13,1.31s-.62,1.2-1.28,1.16-1.2-.62-1.16-1.31,.62-1.2,1.31-1.16Zm0,0c.66,.04,1.17,.62,1.13,1.31s-.62,1.2-1.28,1.16-1.2-.62-1.16-1.31,.62-1.2,1.31-1.16Z"/></g><g><g><path class="cls-5" d="M231.77,216.54c-.52,1.07-7.39-11.67-9.33-9.67-2.08,2.14,4.14,20.72,13.06,27.48,3.23,2.45,10.45,13.1,18.99,26.64,4.22,7.27,11.28,15.78,8.49,24.2-6.83,17.97-26.08,25.83-34.36,43.31-9.05,15.24,6.07,31.36,21.84,31.36,13.93,1.76,19.68-11.23,25.4-21.49,6.45-10.36,14.93-24.08,18.13-37.6,9.31-31.67-15.69-48.82-30.1-71.71-3.05-6.36,4.04-20.45,.39-26.06-2.31-3.55-3.78,4.78-8.82,7.33-3.59,1.82-1.68-19.82-4.96-19.14-5.54,1.17-3.42,20.27-4.72,20.4-1.5,.13-4.37-22.87-8.28-21.91-4.31,1.05,2.3,21.91,.7,23.64-1.29,1.39-7.01-18.32-9.83-16.69-3.95,2.29,3.84,18.94,3.38,19.91Z"/><path class="cls-5" d="M276.3,337.94c-10.32-10.5-22.17-19.36-35.39-26.05"/></g><g><g><path class="cls-5" d="M348.06,648.89c5.97,9.1,16.46,11.23,18.38,17.91,1.93,6.69-7.4,6.98-12.36,6.69-16.64-.99-54.95-2.88-63.06-5-3.7-.97-5.17-12.4-5.95-23.45-.21-2.75-.36-5.5-.48-8.09-.15-2.56-.24-4.99-.33-7.1-.21-4.18-.27-7.21-.32-7.87-.01-.22,3.84-.35,9.63-.44,5.79-.09,13.51-.14,21.23-.18,7.73-.02,15.45-.04,21.25-.05,2.9,.02,5.32,.04,7.01,.05,1.69,.03,2.66,.07,2.66,.13,.03,.59-.06,6.27,.1,12.36,.1,3.05,.23,6.18,.59,8.89,.33,2.69,.85,4.92,1.66,6.15Z"/><path class="cls-7" d="M283.92,622.27c6.99-76.66-32.6-117.52-75.64-175.18-2.22-7.11,4.29-31.15,10.01-36.41,0,0,46-8.42,46-8.42,65.89,64.55,91.49,122.02,81.7,219.29-20.7,.45-41.39,.69-62.07,.71Z"/></g><g><path class="cls-5" d="M183.73,677.71c1.5,4.78,4.69,8.33,7.5,11.38,2.93,3.02,5.52,5.51,5.89,8.03,.05,.32,.06,.6,.03,.86-.01,.26-.04,.48-.11,.68-.14,.4-.41,.7-.79,.93-.75,.45-1.92,.59-3.28,.55-2.72-.08-6.2-.88-8.6-1.55-4.02-1.12-9.35-2.56-15.23-4.09-5.88-1.51-12.29-3.15-18.45-4.73-12.29-3.19-23.51-6.33-27.3-8.13-.84-.45-1.52-1.32-1.74-3.21-.26-1.8-.24-4.21,0-7.03,.06-.71,.13-1.44,.22-2.19,.11-.73,.24-1.47,.38-2.24,.28-1.53,.61-3.14,.98-4.8,.7-3.39,1.76-6.65,2.82-10.05,2.18-6.69,4.84-13.02,7.01-17.76,1.08-2.44,2.04-4.38,2.78-5.88,.74-1.49,1.25-2.51,1.43-2.88,.12-.25,3.64,1.36,8.81,3.96,5.18,2.59,12.02,6.17,18.83,9.83,6.81,3.65,13.59,7.36,18.65,10.19,2.53,1.41,4.63,2.6,6.1,3.45,1.46,.85,2.29,1.36,2.26,1.41-.26,.51-2.85,5.07-5.08,10.13-.53,1.26-1.06,2.56-1.53,3.83-.24,.64-.46,1.27-.67,1.88-.19,.62-.34,1.22-.49,1.8-.57,2.33-.8,4.35-.44,5.64Z"/><path class="cls-7" d="M137.11,625.88c21.72-35.97,44.56-63.57,40.46-107.09-1-52.65-19.84-83.12-12.84-95.96,4.44-8.13,20.32-2.97,54.27-11.74,35.45,103.07,40.01,153.01-26.86,243.52-18.27-9.74-36.59-19.37-55.04-28.73Z"/></g></g><g><path class="cls-1" d="M167.57,279.04c6.34-12.19,12.95-13.71,26.17-23.07,10.12,.36,9.78,6.97,17.09,22.6,5.13,10.97,6.69,19.79,1.5,28.43-4.53,7.51-8.37,4.29-10.02,12.93-1.66,8.64,7.04,13.97,12.22,19.66-.5,13.87-28,19.48-35.86,11.84-.13-3.28,5.84-8.91,5.17-20.92-.48-8.38-1.81-21.61-4.01-29.7-8.6,4.73-16.59-16.81-12.26-21.77Z"/><path class="cls-11" d="M175.54,290.78s-1.04-.69-.4-1.8"/><path class="cls-8" d="M189.68,279.8c.37-1.1,2.59-3.13,4.46-2.93"/><path class="cls-8" d="M204.06,273.31c-1.11-.43-4.07,.05-5.11,1.65"/><path class="cls-11" d="M199.76,280.58c2.35,6.38,7.49,4.54,6.31,7.18-.41,.94-1.89,1.68-3.05,1.46"/><path d="M204.31,279.65c-.84,.35-1.8-.02-2.17-.88-.35-.83,.07-1.78,.91-2.14,.84-.35,1.8,.02,2.15,.85,.35,.83-.06,1.81-.89,2.17Z"/><path d="M195.11,283.58c-.84,.35-1.8-.02-2.17-.88-.35-.83,.07-1.78,.91-2.14,.84-.35,1.8,.02,2.15,.85,.35,.83-.06,1.81-.89,2.17Z"/><path class="cls-11" d="M207.62,297.08s-3.8,3.4-8.46,2.54"/><path class="cls-2" d="M180.49,284.81c-.37,.14-1.4,.62-2.31,1.15-.79-1.22-1.86-1.68-1.91-1.71-1.2-.6-3.23-1.11-4.89,.36-1.97,1.74-1.65,5.06-.81,6.92,1.08,2.4,5.28,7.16,9.94,2.25,1.74,1.93,1.85,8.26,.27,10.34-.18,.05-1.82,1-6.12-3.4-1.36,1.02-2.9,3.11-5.07,1.56-2.53-1.8-2.28-5.29-2.01-6.66-1.64,1.1-3.72,.82-4.89-1.07-1.33-2.15,.15-5.17,2.52-6.47-2.11,.16-4.99,.86-6-1.64-1.37-3.33,1.39-5.81,2.95-7.19-1.09-.05-7.29,.56-7.56-2.42-.43-4.9,3.92-5.33,6.29-5.83-2.59-1.31-3.55-3.3-2.84-5.75,1.1-3.74,6.22-4.83,8.34-3.79-1.57-1.85-1.47-6.24,.05-7.72,1.62-1.57,7.63-1.22,8.8,.22-.33-2.14-1.15-5.62,1.89-7.38,3.27-1.89,7.59,.85,8.89,2.66-.25-1.68,3.21-7.65,6.4-6.92,2.72,.64,3.95,4.38,3.05,6.79,2.08-1.61,5.49-2.93,7.57-.98,2.33,2.2,.99,3.8,.25,5.88,.94-.67,5.58-.59,6.88,2.09,1.04,2.12-2.67,4.23-3.69,4.47,1.45,.93,1.28,3.14-.6,4.6-1.91,1.45-3.42-.2-5.16-1.32,.44,1.35,.38,3.3-.82,4.14-2.51,1.7-6.01-.98-7.2-1.98,.17,1.64-.2,3.97-1.63,5.27-3.16,2.85-5.47,.97-7.52-.35,1.07,1.92-.43,4.77-2.29,5.47-2.38,.93-4.82,.27-6.28,.72-1.09,1.6,2.68,4.66,4.12,5.92,.25,.22,.53,.32,1.37,1.78Z"/></g><path class="cls-5" d="M179.8,347.41c3.37,3.93,4.91,8.52,18.94,3.78,7.03-2.36,16.89-9.65,13.72-14.46-1.7-2.56,8.33-10.65,17.82-11.89,9.48-1.25,37.29,24.7,32.92,30.58-6.92,6.4,2.03,41.91,1.96,50.4-18.84,5.37-88.82,20.65-103.35,23.04-2.49-11.47-7.57-31.41-10.77-43.92-7.82-22.05,5.84-30.63,28.76-37.53Z"/><g><path class="cls-5" d="M147.7,525.11c-.55,.21,2.55,2.4,5.59,4.61,3.02,2.25,5.97,4.56,4.97,5.55-1.07,1.03-6.58-.14-12.85-3.12-3.13-1.49-6.44-3.45-9.41-5.77-2.97-2.31-5.59-5.02-7.32-7.8-.62-1.03-1.79-2.42-3.37-4.21-1.55-1.85-3.58-3.98-5.82-6.68-4.48-5.31-10.13-12.54-14.74-22.25-.53-1.24-1.06-2.5-1.6-3.76-.27-.64-.54-1.28-.81-1.93-.22-.67-.45-1.34-.68-2.01-.44-1.36-.89-2.74-1.34-4.12-.38-1.42-.72-2.87-1.07-4.33-1.28-5.86-1.89-12.02-1.83-18.14,.05-6.12,.77-12.2,1.97-18.02,1.23-5.8,2.94-11.34,4.94-16.5,2.36-6.06,4.99-11.43,7.66-16.18,2.74-4.76,5.33-8.72,7.75-12.12,4.85-6.77,8.78-11.13,11.19-13.28,.9-.81,1.82-1.63,2.73-2.41,.14-.14,.29-.26,.46-.4,5.85-5.14,11.93-10,18.03-12.62,6.11-2.64,12.21-3.1,18.27,.43,5.02,2.93,9.11,7.7,11.39,13.05,2.28,5.36,2.73,11.3,.59,16.66-3.69,9.26-13.01,12.4-20.47,16.67-.05,.03-.11,.05-.15,.07-.7,.39-1.35,.8-1.99,1.21-3.37,2.15-7.27,4.91-11.47,8.78-2.12,1.93-4.25,4.16-6.38,6.69-2.15,2.54-4.21,5.52-6.18,8.88-3.2,5.47-5.81,11.65-7.32,17.9-.76,3.13-1.17,6.27-1.39,9.33-.02,1.52-.12,3.04,0,4.51,.02,1.48,.23,2.91,.4,4.32,.83,5.65,2.76,10.68,4.92,14.6,.27,.49,.53,.97,.78,1.43,.26,.46,.58,.89,.85,1.31,.57,.84,1.1,1.61,1.61,2.31,1.11,1.37,2.13,2.44,2.97,3.19,1.29,1.05,3.25,1.58,5.4,1.79,2.25,.18,4.72,.06,7.12-.13,2.48-.2,4.84-.45,6.88-.44,2.11,0,3.82,.29,4.99,1.18,1.53,1.13,.3,2.01-1.71,3.18-2.01,1.18-4.84,2.6-6.34,4.98-1.05,1.69,3.77,2.46,8.77,2.93,2.49,.25,5.07,.45,6.91,.79,1.9,.34,3.11,.83,2.93,1.66-.3,1.38-1.7,2.29-3.67,2.88-1.97,.59-4.5,.85-6.97,.95-1.24,.05-2.48,.06-3.65,.06-1.15-.02-2.22-.04-3.14-.05-1.85-.03-3.1,0-3.14,.33-.05,.37,1.38,.93,3.51,1.59,2.15,.65,5,1.38,7.87,2.14,5.69,1.52,11.45,3.24,11.04,5.24-.45,2.19-6.13,1.58-11.89,.53-5.74-1.04-11.58-2.66-12.48-1.91-.37,.31,.63,1,2.34,1.87,.85,.44,1.87,.92,2.96,1.43,1.11,.5,2.3,1.03,3.5,1.56,4.77,2.13,9.58,4.36,8.81,5.8-1.09,2.01-6.07,.97-10.92-.62-4.84-1.59-9.51-3.82-10.02-3.62Z"/><path class="cls-5" d="M159.38,408.13c-3.9-3.87-7.84-7.65-11.52-11.67-3.67-4.02-7.09-8.28-9.82-13.22-1.85-3.35-3.57-6.74-5.28-10.11"/></g></g></g></svg>