<?xml version="1.0" encoding="UTF-8" standalone="no"?><!DOCTYPE svg PUBLIC "-//W3C//DTD SVG 1.1//EN" "http://www.w3.org/Graphics/SVG/1.1/DTD/svg11.dtd"><svg width="100%" height="100%" viewBox="0 0 1667 1667" version="1.1" xmlns="http://www.w3.org/2000/svg" xmlns:xlink="http://www.w3.org/1999/xlink" xml:space="preserve" xmlns:serif="http://www.serif.com/" style="fill-rule:evenodd;clip-rule:evenodd;stroke-linecap:round;stroke-linejoin:round;stroke-miterlimit:1.5;"><rect id="Window" x="0" y="0" width="1666.67" height="1666.67" style="fill:none;"/><g id="Window1" serif:id="Window"><path d="M1196.93,1293.09c-226.717,187.216 -677.254,33.013 -889.302,-223.775c-212.048,-256.788 -105.306,-518.918 121.41,-706.134c226.717,-187.216 734.053,18.709 946.101,275.497c212.048,256.788 48.507,467.197 -178.209,654.412Z" style="fill:#4D8AE5;"/><g><g><g><g><g><path d="M1407.57,259.146c0,-3.475 -0.008,-7.142 -0.866,-10.527c-0.255,-1.005 -0.754,-2.853 -2.001,-2.967c-8.391,-0.766 -16.753,-2.015 -25.099,-3.172c-14.118,-1.956 -28.222,-4.016 -42.323,-6.09c-37.538,-5.521 -75.053,-11.203 -112.585,-16.765c-16.64,-2.466 -33.282,-4.925 -49.941,-7.254c-5.604,-0.783 -11.21,-1.556 -16.824,-2.261c-3.315,-0.416 -6.908,-1.21 -10.265,-1.003c-9.697,0.598 -19.432,2.36 -29.06,3.625c-17.44,2.292 -34.875,4.632 -52.309,6.977c-51.776,6.963 -103.541,14.006 -155.317,20.968c-19.175,2.578 -38.35,5.153 -57.533,7.666c-6.636,0.87 -13.274,1.736 -19.916,2.562c-3.152,0.392 -6.497,1.131 -9.686,1.074c-3.157,-0.057 -6.382,-0.738 -9.5,-1.184c-5.883,-0.842 -11.76,-1.738 -17.635,-2.639c-18.002,-2.762 -35.991,-5.616 -53.98,-8.468c-41.354,-6.554 -82.699,-13.173 -124.076,-19.57c-15.713,-2.429 -31.43,-4.836 -47.165,-7.109c-9.409,-1.359 -18.839,-2.824 -28.305,-3.702c-1.405,-0.131 -2.06,1.737 -2.373,2.832c-0.939,3.274 -0.971,6.885 -0.971,10.27c-0,213.015 -0,426.03 -0,639.045c-0,3.473 0.041,7.178 1.019,10.532c0.325,1.114 0.94,2.867 2.278,2.993c9.303,0.877 18.568,2.343 27.812,3.702c15.476,2.276 30.934,4.683 46.388,7.109c40.966,6.431 81.901,13.07 122.857,19.571c18.136,2.878 36.274,5.75 54.433,8.467c6.113,0.915 12.228,1.817 18.353,2.639c3.567,0.479 7.218,1.136 10.824,1.184c3.237,0.043 6.6,-0.67 9.8,-1.074c6.494,-0.82 12.982,-1.689 19.47,-2.562c18.651,-2.509 37.293,-5.088 55.935,-7.666c50.791,-7.023 101.572,-14.12 152.385,-20.968c17.683,-2.383 35.368,-4.745 53.069,-6.977c10.872,-1.371 21.906,-3.244 32.869,-3.624c3.62,-0.126 7.337,0.556 10.917,1.003c5.598,0.698 11.186,1.473 16.773,2.26c16.435,2.317 32.852,4.783 49.266,7.254c37.046,5.577 74.073,11.285 111.132,16.766c14.141,2.091 28.286,4.159 42.449,6.09c8.729,1.189 17.481,2.462 26.263,3.171c1.397,0.113 2.071,-1.77 2.397,-2.858c0.978,-3.268 1.041,-6.884 1.041,-10.274c0,-213.015 0,-426.03 0,-639.046Z" style="stroke:#000;stroke-width:4.17px;"/><path d="M1407.3,287.138c-0.002,-3.139 -0.049,-6.411 -0.82,-9.481c-0.226,-0.904 -0.667,-2.746 -1.913,-2.866c-21.392,-2.053 -42.693,-5.673 -63.93,-8.783c-37.84,-5.541 -75.653,-11.243 -113.484,-16.837c-17.552,-2.595 -35.105,-5.187 -52.68,-7.645c-5.779,-0.808 -11.561,-1.607 -17.353,-2.333c-3.015,-0.377 -6.268,-1.059 -9.327,-0.93c-3.113,0.131 -6.257,0.69 -9.341,1.077c-5.789,0.727 -11.573,1.483 -17.357,2.242c-17.986,2.36 -35.963,4.774 -53.941,7.191c-52.213,7.021 -104.414,14.119 -156.628,21.134c-19.817,2.662 -39.634,5.322 -59.461,7.911c-5.823,0.761 -11.646,1.517 -17.474,2.242c-3.177,0.395 -6.672,1.213 -9.895,1.076c-3.648,-0.155 -7.329,-0.865 -10.93,-1.383c-5.422,-0.78 -10.837,-1.599 -16.251,-2.426c-17.435,-2.664 -34.855,-5.421 -52.275,-8.178c-41.573,-6.579 -83.132,-13.236 -124.729,-19.681c-15.234,-2.361 -30.473,-4.7 -45.73,-6.928c-10.094,-1.475 -20.21,-3.062 -30.375,-4.044c-1.343,-0.13 -1.95,1.579 -2.241,2.52c-0.925,2.998 -0.985,6.294 -0.986,9.394c-0.063,194.351 0.034,388.702 0.014,583.053c-0,3.194 0.078,6.592 1.057,9.675c0.313,0.985 0.894,2.581 2.189,2.705c10.067,0.972 20.086,2.565 30.08,4.044c15.052,2.227 30.086,4.568 45.117,6.928c41.197,6.47 82.358,13.147 123.544,19.681c17.515,2.779 35.032,5.55 52.573,8.178c6.314,0.946 12.632,1.88 18.963,2.723c3.265,0.435 6.583,0.979 9.884,1.087c3.313,0.108 6.826,-0.666 10.091,-1.077c5.722,-0.72 11.439,-1.478 17.156,-2.241c19.349,-2.583 38.686,-5.249 58.024,-7.912c51.327,-7.068 102.642,-14.215 153.992,-21.133c18.22,-2.455 36.442,-4.893 54.684,-7.192c6.17,-0.778 12.342,-1.543 18.522,-2.241c3.819,-0.432 7.686,-0.978 11.536,-1.078c3.233,-0.084 6.572,0.533 9.763,0.931c5.773,0.719 11.534,1.521 17.293,2.333c15.936,2.247 31.852,4.623 47.766,7.005c37.442,5.605 74.864,11.336 112.32,16.861c13.754,2.028 27.512,4.036 41.287,5.935c9.301,1.282 18.627,2.658 27.992,3.464c1.317,0.113 1.91,-1.633 2.192,-2.547c0.924,-3.003 0.999,-6.296 1.002,-9.4c0.186,-194.352 0.2,-388.702 0.08,-583.054Z" style="fill:#fff;stroke:#000;stroke-width:4.17px;"/></g></g><g><path d="M620.203,341.062c-11.558,-1.801 -21.707,4.708 -28.182,13.866c-2.271,3.213 -4.139,6.705 -5.66,10.33c-1.176,2.803 -2.145,5.693 -2.917,8.633c-2.95,11.233 -3.734,25.051 2.339,35.502c0.105,0.181 0.666,-0.324 0.734,-0.381c0.798,-0.658 1.48,-1.521 2.321,-2.114c3.177,-2.242 7.231,-2.168 10.953,-2.213c14.002,-0.169 29.457,2.806 39.41,13.467c12.741,13.647 13.673,34.056 13.898,51.657c0.047,3.666 0.047,7.334 0.166,10.999c0.359,11.036 2.446,22.012 5.597,32.578c4.372,14.657 10.902,28.806 19.668,41.368c20.677,29.629 52.497,47.748 81.97,67.3c7.463,4.952 15.995,8.09 23.493,13.019c3.75,2.464 7.777,5.496 9.794,9.646c2.446,5.033 3.395,10.738 3.965,16.251c0.931,9.009 0.635,18.078 1.203,27.107c2.223,35.351 3.032,70.839 2.457,106.255c-0.057,3.51 -0.48,7.028 -0.758,10.523c-0.203,2.566 -0.397,5.133 -0.56,7.703c-0.129,2.037 -0.241,4.076 -0.321,6.116c-0.219,5.574 -0.516,11.565 0.767,17.053c0.372,1.592 1.314,4.851 3.625,4.142c3.396,-1.043 3.881,-5.767 4.083,-8.69c0.048,-0.692 0.076,-1.385 0.091,-2.078c0.021,-0.992 0.014,-1.985 -0.009,-2.977c-0.029,-1.246 -0.085,-2.492 -0.15,-3.737c-0.075,-1.448 -0.169,-2.895 -0.222,-4.345c-0.563,-15.305 -0.697,-30.98 3.904,-45.752c3.27,-10.496 7.492,-20.709 10.153,-31.391c1.542,-6.192 1.851,-12.531 3.223,-18.741c1.759,-7.961 4.867,-15.546 8.148,-22.983c3.824,-8.666 5.895,-18.686 6.193,-28.127c0.153,-4.846 -0.181,-10.032 -2.262,-14.49c-1.928,-4.132 -7.818,-4.735 -11.778,-4.005c-1.709,0.316 -3.152,1.071 -4.955,1.179c-1.827,0.109 -3.828,0.027 -5.551,-0.671c-1.875,-0.76 -3.47,-2.212 -4.915,-3.587c-2.507,-2.385 -4.779,-5.02 -7.015,-7.655c-6.652,-7.839 -12.853,-16.124 -20.117,-23.418c-1.587,-1.593 -3.256,-3.102 -4.92,-4.613c-1.36,-1.236 -2.729,-2.462 -4.073,-3.715c-6.017,-5.609 -13.131,-12.82 -12.72,-21.756c0.053,-1.142 0.196,-2.293 0.529,-3.39c0.197,-0.65 0.465,-1.282 0.833,-1.854c2.568,-3.988 8.153,-1.955 11.499,-0.301c0.674,0.333 1.336,0.689 1.988,1.063c0.896,0.512 1.776,1.055 2.636,1.625c1.077,0.714 2.134,1.456 3.171,2.226c1.359,1.008 2.688,2.056 3.995,3.13c1.781,1.462 3.662,3.567 5.79,4.592c0.298,0.144 0.751,0.305 1.043,0.061c2.132,-1.778 2.187,-5.571 2.379,-8.048c0.411,-5.309 0.323,-10.697 1.449,-15.929c2.289,-10.641 3.512,-21.573 4.054,-32.435c0.412,-8.259 0.562,-16.79 -0.998,-24.959c-1.712,-8.969 -6.551,-16.97 -8.351,-25.911c-2.154,-10.704 2.891,-21.499 0.533,-32.175c-4.179,-18.916 -19.623,-31.785 -30.598,-46.81c-3.313,-4.536 -3.539,-10.555 -6.963,-15.023c-5.319,-6.941 -12.756,-12.025 -20.368,-16.155c-12.241,-6.64 -25.54,-11.134 -38.707,-15.531c-7.028,-2.348 -14.095,-4.587 -21.054,-7.137c-2.095,-0.767 -4.334,-1.203 -6.481,-1.79c-0.744,-0.204 -1.493,-0.405 -2.222,-0.661c-0.226,-0.079 -0.83,-0.302 -0.606,-0.386c-2.075,-1.029 -4.159,-2.042 -6.253,-3.033c-8.317,-3.937 -17.604,-7.019 -26.695,-8.447c-3.172,-0.498 -8.259,-1.299 -10.841,1.245" style="stroke:#000;stroke-width:4.17px;"/><path d="M767.262,389.098c11.399,-10.786 22.519,-21.924 34.692,-31.854c6.336,-5.169 13.029,-9.721 19.814,-14.263c0.708,-0.474 1.318,-1.142 1.82,-1.829c0.392,-0.536 0.59,-1.174 1.28,-1.397c1.191,-0.385 2.283,0.603 2.846,1.548c1.214,2.037 1.263,4.717 1.19,7.011c-0.085,2.662 -1.626,5.378 -2.525,7.818c-1.224,3.325 -1.969,6.594 -2.525,10.082c-1.163,7.292 -4.278,14.114 -7.074,20.89c-3.229,7.822 -6.198,15.81 -7.171,24.27c-1.003,8.71 1.477,17.115 3.689,25.443c1.713,6.452 3.161,12.977 3.349,19.673c0.364,12.996 -4.85,25.61 -3.112,38.613c1.24,9.282 6.19,17.843 5.927,27.378c-0.027,0.968 -0.496,1.963 -0.905,2.811c-1.012,2.095 -2.465,4.129 -4.347,5.525c-1.192,0.884 -3.359,1.876 -4.25,0.064c-2.553,-5.188 -4.046,-10.912 -5.319,-16.52c-1.877,-8.267 -3.113,-16.68 -4.066,-25.099c-1.412,-12.473 -0.496,-25.112 -2.316,-37.545c-2.181,-14.9 -11.07,-28.157 -19.1,-40.458c-2.993,-4.585 -6.207,-9.21 -8.408,-14.253c-0.943,-2.161 -1.882,-4.728 -1.355,-7.126" style="stroke:#000;stroke-width:4.17px;"/><path d="M820.228,405.88c-0.575,0.366 0.085,0.981 0.386,1.276c0.843,0.825 1.858,1.6 2.277,2.747c0.9,2.466 1.003,5.159 1.109,7.754c0.119,2.935 0.207,5.872 0.306,8.808c0.431,12.781 0.089,25.578 0.505,38.361c0.109,3.35 0.221,6.725 0.674,10.05c0.185,1.363 0.352,3.392 1.362,4.486c0.633,0.684 1.435,-0.327 1.795,-0.815c1.14,-1.547 1.954,-3.36 2.78,-5.086c2.363,-4.938 4.546,-9.961 7.022,-14.846c1.481,-2.922 2.972,-6.158 5.209,-8.604c3.891,-4.257 8.836,-7.45 13.722,-10.434c6.866,-4.193 13.984,-7.99 20.596,-12.589c4.35,-3.026 8.576,-6.416 11.856,-10.612c10.895,-13.936 8.209,-32.959 14.716,-48.631c1.209,-2.913 3.333,-5.477 5.254,-7.939c3.086,-3.954 6.399,-7.792 9.063,-12.058c1.684,-2.696 4.157,-6.945 2.191,-10.113c-3.139,-5.059 -6.945,-10.046 -11.414,-14.021c-1.759,-1.565 -3.931,-3.329 -6.371,-3.61c-3.211,-0.369 -6.479,0.551 -9.438,1.707c-6.333,2.475 -11.811,6.745 -18.15,9.154c-3.436,1.305 -6.867,2.623 -10.279,3.99c-13.412,5.376 -28.727,11.635 -36.236,24.861c-1.458,2.568 -2.583,5.317 -3.406,8.152c-1.173,4.046 -1.55,8.071 -2.138,12.205c-0.605,4.247 -1.401,8.463 -2.02,12.708c-0.516,3.544 -0.764,7.143 -1.102,10.707c-0.115,1.204 -0.228,2.408 -0.327,3.613c-0.038,0.459 -0.075,0.918 -0.099,1.378c-0.005,0.078 0.016,0.578 0.019,0.573" style="stroke:#000;stroke-width:4.17px;"/><path d="M902.425,607.033c0.154,-15.319 3.871,-30.451 11.377,-43.845c5.344,-9.537 12.412,-18.011 20.419,-25.424c5.25,-4.86 9.766,-10.365 14.524,-15.688c0.456,-0.51 0.915,-1.016 1.383,-1.514c2.403,-2.559 6.374,-6.772 10.046,-3.847c0.666,0.531 1.23,1.183 1.733,1.868c0.754,1.024 1.384,2.137 1.958,3.27c0.679,1.339 2.139,2.204 3.431,2.836c2.937,1.436 6.222,2.178 9.417,2.779c12.897,2.424 26.63,2.623 39.663,1.282c3.826,-0.394 7.769,-0.899 11.414,-2.186c1.368,-0.483 3.365,-1.23 4.001,-2.705c1.977,-4.585 -4.457,-6.749 -7.673,-7.738c-0.788,-0.243 -1.582,-0.464 -2.379,-0.673c-1.041,-0.272 -2.089,-0.522 -3.139,-0.759c-10.047,-2.264 -20.362,-3.497 -30.206,-6.618c-4.65,-1.474 -9.762,-3.407 -13.108,-7.128c-4.153,-4.617 -8.661,-10.092 -9.551,-16.462c-0.7,-5.008 1.269,-9.853 2.791,-14.521c1.641,-5.033 2.832,-10.171 3.247,-15.455c0.792,-10.098 -2.716,-19.936 -2.748,-30.003c-0.005,-1.839 -0.075,-3.677 -0.073,-5.516c0.002,-1.555 0.036,-3.111 0.128,-4.663c0.408,-6.899 1.915,-16.024 8.939,-19.361c1.045,-0.497 2.145,-0.888 3.284,-1.102c6.022,-1.137 10.717,3.502 14.287,7.739c1.177,1.397 2.303,2.836 3.436,4.268c4.837,6.11 10.761,13.584 19.368,13.365c1.478,-0.037 2.945,-0.293 4.363,-0.707c10.218,-2.979 16.948,-12.394 27.128,-15.524c8.375,-2.575 17.078,-3.58 25.745,-4.638c8.766,-1.07 17.778,-2.298 25.661,-6.54c4.026,-2.167 6.482,-6.127 8.926,-9.831c1.606,-2.432 3.365,-5.165 6.05,-6.524c4.37,-2.211 7.888,4.333 12.159,1.375c5.876,-4.07 9.558,-10.575 13.091,-16.603c1.472,-2.511 2.891,-5.13 4.703,-7.422c0.237,-0.3 0.804,-1.092 1.292,-0.898c0.4,0.159 0.427,0.85 0.52,1.194c0.318,1.169 0.636,2.338 0.979,3.5c0.29,0.983 0.595,1.961 0.93,2.929c0.199,0.571 0.407,1.14 0.631,1.702c1.033,2.595 2.954,6.847 6.476,6.011c0.312,-0.074 0.641,-0.455 0.857,-0.651c0.697,-0.635 1.368,-1.299 2.05,-1.949c2.126,-2.026 4.317,-3.982 6.591,-5.842c4.611,-3.772 9.508,-7.188 14.567,-10.33c3.252,-2.02 6.576,-4.09 10.084,-5.651c21.615,-9.624 46.287,-11.769 69.681,-11.806c6.652,-0.011 13.382,-0.21 19.985,0.768c1.83,0.271 5.168,0.566 6.397,2.326c1.041,1.489 1.316,3.405 1.379,5.18c0.13,3.626 -0.722,7.158 -1.086,10.744c-0.422,4.158 -0.033,8.402 0.334,12.548c0.794,8.967 2.357,18.372 0.993,27.381c-0.242,1.322 -2.036,2.173 -3.089,2.718c-1.955,1.01 -4.007,1.814 -5.978,2.79c-1.096,0.542 -2.39,1.148 -3.162,2.137c-1.293,1.657 -1.785,3.798 -1.994,5.848c-0.412,4.03 0.246,8.06 0.185,12.093c-0.12,8.013 -0.294,16.028 -0.123,24.041c0.011,0.53 0.07,1.068 0.105,1.593c0.101,1.492 0.198,3.046 -0.073,4.526c-0.088,0.482 -0.282,1.279 -0.866,1.377c-1.034,0.172 -2.102,-0.509 -2.902,-1.076c-2.037,-1.443 -3.628,-3.38 -5.343,-5.167c-1.371,-1.428 -2.813,-2.787 -4.261,-4.136c-5.751,-5.355 -13.649,-11.697 -14.278,-20.227c-0.443,-6.002 2.838,-12.035 6.465,-16.543c1.394,-1.731 3.423,-2.858 4.905,-4.516c0.667,-0.745 1.348,-1.68 1.335,-2.727c-0.006,-0.421 -1.504,0.489 -1.546,0.514c-0.122,0.073 -0.244,0.147 -0.365,0.222c-0.123,0.076 -0.238,0.168 -0.368,0.234c-0.995,0.506 -2.047,0.887 -3.048,1.38c-4.701,2.311 -7.374,7.038 -11.384,10.22c-7.338,5.823 -16.86,8.183 -25.088,12.379c-4.946,2.522 -9.765,5.788 -12.622,10.681c-1.984,3.397 -0.95,7.442 -1.22,11.155c-0.188,2.587 -2.825,4.76 -2.394,7.416c0.202,1.246 2.927,1.327 3.771,1.424c2.572,0.296 5.168,0.334 7.75,0.506c1.262,0.083 2.887,0.052 4.076,0.61c5.355,2.515 7.001,9.46 7.518,14.783c0.111,1.141 0.173,2.286 0.192,3.431c0.027,1.625 -0.031,3.253 -0.177,4.871c-0.198,2.178 -0.496,4.438 -1.262,6.499c-1.273,3.424 -4.359,5.819 -7.213,7.887c-4.854,3.518 -10.659,6.894 -12.968,12.759c-0.754,1.914 -0.666,4.098 -0.457,6.102c0.333,3.174 1.125,6.283 1.426,9.46c0.269,2.84 0.097,6.306 -2.952,7.557c-0.859,0.352 -1.756,0.626 -2.679,0.749c-4.775,0.634 -7.43,-3.642 -9.902,-6.966c-1.826,-2.457 -4.243,-5.228 -7.637,-4.079c-0.694,0.235 -1.344,0.588 -1.95,0.996c-1.59,1.069 -4.158,2.126 -4.527,4.301c-0.552,3.258 0.896,6.28 2.771,8.85c3.262,4.47 8.865,8.582 9.754,14.425c1.138,7.473 0.447,15.094 -4.749,20.981c-3.758,4.257 -8.857,6.962 -13.039,10.74c-3.127,2.826 -5.468,6.269 -6.767,10.293c-0.67,2.073 0.404,4.438 1.261,6.269c1.579,3.373 4.074,7.135 3.604,11.06c-0.351,2.926 -1.267,6.157 -2.913,8.627c-0.867,1.3 -2.261,2.343 -3.503,0.84c-0.286,-0.347 -0.515,-0.738 -0.716,-1.139c-0.304,-0.606 -0.588,-1.223 -0.898,-1.827c-0,-0 -0.592,-1.062 -0.632,-0.99c-1.195,2.172 -0.592,5.705 -0.368,7.997c0.63,6.434 2.464,12.732 2.965,19.163c0.1,1.287 0.173,2.576 0.246,3.865c-2.007,-5.254 -3.89,-11.187 -4.049,-16.872c-0.223,-8.01 0.563,-16.024 0.416,-24.039c-0.07,-3.859 0.02,-8.481 -1.55,-12.119c-0.595,-1.379 -1.852,1.178 -2.094,1.514c-1.276,1.771 -1.536,4.302 -1.792,6.402c-0.575,4.71 -0.597,9.467 -0.96,14.194c-0.133,1.732 -0.237,3.556 -0.762,5.224c-0.258,0.82 -0.846,1.684 -1.518,0.644c-0.244,-0.377 -0.23,-1.067 -0.273,-1.478c-0.118,-1.117 -0.185,-2.241 -0.247,-3.362c-0.231,-4.16 -0.313,-8.326 -0.458,-12.49c-0.156,-4.495 -0.383,-8.987 -0.56,-13.481c-0.137,-3.46 -0.225,-7.332 -2.069,-10.388c-6.205,-10.285 -18.16,-16.567 -29.57,-19.201c-4.844,-1.119 -9.475,-2.992 -14.239,-4.384c-2.22,-0.649 -4.085,-2.197 -6.249,-3.001c-0.806,-0.299 -2.095,-0.598 -2.097,0.636c-0,0.222 0.405,0.429 0.554,0.525c0.773,0.497 1.617,0.89 2.444,1.286c3.538,1.695 7.308,3.031 10.716,4.97c8.025,4.566 15.811,10.943 21.258,18.43c1.365,1.877 2.732,3.961 3.351,6.225c0.241,0.881 0.421,2.022 -0.174,2.816c-1.001,1.336 -2.851,1.717 -4.406,1.936c-3.006,0.424 -6.231,0.062 -9.16,0.959c-4.44,1.36 -8.812,3.131 -13.512,3.295c-4.618,0.161 -9.264,-0.086 -13.815,-0.909c-3.621,-0.654 -7.179,-1.681 -10.56,-3.139c-11.886,-5.123 -20.017,-15.312 -26.701,-26.035c-0.973,-1.562 -1.989,-3.095 -3.078,-4.579c-0.821,-1.119 -1.68,-2.212 -2.584,-3.266c-4.72,-5.503 -12.193,-11.555 -19.817,-7.93c-1.755,0.834 -0.05,3.469 0.578,4.441c0.189,0.292 0.386,0.58 0.588,0.863c0.288,0.403 0.586,0.797 0.892,1.186c0.399,0.509 0.811,1.008 1.23,1.5c0.505,0.593 1.022,1.176 1.546,1.752c0.644,0.707 1.298,1.405 1.963,2.093c0.808,0.836 1.648,1.645 2.443,2.494c2.431,2.601 4.481,5.539 6.421,8.516c7.195,11.039 13.868,25.194 26.871,30.573c3.457,1.43 7.737,1.182 11.388,1.078c6.885,-0.195 13.736,-1.032 20.621,-1.221c0.754,-0.02 1.508,-0.031 2.261,-0.027c0.579,0.004 1.158,0.016 1.736,0.042c2.334,0.106 7.016,0.296 7.423,3.411c0.497,3.808 -2.457,7.072 -5.101,9.389c-3.874,3.395 -8.423,5.976 -12.783,8.669c-2.482,1.534 -5.226,3.055 -7.226,5.229c-13.357,14.51 -24.144,31.038 -36.486,46.368c-7.465,9.272 -15.578,18.08 -24.561,25.905c-9.204,8.018 -17.394,18.951 -29.757,22.258c-3.542,0.948 -7.114,1.81 -10.727,2.444c-2.405,0.422 -4.838,0.752 -7.281,0.821c-1.591,0.046 -3.204,-0.016 -4.766,-0.349c-0.858,-0.183 -1.703,-0.454 -2.484,-0.86c-3.876,-2.02 -4.061,-6.754 -3.939,-10.601c0.211,-6.598 1.157,-13.143 0.306,-19.735c-3.028,-23.438 -4.188,-47.622 -11.634,-70.236c-0.402,-1.221 -1.572,-1.988 -2.685,-2.497c-2.325,-1.063 -4.977,-1.427 -7.495,-1.701c-10.67,-1.161 -21.425,0.296 -32.093,-0.58c-1.833,-0.151 -3.636,-1.008 -5.253,-1.809c-2.963,-1.467 -5.695,-3.332 -8.591,-4.916c-0.97,-0.53 -1.918,-1.105 -2.916,-1.585c-0.03,-0.014 -1.009,-0.513 -1.009,-0.265" style="stroke:#000;stroke-width:4.17px;"/><path d="M1223.58,446.336c0.899,0.13 1.616,1.394 2.045,2.06c1.299,2.02 2.137,4.292 3.394,6.328c4.942,8.009 10.91,15.314 16.346,22.981c0.455,0.642 2.036,-0.113 2.523,-0.296c2.499,-0.936 4.852,-2.23 7.372,-3.114c0.608,-0.214 2.549,-1.046 3.033,-0.136c1.67,3.142 -2.448,4.704 -4.542,5.876c-0.438,0.245 -0.873,0.503 -1.27,0.812c-2.371,1.85 -3.087,4.096 -3.563,6.974c-0.947,5.732 -1.034,11.591 -0.781,17.383c0.14,3.228 1.661,6.59 0.679,9.807c-1.098,3.598 -4.263,6.388 -7.217,8.504c-5.192,3.72 -11.404,6.365 -17.686,7.52c-3.232,0.595 -6.698,0.824 -9.894,-0.095c-2.386,-0.686 0.61,-3.296 1.412,-3.977c0.334,-0.284 0.676,-0.56 1.023,-0.828c0.438,-0.34 0.925,-0.651 1.33,-1.032c3.702,-3.483 7.95,-6.334 11.713,-9.751c2.125,-1.929 4.247,-4.063 5.561,-6.647c2.687,-5.283 0.955,-12.18 -0.312,-17.558c-0.891,-3.782 -0.176,-7.775 -1.313,-11.516c-1.874,-6.166 -5.434,-11.735 -6.783,-18.073c-0.843,-3.956 -1.682,-7.913 -2.564,-11.86c-0.201,-0.899 -0.4,-1.8 -0.624,-2.695c-0.007,-0.025 -0.119,-0.607 -0.183,-0.609" style="stroke:#000;stroke-width:4.17px;"/><path d="M1169.11,632.726c1.746,-3.39 3.958,-6.489 6.496,-9.331c2.342,-2.623 3.959,-5.834 6.375,-8.425c0.746,-0.8 1.897,-2.163 3.106,-2.193c0.411,-0.011 0.963,0.512 1.265,0.733c0.922,0.673 1.831,1.424 2.577,2.292c0.234,0.272 0.627,0.701 0.606,1.1c-0.127,2.482 -1.92,4.518 -2.239,6.966c-0.737,5.654 0.119,13.447 -4.903,17.512c-1.091,0.884 -2.601,0.697 -3.897,0.917c-0.95,0.161 -1.908,-0.033 -2.862,0.025c-0.625,0.039 -1.263,0.03 -1.875,-0.111c-2.746,-0.637 -3.184,-4.264 -3.662,-6.511c-0.214,-1.004 -0.308,-2.029 -0.554,-3.028c-0.076,-0.308 -0.158,-0.899 -0.46,-1.091c-0.192,-0.121 -0.73,0.43 -0.842,0.526c-0.852,0.741 -1.569,1.653 -2.439,2.365" style="stroke:#000;stroke-width:4.17px;"/><path d="M1156.73,630.593c0.302,3.753 0.584,7.514 1.15,11.239c0.345,2.269 0.732,4.648 1.684,6.755c0.649,1.434 3.1,1.424 4.307,1.932c4.579,1.925 8.99,3.564 14.014,3.285c2.117,-0.117 4.212,1.167 6.33,1.357c0.884,0.08 1.982,0.041 2.584,-0.718c0.412,-0.518 -1.033,-0.997 -1.291,-1.092c-1.875,-0.689 -3.846,-1.043 -5.794,-1.453c-4.345,-0.917 -9.543,-0.886 -13.278,-3.654c-4.275,-3.169 -5.571,-9.617 -7.478,-14.185c-0.517,-1.237 -2.465,-1.658 -2.168,-3.213c0.566,-2.965 2.634,-5.267 4.438,-7.562" style="stroke:#000;stroke-width:4.17px;"/><path d="M1191.92,579.562c0,-0.091 -0.07,-0.326 0.003,-0.272c0.349,0.253 0.021,0.862 0.03,1.293c0.021,1.02 0.031,2.042 0.09,3.061c0.038,0.66 0.016,1.325 0.024,1.987c0.007,0.539 0.019,1.078 0.045,1.617c0.02,0.434 0.051,0.867 0.09,1.3c0.145,1.606 0.562,5.217 2.969,4.787c0.735,-0.131 1.47,-0.313 2.158,-0.612c3.74,-1.624 2.196,-6.4 2.181,-9.529c-0.012,-2.315 0.517,-5.724 -1.257,-7.621c-1.021,-1.092 -2.949,0.538 -3.776,1.073c-0.23,0.149 -1.985,0.426 -1.539,0.981" style="stroke:#000;stroke-width:4.17px;"/><path d="M1211.32,599.329c0.216,-0.286 1.002,1.22 1.036,1.284c0.594,1.125 1.776,3.082 1.542,4.421c-0.437,2.49 -2.541,4.111 -4.899,4.703c-3.397,0.851 -7.42,-0.188 -9.509,-3.118c-0.722,-1.012 0.605,-2.738 1.567,-3.067c4.065,-1.391 7.275,-4.999 11.688,-5.43" style="stroke:#000;stroke-width:4.17px;"/><path d="M1209.68,623.974c2.119,0.307 0.43,2.474 -0.769,2.895c-2.694,0.944 -5.819,0.724 -8.616,1.316c-0.914,0.193 -2.649,0.442 -3.148,1.388c-0.528,1 0.154,2.217 0.693,3.051c0.373,0.578 0.795,1.126 1.229,1.66c0.51,0.628 0.574,0.695 1.208,1.456c0.264,0.317 0.529,0.635 0.786,0.959c0.864,1.085 2.818,3.436 0.992,4.611c-0.259,0.166 -0.546,0.287 -0.838,0.383c-0.518,0.171 -1.06,0.269 -1.6,0.338c-0.932,0.12 -1.873,0.183 -2.813,0.162c-1.179,-0.025 -2.607,0.302 -3.741,-0.173c-0.277,-0.115 -0.275,-0.763 -0.297,-0.984c-0.105,-1.072 -0.037,-2.146 -0.035,-3.22c0.002,-0.954 -0.101,-1.909 -0.176,-2.858c-0.046,-0.591 -0.093,-1.182 -0.129,-1.774c-0.128,-2.087 -0.589,-6.076 1.412,-7.574c0.832,-0.623 2.434,-0.497 3.366,-0.498c2.935,-0.003 5.91,0.284 8.811,0.703c0.959,0.139 2.071,0.042 3.019,-0.156c0.211,-0.044 0.813,-0.142 0.814,-0.467" style="stroke:#000;stroke-width:4.17px;"/><path d="M1233.7,628.768c2.051,-0.364 3.957,-1.342 6.022,-1.696c0.872,-0.15 2.025,-0.308 2.801,0.237c1.914,1.344 1.394,4.279 4.3,4.341c4.526,0.097 8.159,-3.421 12.614,-3.76c11.457,-0.874 23.319,2.564 33.771,6.985c5.072,2.146 9.303,5.586 13.651,8.89c1.036,0.787 2.313,1.276 3.398,2.005c0.193,0.13 0.913,0.508 0.873,0.832c-0.042,0.332 -0.686,0.424 -0.919,0.473c-1.146,0.244 -2.341,0.259 -3.507,0.298c-1.949,0.066 -3.859,-0.281 -5.65,-1.051c-3.109,-1.336 -5.739,-3.428 -9.157,-3.967c-3.767,-0.594 -6.951,1.462 -10.552,2.122c-4.027,0.738 -8.333,-0.443 -12.202,-1.453c-9.239,-2.413 -19.068,-3.567 -27.807,-7.627c-1.999,-0.928 -3.335,-3.318 -4.711,-4.889c-0.664,-0.759 -1.579,-1.882 -2.661,-2.039" style="stroke:#000;stroke-width:4.17px;"/><path d="M1176.63,707.966c-0.038,-3.551 -0.472,-7.472 0.666,-10.922c2.772,-8.402 13.068,-9.722 19.261,-14.59c6.549,-5.147 13.185,-10.24 20.502,-14.264c10.704,-5.887 22.631,-9.009 34.881,-8.03c1.611,0.128 3.194,0.903 4.637,1.557c2.958,1.341 6.036,3.072 9.32,3.479c5.172,0.641 10.087,-3.286 15.22,-1.789c1.674,0.489 3.07,1.803 4.276,3.002c2.264,2.251 4.123,5.005 6.654,6.976c6.546,5.098 13.666,9.464 19.854,15.017c1.872,1.68 5.045,2.848 5.658,5.576c0.563,2.5 -0.128,5.086 -1.138,7.379c-1.913,4.342 -5.126,7.932 -7.221,12.166c-2.309,4.668 -2.671,10.081 -4.207,15.006c-0.806,2.582 -1.909,5.246 -3.919,7.132c-1.124,1.054 -3.449,0.923 -4.853,0.944c-4.506,0.067 -8.952,-0.651 -13.439,-0.888c-5.867,-0.31 -11.748,0.347 -17.609,-0.25c-2.898,-0.296 -5.931,-0.831 -8.487,-2.306c-1.347,-0.777 -2.283,-2.22 -3.077,-3.511c-1.74,-2.831 -2.851,-6.138 -4.917,-8.757c-1.188,-1.504 -3.253,-2.228 -5.011,-2.768c-4.508,-1.384 -9.365,-1.853 -14.056,-1.992c-13.669,-0.403 -26.519,4.091 -39.844,6.358c-3.871,0.658 -9.303,3.085 -13.186,0.94c-0.327,-0.181 -0.399,-0.778 -0.451,-1.087c-0.189,-1.125 -0.153,-2.275 -0.165,-3.411c-0.012,-1.036 -0.13,-2.075 -0.212,-3.107c-0.055,-0.692 -0.106,-1.385 -0.146,-2.079c-0.114,-1.966 -0.246,-4.078 0.214,-6.015c0.174,-0.733 0.521,-1.73 1.379,-1.886" style="stroke:#000;stroke-width:4.17px;"/><path d="M1271.9,749.625c1.227,0.181 2.551,-0.057 3.765,-0.189c2.336,-0.253 4.677,-0.575 7.029,-0.607c1.268,-0.017 3.425,-0.139 4.32,1.019c0.21,0.271 0.006,0.713 -0.119,0.968c-0.367,0.753 -0.927,1.424 -1.462,2.06c-0.158,0.187 -0.369,0.43 -0.533,0.615c-0.227,0.254 -0.47,0.506 -0.688,0.77c-0.709,0.86 -1.358,1.771 -2.038,2.654c-0.445,0.579 -0.902,1.15 -1.371,1.71c-1.977,2.355 -5.143,6.009 -8.649,5.385c-1.022,-0.182 -1.699,-1.416 -2.129,-2.222c-1.185,-2.221 -1.879,-4.751 -2.354,-7.209c-0.164,-0.847 -0.309,-1.725 -0.296,-2.59c0.003,-0.18 -0.022,-0.819 0.278,-0.843" style="stroke:#000;stroke-width:4.17px;"/><path d="M1354.93,729.128c1.05,0.15 2.099,0.395 3.071,0.828c5.313,2.367 3.54,9.065 2.289,13.385c-0.315,1.088 -0.646,2.172 -0.961,3.261c-0.356,1.228 -0.702,2.465 -0.919,3.727c-0.432,2.5 -2.357,3.868 -4.195,5.385c-0.459,0.379 -1.531,0.363 -2.087,0.376c-0.114,0.003 -0.57,0.038 -0.601,-0.144c-0.439,-2.527 2.169,-5.069 3.313,-7.002c1.796,-3.032 2.401,-6.832 2.681,-10.294c0.197,-2.443 -0.295,-4.874 -0.513,-7.299c-0.076,-0.853 -0.189,-1.704 -0.316,-2.552c-0.009,-0.059 -0.242,-1.562 -0.253,-0.853" style="stroke:#000;stroke-width:4.17px;"/><path d="M1347.57,761.864c0.394,0.258 0.766,0.558 1.075,0.915c1.95,2.262 -0.44,5.104 -1.972,6.811c-0.419,0.467 -0.851,0.925 -1.251,1.409c-3.881,4.709 -7.94,10.729 -13.838,13.163c-1.539,0.635 -3.874,0.286 -5.367,-0.389c-0.869,-0.393 -1.49,-1.13 -0.937,-2.069c1.524,-2.59 5.036,-3.927 7.404,-5.503c2.516,-1.676 5.021,-3.377 7.385,-5.266c3.344,-2.674 5.656,-6.357 8.792,-9.242" style="stroke:#000;stroke-width:4.17px;"/><path d="M1072.36,679.977c2.04,-0.275 2.858,-1.902 3.093,-3.819c0.338,-2.764 -0.29,-6.04 1.185,-8.571c1.159,-1.99 3.496,-3.712 5.15,-5.229c3.371,-3.093 6.791,-6.172 10.484,-8.88c0.396,-0.29 0.796,-0.575 1.201,-0.851c0.99,-0.676 3.401,-2.589 4.834,-1.974c3.322,1.424 5.601,4.256 6.019,7.9c0.29,2.52 -0.21,5.121 -0.985,7.513c-2.21,6.831 -6.908,13.023 -12.501,17.459c-2.735,2.169 -5.848,4.031 -9.247,4.923c-2.323,0.61 -4.866,0.218 -6.879,-1.102c-2.604,-1.708 -3.855,-4.853 -2.311,-7.676c0.518,-0.946 1.26,-1.755 2.086,-2.441" style="stroke:#000;stroke-width:4.17px;"/><path d="M912.313,425.184c-0.001,-0.361 0.79,-0.485 1.008,-0.53c1.079,-0.223 2.207,-0.248 3.305,-0.244c0.924,0.003 1.849,0.047 2.77,0.126c0.696,0.059 1.39,0.139 2.081,0.243c0.548,0.083 1.093,0.18 1.634,0.297c2.25,0.485 6.936,1.905 5.145,5.142c-2.346,4.238 -6.128,7.462 -10.258,9.891c-6.712,3.949 -14.371,6.084 -21.913,7.791c-2.977,0.674 -5.859,1.727 -8.896,2.136c-0.933,0.126 -2.469,0.397 -3.261,-0.297c-0.845,-0.74 -1.633,-1.562 -2.262,-2.496c-0.385,-0.573 -0.71,-1.191 -0.93,-1.846c-1.615,-4.813 3.412,-8.604 6.954,-10.767c0.754,-0.46 1.522,-0.894 2.301,-1.31c0.97,-0.517 1.956,-1.004 2.951,-1.47c1.356,-0.635 2.73,-1.231 4.114,-1.801c1.596,-0.657 3.207,-1.279 4.826,-1.881c2.253,-0.836 4.521,-1.632 6.795,-2.412c3.33,-1.143 6.686,-2.233 9.978,-3.486" style="stroke:#000;stroke-width:4.17px;"/><path d="M943.345,454.71c4.832,3.47 9.645,7.588 13.377,12.255c1.011,1.265 3.069,3.692 2.241,5.536c-0.554,1.234 -1.717,2.251 -2.715,3.119c-2.46,2.139 -5.42,4.069 -8.585,4.951c-1.523,0.424 -3.359,0.631 -4.744,-0.305c-0.335,-0.227 -0.363,-1.174 -0.42,-1.513c-0.247,-1.485 -0.396,-2.988 -0.543,-4.486c-0.679,-6.929 -1.381,-13.976 -1.398,-20.938" style="stroke:#000;stroke-width:4.17px;"/><path d="M929.49,468.845c-0.356,0.368 1.141,0.687 1.248,0.713c1.401,0.35 3.166,0.349 4.459,1.047c1.441,0.777 0.086,3.359 -0.583,4.234c-1.03,1.347 -2.656,2.45 -3.943,3.525c-2.968,2.483 -6.124,4.989 -9.623,6.684c-1.56,0.755 -4.562,1.966 -5.419,-0.361c-0.145,-0.394 -0.208,-0.815 -0.232,-1.233c-0.288,-5.01 4.945,-8.839 8.453,-11.508c0.812,-0.618 1.633,-1.224 2.451,-1.832c1.156,-0.86 2.313,-1.721 3.423,-2.639" style="stroke:#000;stroke-width:4.17px;"/><path d="M1054.16,383.978c-2.035,-0.156 -1.787,-3.365 -1.676,-4.731c0.027,-0.329 0.063,-0.663 0.103,-0.991c0.062,-0.499 0.138,-0.997 0.222,-1.492c0.105,-0.625 0.224,-1.248 0.353,-1.868c0.178,-0.857 0.399,-1.711 0.536,-2.576c0.433,-2.729 0.951,-5.469 1.865,-8.084c0.584,-1.67 1.344,-3.282 2.346,-4.745c3.777,-5.513 10.492,-8.18 16.568,-10.228c2.606,-0.878 5.288,-1.712 8.014,-2.122c1.044,-0.157 2.519,-0.42 3.488,0.161c0.782,0.469 1.531,1.015 2.157,1.682c3.426,3.653 -0.294,8.102 -2.993,10.837c-0.515,0.521 -1.042,1.03 -1.576,1.531c-0.815,0.766 -1.647,1.514 -2.475,2.265c-1.054,0.955 -2.112,1.908 -3.118,2.914c-1.148,1.147 -2.42,2.443 -3.018,3.99c-1.609,4.162 -3.436,9.374 -1.942,13.838c0.453,1.352 2.219,2.549 3.118,3.502c0.163,0.173 1.244,1.17 0.859,1.504c-3.173,2.76 -7.262,4.499 -11.518,4.044c-6.853,-0.733 -12.625,-7.247 -10.673,-14.262" style="stroke:#000;stroke-width:4.17px;"/><path d="M1126.59,321.493c1.527,0.279 3.026,0.754 4.375,1.532c5.115,2.946 7.02,9.527 9.775,14.374c0.834,1.467 2.466,2.559 4.089,2.962c0.938,0.233 1.956,0.16 2.385,-0.83c1.03,-2.376 0.239,-6.17 -0.388,-8.453c-1.034,-3.772 -4.196,-5.367 -6.751,-8.033c-2.687,-2.804 -4.643,-6.224 -7.484,-8.903c-1.4,-1.321 -3.062,-2.574 -4.992,-2.953c-0.889,-0.174 -1.806,-0.246 -2.709,-0.147c-3.343,0.367 -4.887,3.255 -4.112,6.376c0.734,2.958 2.946,5.519 5.519,7.07" style="stroke:#000;stroke-width:4.17px;"/></g></g></g><g><g><path d="M435.921,599.42c-0,-11.537 -9.366,-20.903 -20.902,-20.903l-167.218,0c-11.536,0 -20.902,9.366 -20.902,20.903l-0,216.323c-0,11.537 9.366,20.903 20.902,20.903l167.218,-0c11.536,-0 20.902,-9.366 20.902,-20.903l-0,-216.323Z" style="fill:#fff;stroke:#000;stroke-width:4.17px;"/><path d="M434.326,594.128c-0,-8.616 -6.995,-15.611 -15.611,-15.611l-124.883,0c-8.616,0 -15.611,6.995 -15.611,15.611l0,226.907c0,8.616 6.995,15.611 15.611,15.611l124.883,-0c8.616,-0 15.611,-6.995 15.611,-15.611l-0,-226.907Z" style="fill:#fff;stroke:#000;stroke-width:4.17px;"/></g><rect x="235.848" y="718.042" width="34.838" height="84.784" style="fill:#fff;stroke:#000;stroke-width:4.17px;"/><rect x="235.848" y="693.182" width="34.838" height="13.565" style="fill:#fff;stroke:#000;stroke-width:4.17px;"/><g><path d="M567.424,803.993c13.225,-2.409 15.641,-12.739 24.345,-20.948c4.389,-4.151 10.587,4.858 16.696,5.126c13.171,0.635 14.158,-14.442 23.41,-10.959c15.291,5.803 18.572,41.248 12.372,59.821c-4.144,12.374 -8.407,20.539 -20.947,21.617c-5.051,0.452 -22.78,4.376 -34.902,7.196c-56.133,13.112 -120.599,-9.822 -158.153,-50.357c-38.296,-41.304 -45.444,-106.612 -44.67,-158.245c23.097,-13.046 66.768,-8.666 87.707,-5.066c10.831,61.629 -2.333,115.025 11.517,130.201c24.49,29.387 77.66,22.525 82.625,21.614" style="fill:#fff;fill-rule:nonzero;stroke:#000;stroke-width:4.17px;stroke-linecap:butt;stroke-miterlimit:2;"/><path d="M474.216,653.725c-0,0 -80.01,3.29 -89.097,3.927c-2.273,-14.716 7.88,-58.999 48.161,-58.443c39.166,0.549 40.936,54.516 40.936,54.516Z" style="fill:#fff;fill-rule:nonzero;stroke:#000;stroke-width:4.17px;stroke-linecap:butt;stroke-linejoin:miter;stroke-miterlimit:24;"/></g><path d="M430.545,598.521c21.263,5.925 43.372,31.088 37.212,117.37" style="fill:none;stroke:#000;stroke-width:16.67px;"/><path d="M483.751,771.634c-0.821,3.541 -37.454,171.946 -83.551,333.56c-27.903,97.828 -48.227,176.599 -74.447,240.608c-16.078,39.249 -126.156,25.359 -121.86,-16.942c5.62,-55.34 71.697,-268.311 58.236,-325.133c0.183,-56.751 14.576,-176.553 35.209,-206.058c30.302,-43.334 146.971,-68.407 186.413,-26.035Z" style="stroke:#000;stroke-width:4.17px;stroke-linecap:butt;stroke-linejoin:miter;stroke-miterlimit:10;"/><path d="M480.861,753.79c1.594,5.613 48.706,398.708 69.863,580.928c4.891,42.131 -96.943,68.335 -113.624,29.225c-21.823,-51.165 -58.83,-383.425 -95.795,-406.88c-36.201,-22.918 -34.988,-72.418 -33.074,-132.376c31.291,-42.625 117.623,-88.933 172.63,-70.897Z" style="stroke:#000;stroke-width:4.17px;stroke-linecap:butt;stroke-linejoin:miter;stroke-miterlimit:10;"/><path d="M382.149,562.663c-0.977,20.531 -15.343,32.089 -17.08,37.43c5.709,21.533 51.228,33.338 58.115,-3.628c-4.901,-12.072 -13.194,-27.031 -5.529,-39.877c7.617,-12.796 11.807,-5.415 23.371,-14.78c13.261,-10.738 15.9,-25.719 14.113,-46.16c-2.56,-29.188 0.313,-34.003 -15.527,-40.466c-25.788,21.822 -41.877,10.709 -42.863,19.053c-0.522,4.413 -1.621,20.039 -2.699,18.63c-7.342,-9.587 -15.583,-0.476 -16.074,5.502c-0.646,7.871 2.643,13.661 10.89,13.716c1.288,0.008 -4.901,12.416 -6.717,50.58" style="fill:#fff;fill-rule:nonzero;stroke:#000;stroke-width:4.17px;stroke-linecap:butt;stroke-miterlimit:2;"/><path d="M382.149,562.663c-0.977,20.531 -15.343,32.089 -17.08,37.43c5.709,21.533 51.228,33.338 58.115,-3.628c-4.901,-12.072 -13.194,-27.031 -5.529,-39.877c7.617,-12.796 11.807,-5.415 23.371,-14.78c13.261,-10.738 15.9,-25.719 14.113,-46.16c-2.56,-29.188 0.313,-34.003 -15.527,-40.466c-25.788,21.822 -41.877,10.709 -42.863,19.053c-0.522,4.413 -1.621,20.039 -2.699,18.63c-7.342,-9.587 -15.583,-0.476 -16.074,5.502c-0.646,7.871 2.643,13.661 10.89,13.716c1.288,0.008 -4.901,12.416 -6.717,50.58Z" style="fill:none;fill-rule:nonzero;stroke:#000;stroke-width:4.17px;stroke-linecap:butt;stroke-linejoin:miter;stroke-miterlimit:10;"/><path d="M387.143,503.934c0,0 -2.44,-3.1 0.886,-5.455" style="fill:none;fill-rule:nonzero;stroke:#000;stroke-width:4.17px;stroke-linejoin:miter;stroke-miterlimit:24;"/><path d="M419.336,484.885c1.768,-0.995 5.096,-2.27 8.341,-1.611" style="fill-rule:nonzero;stroke:#000;stroke-width:4.17px;stroke-linejoin:miter;stroke-miterlimit:10;"/><path d="M445.719,483.888c-2.075,-0.906 -5.492,-1.537 -8.293,-0.664" style="fill:none;fill-rule:nonzero;stroke:#000;stroke-width:4.17px;stroke-linejoin:miter;stroke-miterlimit:24;"/><path d="M434.497,492.924c-0.233,11.597 9.66,10.918 5.534,15.281c-1.209,1.277 -4.506,0.875 -6.5,0.171" style="fill:none;fill-rule:nonzero;stroke:#000;stroke-width:4.17px;stroke-linejoin:miter;stroke-miterlimit:24;"/><path d="M442.921,494.693c-1.575,0.063 -2.87,-1.187 -2.897,-2.713c-0.064,-1.575 1.188,-2.871 2.717,-2.898c1.575,-0.063 2.87,1.187 2.897,2.713c0.061,1.575 -1.189,2.87 -2.717,2.898" style="fill-rule:nonzero;"/><path d="M434.688,527.617c0,-0 -10.356,0.799 -12.698,-7.913" style="fill:none;fill-rule:nonzero;stroke:#000;stroke-width:4.17px;stroke-linejoin:miter;stroke-miterlimit:24;"/><path d="M483.988,773.349c-24.847,3.69 -187.114,27.527 -186.546,25.227c4.974,-20.15 34.443,-141.18 36.976,-151.316c9.871,-39.488 42.577,-66.751 42.577,-66.751c-0,0 19.896,36.325 47.736,17.084c12.84,13.073 43.133,42.191 48.273,76.945c2.866,19.376 10.482,82.606 10.984,98.811Z" style="fill:#fff;fill-rule:nonzero;stroke:#000;stroke-width:4.17px;stroke-linecap:butt;stroke-linejoin:miter;stroke-miterlimit:24;"/><g><path d="M375.509,852.366c12.373,5.256 20.068,-2.047 31.851,-4.121c5.948,-1.056 6.175,9.877 11.132,13.458c10.655,7.769 19.765,-4.285 25.581,3.709c9.585,13.252 -7.153,44.667 -22.539,56.777c-10.263,8.06 -18.312,12.539 -29.381,6.548c-4.468,-2.398 -21.436,-8.863 -33.114,-13.169c-54.102,-19.894 -95.356,-74.482 -104.454,-128.986c-9.296,-55.554 20.623,-114.043 49.646,-156.755c26.466,1.794 60.544,29.454 76.059,43.969c-24.82,57.44 -65.163,94.815 -61.931,115.105c4.309,38.011 52.501,61.498 57.15,63.465" style="fill:#fff;fill-rule:nonzero;stroke:#000;stroke-width:4.17px;stroke-linecap:butt;stroke-miterlimit:2;"/><path d="M380.22,675.601c-0,0 -68.652,-41.222 -76.595,-45.684c6.189,-13.543 39.007,-44.96 72.355,-22.359c32.419,21.984 4.24,68.043 4.24,68.043Z" style="fill:#fff;fill-rule:nonzero;stroke:#000;stroke-width:4.17px;stroke-linecap:butt;stroke-linejoin:miter;stroke-miterlimit:24;"/></g><path d="M451.063,469.61c0.913,0.118 1.67,-0.596 1.621,-1.517c-0.23,-4.164 -7.192,-16.462 -16.958,-19.651c-8.594,-2.806 -17.023,-0.259 -21.736,1.893c-2.509,1.147 -12.208,6.968 -16.773,18.098c-0.962,2.348 -1.443,4.44 -1.701,5.961c7.031,-2.418 16.174,-4.852 27.033,-6.009c11.345,-1.209 20.958,0.242 28.514,1.225" style="fill:#000;fill-rule:nonzero;stroke:#000;stroke-width:4.17px;stroke-linecap:butt;stroke-miterlimit:2;"/><path d="M451.063,469.61c0.913,0.118 1.67,-0.596 1.621,-1.517c-0.23,-4.164 -7.192,-16.462 -16.958,-19.651c-8.594,-2.806 -17.023,-0.259 -21.736,1.893c-2.509,1.147 -12.208,6.968 -16.773,18.098c-0.962,2.348 -1.443,4.44 -1.701,5.961c7.031,-2.418 16.174,-4.852 27.033,-6.009c11.345,-1.209 20.958,0.242 28.514,1.225Z" style="fill:none;fill-rule:nonzero;stroke:#000;stroke-width:4.17px;stroke-linecap:butt;stroke-linejoin:miter;stroke-miterlimit:24;"/><path d="M390.479,472.625c2.198,-2.18 -0.302,-9.162 -6.152,-11.695c-4.399,-1.903 -7.98,-5.477 -10.032,-7.273c-0.209,1.237 -1.341,8.6 3.559,14.153c3.82,4.331 10.631,6.795 12.625,4.815" style="fill:#000;fill-rule:nonzero;stroke:#000;stroke-width:4.17px;stroke-linecap:butt;stroke-miterlimit:2;"/><path d="M390.479,472.625c2.198,-2.18 -0.302,-9.162 -6.152,-11.695c-4.399,-1.903 -7.98,-5.477 -10.032,-7.273c-0.209,1.237 -1.341,8.6 3.559,14.153c3.82,4.331 10.631,6.795 12.625,4.815Z" style="fill:none;fill-rule:nonzero;stroke:#000;stroke-width:4.17px;stroke-linecap:butt;stroke-linejoin:miter;stroke-miterlimit:24;"/><path d="M389.435,477.329c0.054,-3.094 -6.608,-6.352 -12.571,-4.088c-4.482,1.701 -9.544,1.641 -12.268,1.782c0.711,1.033 5.035,7.095 12.426,7.658c5.759,0.438 12.364,-2.544 12.413,-5.352" style="fill:#000;fill-rule:nonzero;stroke:#000;stroke-width:4.17px;stroke-linecap:butt;stroke-miterlimit:2;"/><path d="M389.435,477.329c0.054,-3.094 -6.608,-6.352 -12.571,-4.088c-4.482,1.701 -9.544,1.641 -12.268,1.782c0.711,1.033 5.035,7.095 12.426,7.658c5.759,0.438 12.364,-2.544 12.413,-5.352Z" style="fill:none;fill-rule:nonzero;stroke:#000;stroke-width:4.17px;stroke-linecap:butt;stroke-linejoin:miter;stroke-miterlimit:24;"/><path d="M388.345,475.553c0.973,1.663 3.11,2.222 4.772,1.249c1.665,-0.973 2.225,-3.108 1.252,-4.771c-0.972,-1.663 -3.107,-2.223 -4.772,-1.249c-1.663,0.972 -2.224,3.108 -1.252,4.771" style="fill:#000;fill-rule:nonzero;stroke:#000;stroke-width:4.17px;stroke-linecap:butt;stroke-miterlimit:2;"/><path d="M388.345,475.553c0.972,1.662 3.11,2.222 4.773,1.25c1.662,-0.973 2.223,-3.111 1.252,-4.772c-0.972,-1.662 -3.111,-2.222 -4.773,-1.25c-1.663,0.973 -2.224,3.111 -1.252,4.772Z" style="fill:none;stroke:#000;stroke-width:4.17px;stroke-linecap:butt;stroke-linejoin:miter;stroke-miterlimit:24;"/><path d="M424.602,495.472c-1.575,0.063 -2.87,-1.187 -2.897,-2.713c-0.063,-1.575 1.188,-2.871 2.718,-2.898c1.574,-0.063 2.869,1.187 2.896,2.713c0.061,1.574 -1.189,2.869 -2.717,2.898" style="fill-rule:nonzero;"/><path d="M556.217,1388.48c12.258,18.761 33.702,22.725 37.818,36.529c4.156,13.886 -14.815,15.063 -24.924,14.706c-33.903,-1.22 -111.965,-3.064 -128.541,-7.144c-15.088,-3.745 -13.994,-96.957 -13.951,-103.36c0.011,-2.117 125.712,2.137 125.725,3.114c0.033,2.397 -2.726,46.055 3.873,56.155" style="fill:#fff;fill-rule:nonzero;stroke:#000;stroke-width:4.17px;stroke-linecap:butt;stroke-miterlimit:2;"/><path d="M321.82,1403.91c9.48,20.307 30.148,27.264 32.269,41.512c2.15,14.334 -16.797,12.816 -26.754,11.032c-33.389,-6.005 -110.405,-18.874 -126.237,-25.258c-14.407,-5.842 -0.136,-97.962 0.813,-104.294c0.31,-2.094 124.144,19.901 124.019,20.87c-0.306,2.377 -9.214,45.206 -4.11,56.138" style="fill:#fff;fill-rule:nonzero;stroke:#000;stroke-width:4.17px;stroke-linecap:butt;stroke-miterlimit:2;"/><path d="M556.217,1388.48c12.258,18.761 33.702,22.725 37.818,36.529c4.156,13.886 -14.815,15.063 -24.924,14.706c-33.903,-1.22 -111.965,-3.064 -128.541,-7.144c-15.088,-3.745 -13.994,-96.957 -13.951,-103.36c0.011,-2.117 125.712,2.137 125.725,3.114c0.033,2.397 -2.726,46.055 3.873,56.155Z" style="fill:none;fill-rule:nonzero;stroke:#000;stroke-width:4.17px;stroke-linecap:butt;stroke-linejoin:miter;stroke-miterlimit:10;"/><path d="M323.386,601.079c-0,0 98.201,-37.565 49.935,116.598" style="fill:none;stroke:#000;stroke-width:16.67px;"/></g></g></g></svg>