<?xml version="1.0" encoding="UTF-8" standalone="no"?><!DOCTYPE svg PUBLIC "-//W3C//DTD SVG 1.1//EN" "http://www.w3.org/Graphics/SVG/1.1/DTD/svg11.dtd"><svg width="100%" height="100%" viewBox="0 0 1667 1667" version="1.1" xmlns="http://www.w3.org/2000/svg" xmlns:xlink="http://www.w3.org/1999/xlink" xml:space="preserve" xmlns:serif="http://www.serif.com/" style="fill-rule:evenodd;clip-rule:evenodd;stroke-linecap:round;stroke-linejoin:round;stroke-miterlimit:1.5;"><rect id="Window" x="0" y="0" width="1666.67" height="1666.67" style="fill:none;"/><g id="Window1" serif:id="Window"><path d="M1411.35,1267.82c-10.33,11.212 -21.636,21.96 -34.029,32.179c-23.971,14.917 -53.926,24.768 -77.584,28.917c-48.385,8.486 -191.417,49.973 -308.359,46.386c-142.007,-4.356 -269.369,-36.305 -326.852,-46.386c-10.388,-1.821 -20.628,-4.605 -30.627,-8.283c-19.209,-10.336 -38.324,-21.357 -57.242,-32.98c-242.996,-149.291 -453.563,-397.901 -414.421,-569.108c59.577,-260.586 411.748,-468.217 699.464,-402.445c287.726,65.782 752.483,186.595 692.906,447.18c-36.653,160.322 -16.802,367.278 -143.256,504.54Z" style="fill:#EF5350;fill-rule:nonzero;"/><path d="M1412.48,1297.9c0,-6.336 -5.144,-11.481 -11.481,-11.481l-207.136,-0c-6.337,-0 -11.481,5.145 -11.481,11.481l-0,22.962c-0,6.337 5.144,11.482 11.481,11.482l207.136,-0c6.337,-0 11.481,-5.145 11.481,-11.482l0,-22.962Z" style="stroke:#000;stroke-width:4.17px;"/><path d="M1393.85,1297.9c-0,-6.336 -5.145,-11.481 -11.481,-11.481l-207.136,-0c-6.337,-0 -11.482,5.145 -11.482,11.481l0,22.962c0,6.337 5.145,11.482 11.482,11.482l207.136,-0c6.336,-0 11.481,-5.145 11.481,-11.482l-0,-22.962Z" style="fill:#fff;stroke:#000;stroke-width:4.17px;"/><g><path d="M1468.59,1035.79c-0,-71.844 -58.328,-130.172 -130.172,-130.172c-71.844,0 -130.172,58.328 -130.172,130.172l0,78.702c0,71.844 58.328,130.172 130.172,130.172c71.844,-0 130.172,-58.328 130.172,-130.172l-0,-78.702Z" style="stroke:#000;stroke-width:4.17px;"/><path d="M1447.75,1035.79c0,-34.299 -11.144,-67.181 -32.857,-90.442c-23.767,-25.463 -59.77,-39.73 -97.314,-39.73c-71.844,0 -130.172,58.328 -130.172,130.172l0,78.702c0,71.844 58.328,130.172 130.172,130.172c71.843,-0 130.171,-58.328 130.171,-130.172l0,-78.702Z" style="fill:#fff;stroke:#000;stroke-width:4.17px;"/><g><path d="M804.48,275.484c-0,-16.47 -13.595,-29.841 -30.341,-29.841l-365.041,-2.663l-211.899,2.663c-16.746,-0 -30.341,13.371 -30.341,29.841l-3.242,248.73l3.242,288.408c-0,16.47 13.595,29.841 30.341,29.841l576.94,0c16.746,0 30.341,-13.371 30.341,-29.841l1.625,-422.69l-1.625,-114.448Z" style="fill:#fff;stroke:#000;stroke-width:4.17px;"/><g><path d="M589.114,591.318c11.15,6.704 52.656,67.609 94.177,60.137c35.526,-6.392 79.682,-14.558 106.939,-30.988c12.202,-7.355 15.362,-43.363 28.934,-49.32c8.601,-3.777 1.232,13.019 7.51,23.452c4.466,7.423 27.168,-34.034 32.434,-28.994c8.892,8.51 -18.215,40.703 -15.952,42.42c2.623,1.99 35.842,-36.43 41.959,-30.192c6.738,6.871 -30.843,37.069 -29.96,42.064c0.713,4.021 35.253,-25.142 38.511,-18.943c4.579,8.71 -30.117,29.929 -30.413,32.204c-0.331,2.539 27.886,-12.646 29.064,-6.784c1.262,6.288 -36.929,31.395 -59.569,33.16c-26.073,2.03 -124.031,58.532 -145.714,65.594c-68.249,22.233 -92.312,-15.398 -154.772,-59.998c-5.898,-26.277 29.533,-60.026 56.852,-73.812Z" style="fill:#fff;fill-rule:nonzero;stroke:#231f20;stroke-width:4.17px;stroke-linecap:butt;stroke-linejoin:miter;stroke-miterlimit:10;"/><path d="M524.438,406.201c-1.205,-32.388 4.332,-43.615 -13.107,-51.645c-30.198,22.721 -62.718,20.948 -65.515,29.779c4.907,12.375 -4.883,68.797 -7.194,91.933c-2.269,22.687 -19.08,34.662 -21.317,40.437c8.109,18.978 54.363,22.876 65.549,-0.776c-4.872,-13.642 -13.326,-30.645 -4.01,-44.391c9.318,-13.745 13.611,-5.368 27.108,-15.05c15.538,-11.147 19.333,-27.553 18.486,-50.287" style="fill:#fff;stroke:#000;stroke-width:4.17px;stroke-linecap:butt;stroke-miterlimit:2;"/><path d="M524.438,406.201c-1.205,-32.388 4.332,-43.615 -13.107,-51.645c-30.198,22.721 -62.718,20.948 -65.515,29.779c4.907,12.375 -4.883,68.797 -7.194,91.933c-2.269,22.687 -19.08,34.662 -21.317,40.437c8.109,18.978 54.363,22.876 65.549,-0.776c-4.872,-13.642 -13.326,-30.645 -4.01,-44.391c9.318,-13.745 13.611,-5.368 27.108,-15.05c15.538,-11.147 19.333,-27.553 18.486,-50.287Z" style="fill:none;fill-rule:nonzero;stroke:#000;stroke-width:4.17px;stroke-linecap:butt;stroke-linejoin:miter;stroke-miterlimit:100;"/><path d="M489.745,394.054c-1.582,0 -2.86,1.257 -2.86,2.813c0,1.556 1.278,2.813 2.86,2.813c1.582,0 2.86,-1.257 2.86,-2.813c0,-1.556 -1.278,-2.813 -2.86,-2.813"/><path d="M511.799,394.524c-1.583,-0 -2.861,1.257 -2.861,2.813c0,1.554 1.278,2.813 2.861,2.813c1.582,-0 2.86,-1.259 2.86,-2.813c-0,-1.556 -1.278,-2.813 -2.86,-2.813"/><path d="M502.048,399.678c-0.36,2.094 -0.457,4.898 0.965,7.471c1.748,3.162 3.91,3.833 4.582,5.692c0.172,0.475 0.06,1.448 -0.569,2.281c-1.246,1.648 -3.536,2.626 -6.304,2.224" style="fill:none;fill-rule:nonzero;stroke:#000;stroke-width:4.17px;stroke-linejoin:miter;stroke-miterlimit:10;"/><path d="M507.352,385.009c2.834,-3.575 7.796,-4.01 10.519,1.972" style="fill:none;fill-rule:nonzero;stroke:#000;stroke-width:4.17px;stroke-linejoin:miter;stroke-miterlimit:10;"/><path d="M508.758,434.33c1.029,-6.803 -16.448,-5.973 -15.853,-0.383c0.73,6.854 15.023,5.873 15.853,0.383Z" style="fill:none;fill-rule:nonzero;stroke:#000;stroke-width:4.17px;stroke-linejoin:miter;stroke-miterlimit:10;"/><path d="M492.21,386.999c-3.597,-3.212 -8.357,-2.149 -10.429,2.387" style="fill:none;fill-rule:nonzero;stroke:#000;stroke-width:4.17px;stroke-linejoin:miter;stroke-miterlimit:10;"/><path d="M201.031,497.029c5.414,13.346 21.363,5.775 41.039,15.06c15.938,7.52 19.568,20.285 30.705,17.479c43.626,-10.994 -0.388,-90.456 48.52,-128.078c30.137,-23.186 74.457,-12.273 90.128,-29.544c3.242,-0.267 5.403,0.796 6.214,3.453c1.622,1.329 -7.252,22.344 -3.847,37.04c4.021,17.353 13.574,20.89 27.352,27.003c8.646,-9.036 18.345,-21.338 18.615,-29.309c-8.646,1.594 -13.079,-8.836 -10.75,-15.382c2.767,-7.778 14.732,-9.065 18.245,-6.408c2.97,-2.923 10.096,-11.349 21.443,-16.93c15.141,-7.444 28.774,-4.651 31.883,-10.098c-24.587,-36.936 -92.403,-13.019 -96.996,1.861c-2.972,1.328 -6.215,0.532 -7.566,-2.127c-1.892,-4.516 2.829,-22.015 -5.523,-36.677c-17.303,-30.383 -36.018,-39.716 -70.656,-36.053c-23.112,2.444 -31.368,8.449 -51.634,23.705c-28.292,21.296 -112.763,121.92 -87.172,185.005" style="stroke:#000;stroke-width:4.17px;stroke-linecap:butt;stroke-linejoin:miter;stroke-miterlimit:10;"/><path d="M462.27,396.528c-2.996,0.641 -3.517,1.538 -4.168,4.356" style="fill:#fff;stroke:#000;stroke-width:4.17px;stroke-linejoin:miter;stroke-miterlimit:100;"/><path d="M312.682,712.501c49.432,-1.9 142.373,2.377 233.558,-1.1c0.1,-0.004 0.2,-0.008 0.3,-0.012c5.051,20.22 41.255,63.423 64.095,117.615c1.857,4.406 3.707,8.894 5.545,13.459l-148.622,0c-0.74,-1.784 -1.35,-2.944 -1.809,-3.395c-0.342,-0.337 -0.382,0.876 -0.178,3.395l-173.123,0c-3.563,-33.231 -1.144,-72.836 15.152,-129.736c1.638,-0.083 3.333,-0.158 5.082,-0.226Z" style="stroke:#000;stroke-width:4.17px;stroke-linecap:butt;stroke-miterlimit:2;"/><path d="M590.026,589.024c-0,-0 -6.928,-50.229 -28.387,-66.929c-23.664,-18.419 -36.403,-17.088 -81.079,-13.835c-13.958,34.229 -64.237,13.589 -58.115,0.259c-51.296,-11.392 -105.578,12.519 -114.701,33.455c-3.801,7.106 7.084,73.032 8.792,136.083c-2.636,20.825 -7.267,28.597 -8.746,33.628c70.324,12.205 174.05,9.075 238.466,0.057c-0.461,-9.999 -3.078,-70.681 -0.295,-84.747c14.893,-4.07 44.99,-34.49 44.065,-37.971Z" style="fill:#fff;stroke:#000;stroke-width:4.17px;stroke-linecap:butt;stroke-miterlimit:2;"/><g><g><path d="M454.871,380.996c-0.482,-1.181 -1.826,-1.736 -3.001,-1.239l-38.302,16.235c-1.175,0.498 -1.737,1.861 -1.255,3.042l30.601,75.042c0.482,1.181 1.826,1.736 3.001,1.238l38.302,-16.235c1.175,-0.497 1.737,-1.861 1.255,-3.042l-30.601,-75.041Z" style="stroke:#000;stroke-width:4.17px;"/><path d="M448.69,383.373c-0.481,-1.182 -1.826,-1.736 -3,-1.239l-38.303,16.235c-1.174,0.498 -1.737,1.861 -1.255,3.042l30.601,75.042c0.482,1.181 1.826,1.736 3.001,1.238l38.302,-16.235c1.175,-0.498 1.737,-1.861 1.256,-3.042l-30.602,-75.041Z" style="fill:#fff;stroke:#000;stroke-width:4.17px;"/></g><path d="M470.22,435.169c-2.107,9.967 6.412,133.419 4.99,177.747c-0.82,25.568 6.117,67.268 -25.644,70.518c-105.798,-6.726 -142.3,-61.304 -141.837,-67.71c0.705,-9.771 20.412,-76.432 30.973,-79.377c5.418,-1.51 35.499,25.575 68.093,45.497c6.778,-19.349 19.642,-124.582 15.488,-131.104c-3.16,-4.962 -8.798,-7.994 -10.991,-13.576c-1.427,-3.631 -5.799,-11.476 -2.401,-15.314c3.645,-4.117 3.719,7.23 7.825,3.593c1.793,-1.588 1.398,-4.07 1.165,-6.148c-0.031,-0.273 -0.418,-3.444 -0.169,-3.476c-1.397,-6.492 -3.076,-16.757 1.368,-19.697c3.681,-2.435 4.352,4.404 5.092,6.483c1.737,4.88 2.94,9.273 3.791,11.481c0.871,2.257 3.442,9.559 5.166,6.552c1.607,-2.803 2.144,-7.841 2.257,-9.749c0.555,-9.329 0.582,-11.193 2.007,-20.409c0.399,-2.579 1.713,-7.764 4.771,-8.695c4.894,-1.491 5.022,6.033 5.027,9.369c0.014,8.649 -1.644,15.315 -2.195,23.935c-0.084,1.309 -1.586,7.317 -0.062,8.331c2.506,1.668 6.028,-9.064 6.404,-10.3c1.218,-4 3.021,-8.581 4.398,-15.164c0.438,-2.094 2.101,-6.001 4.795,-5.997c2.255,0.003 2.362,8.162 2.353,9.519c-0.045,7.041 -1.93,14.059 -3.55,20.885c-0.397,1.672 -2.276,6.537 -1.09,8.165c1.328,1.822 3.652,-1.486 4.211,-2.258c1.299,-1.793 5.072,-13.246 8.815,-11.164c4.849,2.697 -0.163,13.869 -1.05,18.063Z" style="fill:#fff;stroke:#000;stroke-width:4.17px;"/></g><path d="M544.59,646.326l0.846,-22.688" style="fill:none;fill-rule:nonzero;stroke:#000;stroke-width:4.17px;stroke-linejoin:miter;stroke-miterlimit:100;"/><path d="M377.726,556.114c-2.457,-2.2 -24.079,-21.592 -31.925,-24.337c-31.755,-11.106 -70.607,24.666 -58.386,59.86c3.472,9.997 24.573,37.149 26.697,36.238c3.591,-1.54 73.244,-63.137 63.614,-71.761Z" style="fill:#fff;stroke:#000;stroke-width:4.17px;"/></g></g><g><path d="M1191.14,770.865c22.639,-12.207 61.858,-6.542 81.936,19.287c13.337,17.126 5.558,48.428 9.148,56.591c4.827,10.878 20.87,28.15 32.185,41.341c-30.117,25.636 -119.133,24.353 -165.986,6.496c6.696,-10.432 13.391,-25.152 13.391,-40.157c0,-20.079 -14.521,-35.676 -7.825,-54.624c3.59,-10.186 12.745,-28.934 37.151,-28.934Z" style="fill-rule:nonzero;stroke:#000;stroke-width:4.17px;stroke-linejoin:miter;stroke-miterlimit:24;"/><path d="M1261.4,903.628c2.36,24.084 19.932,36.836 22.292,43.009c-5.45,25.659 -80.467,33.247 -68.56,-0.846c5.058,-14.482 13.929,-32.562 4.159,-47.213c-9.717,-14.598 -14.206,-5.673 -28.358,-16.005c-16.227,-11.845 -20.209,-29.31 -19.31,-53.455c1.292,-34.469 -2.375,-39.965 15.874,-48.498c31.609,24.145 50.419,15.467 52.064,25.222c0.877,5.158 2.545,18.133 3.736,16.411c8.064,-11.707 18.295,-1.483 19.225,5.52c1.223,9.216 -2.306,16.219 -11.999,16.773c-1.514,0.084 6.495,14.313 10.877,59.082" style="fill:#fff;fill-rule:nonzero;stroke:#000;stroke-width:4.17px;stroke-miterlimit:2;"/><path d="M1251.33,833.747c0,-0 3.152,-3.275 -0.154,-4.789" style="fill:none;fill-rule:nonzero;stroke:#000;stroke-width:4.17px;stroke-linejoin:miter;stroke-miterlimit:10;"/><path d="M1214.15,809.156c-0.368,-0.257 -4.583,-3.666 -9.865,-1.376" style="fill:none;fill-rule:nonzero;stroke:#000;stroke-width:4.17px;stroke-linejoin:miter;stroke-miterlimit:10;"/><path d="M1181.56,810.747c1.788,-1.404 5.807,-4.574 10.32,-2.359" style="fill:none;fill-rule:nonzero;stroke:#000;stroke-width:4.17px;stroke-linejoin:miter;stroke-miterlimit:10;"/><path d="M1198.77,839.552c-4.028,1.884 -7.656,1.146 -8.463,-0.738c-1.976,-4.612 7.349,-3.759 6.703,-16.488" style="fill:none;fill-rule:nonzero;stroke:#000;stroke-width:4.17px;stroke-linejoin:miter;stroke-miterlimit:10;"/><path d="M1213.1,853.603c-5.174,0.076 -10.347,0.153 -15.528,0.23c-0.746,6.35 4.005,11.1 8.018,11c3.982,-0.1 8.455,-4.981 7.51,-11.23Z" style="fill:none;fill-rule:nonzero;stroke:#000;stroke-width:4.17px;stroke-linejoin:miter;stroke-miterlimit:10;"/><path d="M1186.37,821.013c1.754,-0.146 3.33,1.181 3.483,3.019c0.153,1.831 -1.182,3.408 -2.936,3.554c-1.831,0.152 -3.408,-1.182 -3.56,-3.013c-0.153,-1.839 1.182,-3.408 3.013,-3.56m-0,0c1.754,-0.146 3.33,1.181 3.483,3.019c0.153,1.831 -1.182,3.408 -2.936,3.554c-1.831,0.152 -3.408,-1.182 -3.56,-3.013c-0.153,-1.839 1.182,-3.408 3.013,-3.56" style="fill-rule:nonzero;"/><path d="M1206.66,819.66c1.755,-0.146 3.331,1.181 3.484,3.02c0.152,1.83 -1.182,3.407 -2.937,3.553c-1.83,0.152 -3.407,-1.182 -3.559,-3.013c-0.153,-1.838 1.182,-3.407 3.012,-3.56m0,0c1.755,-0.146 3.331,1.181 3.484,3.02c0.152,1.83 -1.182,3.407 -2.937,3.553c-1.83,0.152 -3.407,-1.182 -3.559,-3.013c-0.153,-1.838 1.182,-3.407 3.012,-3.56" style="fill-rule:nonzero;"/></g><g><path d="M1152.4,980.49c-7.796,5.643 -13.839,14.091 -19.645,21.632c-9.719,12.623 -18.794,25.763 -28.901,38.085c-1.148,1.401 -2.319,2.783 -3.51,4.148c-1.096,1.257 -2.211,2.499 -3.352,3.716c-2.667,2.845 -9.547,11.198 -14.718,9.062c-22.669,-9.371 -41.475,-25.138 -59.351,-41.584c-10.25,-9.43 -20.829,-18.612 -29.688,-29.412c-7.581,-9.241 -6.997,-25.223 -9.372,-36.07c-0.827,-3.777 -2.377,-12.97 -7.149,-14.55c-5.31,-1.754 -4.318,3.974 -4.149,7.513c0.367,7.644 0.171,15.539 -3.148,22.596c-1.822,3.881 -5.598,-2.739 -6.408,-4.09c-4.952,-8.257 -8.632,-17.195 -14.146,-25.131c-1.573,-2.265 -3.378,-4.662 -5.638,-6.29c-0.727,-0.523 -2.104,-1.366 -2.839,-0.382c-1.86,2.492 -1.285,6.217 -0.724,9.01c1.46,7.266 4.43,14.315 7.16,21.162c0.963,2.416 1.949,4.823 2.925,7.234c0.417,1.03 0.833,2.061 1.246,3.094c0.336,0.841 2.979,5.763 1.972,6.979c-0.515,0.621 -1.881,-1.185 -2.102,-1.444c-1.893,-2.22 -3.503,-4.695 -5.142,-7.103c-1.647,-2.419 -3.282,-4.846 -4.969,-7.237c-1.35,-1.916 -2.73,-3.811 -4.17,-5.66c-0.938,-1.205 -1.903,-2.397 -2.9,-3.553c-0.714,-0.829 -1.442,-1.639 -2.195,-2.43c-1.998,-2.101 -10.089,-10.572 -13.202,-5.69c-2.731,4.281 1.325,10.65 3.385,14.246c4.666,8.15 10.223,15.775 15.408,23.594c1.446,2.179 5.35,6.557 5.189,9.6c-0.092,1.725 -4.993,-2.213 -5.097,-2.292c-0.347,-0.264 -0.692,-0.53 -1.035,-0.798c-1.582,-1.235 -3.133,-2.508 -4.701,-3.76c-1.34,-1.07 -2.557,-2.043 -3.899,-3.061c-0.871,-0.661 -1.763,-1.321 -2.659,-1.95c-1.811,-1.271 -10.907,-7.952 -12.667,-2.992c-2.588,7.296 7.852,14.346 12.358,18.098c1.406,1.17 2.815,2.339 4.213,3.519c1.774,1.498 3.535,3.012 5.267,4.558c1.68,1.499 6.869,4.939 7.403,7.533c0.152,0.736 -5.276,-2.107 -5.521,-2.238c-1.542,-0.82 -2.808,-1.5 -4.385,-2.267c-1.202,-0.585 -2.355,-1.12 -3.575,-1.632c-0.79,-0.332 -1.589,-0.648 -2.395,-0.938c-1.3,-0.47 -9.626,-3.611 -10.232,-0.13c-0.281,1.617 2.089,3.179 3.09,3.958c4.21,3.277 8.793,6.098 13.134,9.193c17.107,12.198 32.657,26.879 50.867,37.476c6.629,3.859 12.523,8.892 18.764,13.32c14.319,10.162 28.603,20.269 42.736,30.707c9.971,7.364 21.661,17.549 34.118,20.448c12.933,3.012 26.854,4.849 39.905,1.448c19.382,-5.051 31.602,-21.888 42.958,-37.134c12.615,-16.937 25.542,-33.554 40.938,-48.082c2.603,-29.242 -25.705,-45.476 -49.452,-54.029Z" style="fill:#fff;fill-rule:nonzero;stroke:#000;stroke-width:4.17px;stroke-linecap:butt;stroke-linejoin:miter;stroke-miterlimit:10;"/></g><path d="M1278.91,939.767c-9.801,29.829 -73.141,25.28 -63.452,3.672c5.867,-13.084 -66.44,6.628 -67.836,37.005c-0.588,12.801 4.709,119.232 6.236,134.971c73.174,4.641 182.75,17.865 230.856,19.735c0.74,-54.072 -9.787,-98.417 -16.399,-123.035c-4.661,-17.36 -32.084,-77.466 -89.405,-72.348Z" style="fill:#fff;fill-rule:nonzero;stroke:#000;stroke-width:4.17px;stroke-linecap:butt;stroke-linejoin:miter;stroke-miterlimit:10;"/><path d="M956.011,1373.66c-80.649,-5.004 -154.824,-17.882 -211.776,-29.008c0.783,-2.554 1.938,-5.086 3.49,-7.577c48.031,-77.141 105.492,-158.341 149.894,-188.01c3.949,-2.639 7.795,-4.87 11.521,-6.654c88.611,-42.436 138.492,-26.447 246.394,-29.111c105.089,0.989 175.546,8.186 228.535,20.918c0.857,4.694 1.781,9.664 2.692,14.847c6.632,37.743 12.569,86.728 -12.808,121.87c-39.517,54.569 -127.737,38.877 -168.289,32.709c-2.565,6.998 -3.583,30.076 -4.516,46.904c-57.21,12.146 -127.707,24.608 -192.294,24.97c-1.399,-19.226 2.028,-61.615 0.883,-66.002c-8.126,0.951 -35.461,43.546 -53.726,64.144Z" style="fill-rule:nonzero;stroke:#000;stroke-width:4.17px;stroke-linecap:butt;stroke-linejoin:miter;stroke-miterlimit:10;"/><g><path d="M1367.17,984.77c-0.127,-0.711 -0.255,-1.133 -0.383,-1.137c-3.453,-0.524 -10.126,0.012 -11.063,0.044c-14.329,0.493 -29.616,1.452 -43.342,5.903c-24.608,7.981 -26.863,10.414 -29.959,29.159c-2.468,14.946 11.428,38.469 -0.051,45.751c-32.537,20.64 -109.656,23.176 -148.669,30.913c-17.686,3.508 -35.56,7.212 -52.611,13.175c-6.666,2.331 -15.652,5.123 -20.142,11.023c-2.805,3.686 -0.729,6.392 3.714,6.107c5.811,-0.373 11.615,-2.573 17.023,-4.58c1.783,-0.662 3.553,-1.357 5.314,-2.076c1.038,-0.424 4.186,-1.579 3.099,-1.306c-10.097,2.536 -20.323,7.412 -29.587,12.016c-0.699,0.347 -9.799,4.807 -7.513,6.197c4,2.433 10.744,-0.215 14.66,-1.55c9.382,-3.201 18.029,-8.098 27.267,-11.638c3.692,-1.415 8.741,-1.542 12.094,-3.316c1.517,-0.802 -3.406,0.508 -5.047,1.01c-2.868,0.878 -5.697,1.889 -8.501,2.954c-8.604,3.271 -17.538,6.94 -25.054,12.341c-2.087,1.499 -6.425,4.543 -5.425,7.708c1.414,4.48 9.785,1.255 12.493,0.327c9.659,-3.31 18.262,-8.936 27.847,-12.35c2.446,-0.871 8.368,-1.756 10.05,-3.93c0.511,-0.659 -3.549,0.208 -3.605,0.226c-2.692,0.884 -5.307,2.022 -7.88,3.202c-5.426,2.488 -21.021,8.346 -21.894,15.508c-0.559,4.585 16.711,0.259 18.773,-0.106c21.175,-3.752 41.999,-8.007 63.449,-9.861c72.759,-6.291 164.639,24.768 205.78,-45.606c10.08,-17.242 2.014,-69.906 0.512,-89.446c-0.068,-0.891 -0.677,-12.878 -1.349,-16.662" style="fill:#fff;fill-rule:nonzero;stroke:#000;stroke-width:4.17px;stroke-linecap:butt;stroke-linejoin:miter;stroke-miterlimit:10;"/><path d="M1282.26,1019.21c-0,0 89.054,-20.261 88.134,-25.396c-3.198,-16.998 -21.732,-62.613 -63.79,-52.503c-45.693,10.983 -24.344,77.899 -24.344,77.899Z" style="fill:#fff;fill-rule:nonzero;stroke:#000;stroke-width:4.17px;stroke-linecap:butt;stroke-linejoin:miter;stroke-miterlimit:10;"/></g><path d="M1153.65,1128.07l-300.089,0l0,29.174l300.089,-0c23.503,-0 23.503,-29.174 0,-29.174Z" style="fill:#fff;stroke:#000;stroke-width:4.17px;"/><g><g><path d="M1004.04,751.913l-404.029,-0l13.883,284.405c0,-0 345.947,3.021 423.314,-1.734c2.666,-0.164 -33.168,-282.671 -33.168,-282.671Z" style="stroke:#000;stroke-width:4.17px;"/><path d="M983.159,751.913c-0,-0 -125.102,-3.841 -245.852,-3.735c-55.795,0.049 -141.463,2.357 -158.177,3.735c-7.337,0.605 4.495,59.997 4.495,59.997l22.802,158.327l5.871,64.347l404.029,-0l-33.168,-282.671Z" style="fill:#fff;stroke:#000;stroke-width:4.17px;"/><path d="M853.495,803.312c-0.72,-5.975 -6.154,-10.826 -12.129,-10.826l-151.138,-0c-5.975,-0 -10.242,4.851 -9.523,10.826l2.606,21.652c0.719,5.974 6.154,10.825 12.129,10.825l151.137,0c5.975,0 10.242,-4.851 9.523,-10.825l-2.605,-21.652Z" style="fill:#fff;stroke:#000;stroke-width:4.17px;"/></g><path d="M842.4,919.189c-35.094,-32.639 -70.189,-31.45 -105.283,0l-0,216.299l105.283,-0l0,-216.299Z" style="fill:#fff;stroke:#000;stroke-width:4.17px;"/><path d="M892.53,1124.58c0,-6.097 -4.95,-11.048 -11.048,-11.048l-184.091,0c-6.098,0 -11.048,4.951 -11.048,11.048l-0,22.096c-0,6.098 4.95,11.048 11.048,11.048l184.091,0c6.098,0 11.048,-4.95 11.048,-11.048l0,-22.096Z" style="stroke:#000;stroke-width:4.17px;"/></g><circle cx="1253.29" cy="832.067" r="14.871" style="fill:#fff;stroke:#000;stroke-width:4.17px;"/><path d="M1184.23,768.398c25.891,-15.508 49.566,-5.655 61.45,10.131c14.858,19.736 12.185,49.595 12.185,49.595c-0.169,1.716 -1.699,2.974 -3.415,2.805c-1.717,-0.168 -2.974,-1.698 -2.806,-3.414c0,-0 2.763,-27.342 -10.923,-45.182c-8.462,-11.031 -24.509,-21.343 -48.459,-11" style="fill:#fff;stroke:#000;stroke-width:4.17px;stroke-miterlimit:2;"/><path d="M1254.73,838.936c0.425,22.997 -10.66,34.783 -52.668,34.528" style="fill:none;stroke:#000;stroke-width:4.17px;"/><path d="M1211.93,870.941c0,-0.944 -0.766,-1.71 -1.71,-1.71l-10.771,-0c-0.944,-0 -1.711,0.766 -1.711,1.71l0,3.421c0,0.944 0.767,1.71 1.711,1.71l10.771,0c0.944,0 1.71,-0.766 1.71,-1.71l0,-3.421Z" style="stroke:#000;stroke-width:4.17px;"/><path d="M1489.43,1186.34l-1087.01,0c-12.5,-22.346 -20.286,-37.282 -20.286,-37.282l1122.99,-0c-0,-0 -1.526,14.507 -15.69,37.282Z" style="stroke:#000;stroke-width:4.17px;"/></g></g><g id="Layer-1" serif:id="Layer 1"></g></svg>