<?xml version="1.0" encoding="UTF-8"?><svg id="Layer_1" xmlns="http://www.w3.org/2000/svg" viewBox="0 0 800 800"><defs><style>.cls-1{stroke-miterlimit:100;}.cls-1,.cls-2,.cls-3,.cls-4,.cls-5{fill:#fff;}.cls-1,.cls-3,.cls-4,.cls-6,.cls-7,.cls-8,.cls-5,.cls-9{stroke:#000;stroke-width:2px;}.cls-10{fill:#4D8AE5;}.cls-3,.cls-6,.cls-7,.cls-9{stroke-miterlimit:10;}.cls-4{stroke-linejoin:round;}.cls-4,.cls-6{stroke-linecap:round;}.cls-6,.cls-7{fill:none;}.cls-8,.cls-5{stroke-miterlimit:24;}</style></defs><path id="background_shape" class="cls-10" d="M151.3,409.98c31.8,80.46,38.8,164.32,163.05,160.58,124.24-3.73,342.48-78.78,339.94-163.2-2.54-84.42-72.15-135.3-187.65-169.21-135.07-39.65-359.25,60.75-315.34,171.83Z"/><g><path class="cls-3" d="M418.89,365.11c26.71,2.46,55.87,3.54,80.99-6.42,9.85-3.96,43.28-19.97,52.93-14.94,4.25,1.54,8.62,2.89,11.31,1.55,3.39-1.7-3.82-3.64-5.49-8.21-.3-.81,.62-1.18,2.18-1.34,3.75-.96,12.35,1.24,14.81-1.8-.38-2.44-4.72-3.26-8.96-3.89-23.03-2.21,10.27-2.02,10.75-7.3-1.96-3.71-15.96,1.06-20.01-.66-.68-1.19,15.8-4.92,14.22-7.34-2.4-3.19-12.84,1.54-16.56,1.6-.43-.27,2.03-1.57,4.39-3.02,8.36-5.45,1.27-5.36-6.2-2.3-7.37,2.45-11.02,6.22-16.65,10.29-7.39,4.42-14.43,5.62-23.02,7.74-15.53,3.21-28.75,4.44-44.41,4.25-15.5-.95-31.11-2.98-46.7-4.22-8.74,7.55-7.85,25.93-3.58,36.03Z"/><g><path class="cls-3" d="M355.1,269.77c7.97-2.22,13.8-5.84,20.43-14.43,7.13,2.3,6.14,7.76,9.35,22.24,2.23,10.19,2.15,17.85-2.74,23.86-4.22,5.22-5.27,2.3-8.86,8.48-3.59,6.17-.6,13.91,1.06,20.16-4.51,10.63-21.79,8.22-24.58-.32,4.94-7.19,11.63-28.41,10.31-40.31-6.69,2.07-9-16.36-4.97-19.68Z"/><path class="cls-6" d="M358.39,280.41s-1.02-.98-.18-1.84"/><path class="cls-6" d="M369.86,273.39c.41-.86,1.67-2.5,3.53-1.53"/><path class="cls-6" d="M380.3,270.86c-.74-.57-2.91-1.32-3.82,.31"/><path class="cls-6" d="M376.52,276.07c.85,5.77,4.69,5.32,3.52,7.26-.41,.7-1.55,1-2.34,.57"/><path d="M380.52,274.31c-.34-1.91-2.85-1.46-2.45,.47,.34,1.95,2.85,1.45,2.45-.47Zm0,0c-.34-1.91-2.85-1.46-2.45,.47,.34,1.95,2.85,1.45,2.45-.47Z"/><path d="M373.68,275.86c-.34-1.91-2.84-1.46-2.45,.47,.34,1.94,2.85,1.44,2.45-.47Zm0,0c-.34-1.91-2.84-1.46-2.45,.47,.34,1.94,2.85,1.44,2.45-.47Z"/><path class="cls-6" d="M380.05,291.12s-3.5,2.77-6.68,.55"/><path class="cls-9" d="M357.44,259.38c1.22-13.01,30.5-15.61,27.82-1.09-1.01,7-18.13,8.88-21.09,8.5-3.25-.42-4.72,2.3-3.11,4.24,1.1,1.4,1.56,2.35,1.86,4.6,.09,.07-1.37,1.92-1.37,1.92-2.54-7.28-10.81-2.56-6.08,4.81,1.51,2.13,4.28,4.24,7.09,2.42,1.89,4.93-2.65,11.87-2.65,11.87-5.85-7.61-19.77-30.86-2.47-37.27Z"/></g><path class="cls-5" d="M354.5,318.8c2.06,7.93,16.05,9.6,18.84,1.02,21.32-12.07,31.24,2.49,51.41,9.31,1.42,7.99,2,24.69,.64,37.21-12.61-.82-20.33-1.95-27.26,1.89,.21,5.83,1.57,38.44,2.72,44.84-22.78,1.07-50.36-.41-73.73,1.28,1.62-7.3,1.19-36.16,1.04-43.1-5-.85-17.55-12.57-17.61-13.14-1.64-14.89,23.23-44.96,43.95-39.3Z"/><path class="cls-3" d="M459.51,658.67c4.66,7.78,13.96,8.65,17.36,16.03,2.36,6.43-5.56,7.95-9.82,8.3-14.31,1.14-47.18,4.42-54.34,3.27-6.67-.98-9.8-48.27-9.87-51.44,14.16-2.2,38.22-3.29,53.08-3.74,.09,1.2,.41,22.95,3.6,27.58Z"/><g><path class="cls-3" d="M298.74,666.17c.46,6.51,4.6,11.37,7.34,16.68,4.22,9.27-5.05,9.13-10.94,6.48-12.99-4.99-41.15-13.6-50.97-19.13-5.01-13.28,16.17-48.29,19.37-54.75,4.82,1.5,37.68,19.93,46.52,25.85-2.02,3.28-11.53,18.61-11.31,24.85Z"/><path class="cls-9" d="M453.76,503.58c-2.57-16.05-8.87-32.05-15.23-46.59-10.25-24.43-34.09-52.48-38.44-77.64-3.76,1.23-64.75,7.64-70.25,12.55s-9.03,18.41-7.39,44.3c1.53,26.93,4.64,54.49-1.71,80.78-11.1,36.84-36.7,66.09-57.39,98.77,15.69,8.48,31.32,17.06,46.88,25.74,29.07-41.28,65.03-82.78,70.56-135.15,1.31-15.21,.38-30.27-1.11-45.23,6.78,17.09,13.45,34.35,17.82,52.01,7.23,39.74,4.84,81.36,5.34,122.03l53.32-4.01c.87-42.03,4.18-85.36-2.4-127.55Z"/></g><path class="cls-8" d="M432.58,413.07c-3.95,0-8.3-1.94-11.21-6.26-3.02-4.48-3.56-9.83-3.99-14.12-1.06-10.51-23.37-219.66-22.37-235.39,.18-2.83,1.38-4.82,2.7-4.43,1.31,.39,2.23,3,2.05,5.83-1,15.75,24.39,222.65,25.46,233.19,.36,3.6,.78,7.67,2.69,10.51,1.34,1.99,4.2,3.49,6.01,2.52,1.92-1.03,4.3-.31,5.33,1.61,1.03,1.92,.3,4.3-1.61,5.33-1.47,.79-3.21,1.2-5.05,1.2Z"/><path class="cls-4" d="M430.55,383.29c-1.33-2.63-6.95-3.4-9.06-1.76-1.55,1.57-4.1-1.26-4.49-2.03-1.32-1.53-6.77-3.71-9.26,1.87-2.97,1.9-22.58,3.91-28.49,3.76-11.34-.89-53.33-10-50.99-11.67,5.51-3.94-11.38-34.74-15.69-26.56-8.45,13.72-11.02,28.95-7.73,43.27,9.3,28.2,78.81,19.66,104.46,16.1,16.31-3.53,30.94-3.9,21.24-22.97Z"/><g><path class="cls-1" d="M376.63,168.42c-20.24,7.69-42.65,15.65-59.94,28.22-17.3,12.56-63.12,40.13-78.58,54.79-1.56,1.47-3.22,3.77-2,5.52,4.12-.24,7.85-2.75,11.96-2.98,4.21-.24,39.33-9.99,43.53-9.57,5.31,.53,10.02-2.17,15.05-2.85,5.87-.79,12.21-.6,18.15-.83,10.73-.41,23.62,1.97,34.05,.08,13.13-2.38,66.97-7.39,80.31-7.47,11.43-2.79,23.53-3.72,34.74-7.14,10.03-3.06,20.55-2.38,30.8-5,3.47-.88,6.9-2.06,10.47-2.31,4.3-.31,38.73,2.91,42.98,2.25,1.07-.17,2.4-.86,2.14-1.91-.12-.47-.53-.79-.92-1.07-34.96-25.37-103.42-47.88-146.45-54.86-5.21-.85-10.51-1.51-15.76-.98-5.78,.58-11.31,2.58-16.73,4.67-1.26,.48-2.53,.97-3.8,1.45Z"/><path class="cls-7" d="M380.43,166.97c-31.13,16.16-60.97,44.82-78.31,75.31"/><path class="cls-7" d="M397.4,162.74l2.02,73.17"/><path class="cls-7" d="M412.92,163.28c13.2,7.5,27.16,16.15,40.35,23.65,7.96,4.52,15.98,9.09,22.9,15.09,6.92,6,12.73,13.62,15.1,22.47"/></g></g><path d="M241.26,108.97c.59,5.4,.83,10.82,.97,16.24,.02,5.46,.57,10.88-.97,16.24-.26,.98-1.75,.97-2,0-.8-2.71-1.02-5.41-1.06-8.12,0-5.42,.1-10.83,.41-16.24,.14-2.71,.35-5.41,.65-8.12,.12-1.17,1.88-1.17,2,0h0Z"/><path d="M591.9,114.37c.59,5.4,.83,10.82,.97,16.24,.02,5.46,.57,10.88-.97,16.24-.26,.98-1.75,.97-2,0-.8-2.71-1.02-5.41-1.06-8.12,0-5.42,.1-10.83,.41-16.24,.14-2.71,.35-5.41,.65-8.12,.12-1.17,1.88-1.17,2,0h0Z"/><g><path class="cls-2" d="M613.1,167.18c0,10.83-.62,28.17-.62,39"/><path d="M614.1,167.18c.58,6.51,.66,13.03,.66,19.54-.12,6.53,.27,13.02-1.27,19.46-.23,1.03-1.77,1.03-2,0-.8-3.26-.95-6.53-.95-9.79,.12-6.51,.39-13,.82-19.49,.2-3.24,.45-6.48,.76-9.72,.12-1.19,1.88-1.2,2,0h0Z"/></g><g><path class="cls-2" d="M392.08,90.76c0,10.83,1.03,32.68,1.03,43.5"/><path d="M393.08,90.76c.93,10.83,1.6,21.7,1.9,32.57,.03,3.63-.07,7.28-.87,10.93-.21,1.05-1.78,1.06-2,0-.81-3.61-1.09-7.21-1.25-10.83-.19-7.25-.35-14.5-.24-21.76,.05-3.63,.17-7.27,.46-10.92,.1-1.2,1.9-1.22,2,0h0Z"/></g><g><path class="cls-2" d="M453.02,104.91c0,10.83-.58,29.32-.58,40.14"/><path d="M454.02,104.91c.49,6.68,.64,13.37,.68,20.07-.07,6.74,.37,13.45-1.26,20.1-.24,1.03-1.78,1.01-1.99-.03-1.44-6.66-.8-13.35-.68-20.07,.23-6.7,.57-13.39,1.25-20.07,.1-1.21,1.9-1.22,2,0h0Z"/></g><path d="M322.18,114.37c.59,5.4,.83,10.82,.97,16.24,.02,5.46,.57,10.88-.97,16.24-.26,.98-1.75,.97-2,0-.8-2.71-1.02-5.41-1.06-8.12,0-5.42,.1-10.83,.41-16.24,.14-2.71,.35-5.41,.65-8.12,.12-1.17,1.88-1.17,2,0h0Z"/><g><path class="cls-2" d="M493.29,109.38c0,10.83,.52,35.63,.52,46.46"/><path d="M494.29,109.38c.66,7.73,1.01,15.48,1.22,23.23,.11,7.77,.74,15.52-.71,23.23-.19,1.06-1.79,1.09-2,.02-.85-3.88-1.09-7.76-1.19-11.64-.09-7.74-.07-15.49,.15-23.23,.11-3.87,.27-7.75,.52-11.61,.1-1.22,1.9-1.23,2,0h0Z"/></g><path d="M545.15,157.52c.59,5.4,.83,10.82,.97,16.24,.02,5.46,.57,10.88-.97,16.24-.26,.98-1.75,.97-2,0-.8-2.71-1.02-5.41-1.06-8.12,0-5.42,.1-10.83,.41-16.24,.14-2.71,.35-5.41,.65-8.12,.12-1.17,1.88-1.17,2,0h0Z"/><path d="M187.32,342.73c.59,5.4,.83,10.82,.97,16.24,.02,5.46,.57,10.88-.97,16.24-.26,.98-1.75,.97-2,0-.8-2.71-1.02-5.41-1.06-8.12,0-5.42,.1-10.83,.41-16.24,.14-2.71,.35-5.41,.65-8.12,.12-1.17,1.88-1.17,2,0h0Z"/><g><path class="cls-2" d="M173.73,447.02c0,10.83,.51,31.11,.51,41.93"/><path d="M174.73,447.02c.67,6.98,1,13.97,1.22,20.97,.11,7.02,.74,14.01-.71,20.97-.21,1.04-1.77,1.06-1.99,.02-.85-3.5-1.09-7.01-1.19-10.51-.08-6.99-.07-13.98,.16-20.97,.1-3.49,.26-6.99,.52-10.48,.1-1.21,1.9-1.23,2,0h0Z"/></g><path d="M611.68,247.43c.59,5.4,.83,10.82,.97,16.24,.02,5.46,.57,10.88-.97,16.24-.26,.98-1.75,.97-2,0-.8-2.71-1.02-5.41-1.06-8.12,0-5.42,.1-10.83,.41-16.24,.14-2.71,.35-5.41,.65-8.12,.12-1.17,1.88-1.17,2,0h0Z"/><path d="M575.66,592.81c.59,5.4,.83,10.82,.97,16.24,.02,5.46,.57,10.88-.97,16.24-.26,.98-1.75,.97-2,0-.8-2.71-1.02-5.41-1.06-8.12,0-5.42,.1-10.83,.41-16.24,.14-2.71,.35-5.41,.65-8.12,.12-1.17,1.88-1.17,2,0h0Z"/><path d="M636.2,308.28c.59,5.4,.83,10.82,.97,16.24,.02,5.46,.57,10.88-.97,16.24-.26,.98-1.75,.97-2,0-.8-2.71-1.02-5.41-1.06-8.12,0-5.42,.1-10.83,.41-16.24,.14-2.71,.35-5.41,.65-8.12,.12-1.17,1.88-1.17,2,0h0Z"/><path d="M615.74,497.79c.59,5.4,.83,10.82,.97,16.24,.02,5.46,.57,10.88-.97,16.24-.26,.98-1.75,.97-2,0-.8-2.71-1.02-5.41-1.06-8.12,0-5.42,.1-10.83,.41-16.24,.14-2.71,.35-5.41,.65-8.12,.12-1.17,1.88-1.17,2,0h0Z"/><path d="M592.37,398.77c.59,5.4,.83,10.82,.97,16.24,.02,5.46,.57,10.88-.97,16.24-.26,.98-1.75,.97-2,0-.8-2.71-1.02-5.41-1.06-8.12,0-5.42,.1-10.83,.41-16.24,.14-2.71,.35-5.41,.65-8.12,.12-1.17,1.88-1.17,2,0h0Z"/><path d="M575.72,265.41c.59,5.4,.83,10.82,.97,16.24,.02,5.46,.57,10.88-.97,16.24-.26,.98-1.75,.97-2,0-.8-2.71-1.02-5.41-1.06-8.12,0-5.42,.1-10.83,.41-16.24,.14-2.71,.35-5.41,.65-8.12,.12-1.17,1.88-1.17,2,0h0Z"/><path d="M570.32,482.99c.59,5.4,.83,10.82,.97,16.24,.02,5.46,.57,10.88-.97,16.24-.26,.98-1.75,.97-2,0-.8-2.71-1.02-5.41-1.06-8.12,0-5.42,.1-10.83,.41-16.24,.14-2.71,.35-5.41,.65-8.12,.12-1.17,1.88-1.17,2,0h0Z"/><path d="M185.98,206.37c.59,5.4,.83,10.82,.97,16.24,.02,5.46,.57,10.88-.97,16.24-.26,.98-1.75,.97-2,0-.8-2.71-1.02-5.41-1.06-8.12,0-5.42,.1-10.83,.41-16.24,.14-2.71,.35-5.41,.65-8.12,.12-1.17,1.88-1.17,2,0h0Z"/><path d="M168,267.51c.59,5.4,.83,10.82,.97,16.24,.02,5.46,.57,10.88-.97,16.24-.26,.98-1.75,.97-2,0-.8-2.71-1.02-5.41-1.06-8.12,0-5.42,.1-10.83,.41-16.24,.14-2.71,.35-5.41,.65-8.12,.12-1.17,1.88-1.17,2,0h0Z"/><g><path class="cls-2" d="M213.75,405.97c0,10.83-1.03,32.04-1.03,42.87"/><path d="M214.75,405.97c.56,7.17,.53,14.33,.45,21.5-.2,7.17,.08,14.3-1.48,21.37-.22,1.05-1.79,1.05-2,0-1.5-7.15-.69-14.31-.45-21.5,.36-7.14,.86-14.26,1.48-21.37,.1-1.2,1.89-1.22,2,0h0Z"/></g><g><path class="cls-2" d="M123.62,483.73c0,10.83-1.03,32.04-1.03,42.87"/><path d="M124.62,483.73c.56,7.17,.53,14.33,.45,21.5-.2,7.17,.08,14.3-1.48,21.37-.22,1.05-1.79,1.05-2,0-1.5-7.15-.69-14.31-.45-21.5,.36-7.14,.86-14.26,1.48-21.37,.1-1.2,1.89-1.22,2,0h0Z"/></g><g><path class="cls-2" d="M155.44,595.06c0,10.83-1.03,32.04-1.03,42.87"/><path d="M156.44,595.06c.56,7.17,.53,14.33,.45,21.5-.2,7.17,.08,14.3-1.48,21.37-.22,1.05-1.79,1.05-2,0-1.5-7.15-.69-14.31-.45-21.5,.36-7.14,.86-14.26,1.48-21.37,.1-1.2,1.89-1.22,2,0h0Z"/></g><path d="M230.94,476.1c.59,5.4,.83,10.82,.97,16.24,.02,5.46,.57,10.88-.97,16.24-.26,.98-1.75,.97-2,0-.8-2.71-1.02-5.41-1.06-8.12,0-5.42,.1-10.83,.41-16.24,.14-2.71,.35-5.41,.65-8.12,.12-1.17,1.88-1.17,2,0h0Z"/><g><path class="cls-2" d="M211.96,269.31c0,10.83-.05,40.98-.05,51.8"/><path d="M212.96,269.31c.56,8.62,.82,17.26,.94,25.9,.01,8.66,.55,17.3-.99,25.9-.19,1.08-1.82,1.09-2,0-.8-4.32-.99-8.63-1.04-12.95,0-8.64,.12-17.27,.43-25.9,.16-4.32,.37-8.64,.66-12.95,.1-1.21,1.9-1.23,2,0h0Z"/></g><g><path class="cls-2" d="M143.36,340.89c0,10.83-.05,40.98-.05,51.8"/><path d="M144.36,340.89c.56,8.62,.82,17.26,.94,25.9,.01,8.66,.55,17.3-.99,25.9-.19,1.08-1.82,1.09-2,0-.8-4.32-.99-8.63-1.04-12.95,0-8.64,.12-17.27,.43-25.9,.16-4.32,.37-8.64,.66-12.95,.1-1.21,1.9-1.23,2,0h0Z"/></g><g><path class="cls-2" d="M670.43,353.87c0,10.83-.05,40.98-.05,51.8"/><path d="M671.43,353.87c.56,8.62,.82,17.26,.94,25.9,.01,8.66,.55,17.3-.99,25.9-.19,1.08-1.82,1.09-2,0-.8-4.32-.99-8.63-1.04-12.95,0-8.64,.12-17.27,.43-25.9,.16-4.32,.37-8.64,.66-12.95,.1-1.21,1.9-1.23,2,0h0Z"/></g><g><path class="cls-2" d="M652.33,529.98c0,10.83-.05,40.98-.05,51.8"/><path d="M653.33,529.98c.56,8.62,.82,17.26,.94,25.9,.01,8.66,.55,17.3-.99,25.9-.19,1.08-1.82,1.09-2,0-.8-4.32-.99-8.63-1.04-12.95,0-8.64,.12-17.27,.43-25.9,.16-4.32,.37-8.64,.66-12.95,.1-1.21,1.9-1.23,2,0h0Z"/></g><g><path class="cls-2" d="M639.96,400.97c0,10.83-.05,40.98-.05,51.8"/><path d="M640.96,400.97c.56,8.62,.82,17.26,.94,25.9,.01,8.66,.55,17.3-.99,25.9-.19,1.08-1.82,1.09-2,0-.8-4.32-.99-8.63-1.04-12.95,0-8.64,.12-17.27,.43-25.9,.16-4.32,.37-8.64,.66-12.95,.1-1.21,1.9-1.23,2,0h0Z"/></g><path d="M236.33,362.81c.59,5.4,.83,10.82,.97,16.24,.02,5.46,.57,10.88-.97,16.24-.26,.98-1.75,.97-2,0-.8-2.71-1.02-5.41-1.06-8.12,0-5.42,.1-10.83,.41-16.24,.14-2.71,.35-5.41,.65-8.12,.12-1.17,1.88-1.17,2,0h0Z"/><path d="M205.76,530.04c.59,5.4,.83,10.82,.97,16.24,.02,5.46,.57,10.88-.97,16.24-.26,.98-1.75,.97-2,0-.8-2.71-1.02-5.41-1.06-8.12,0-5.42,.1-10.83,.41-16.24,.14-2.71,.35-5.41,.65-8.12,.12-1.17,1.88-1.17,2,0h0Z"/><path d="M212.83,598.96c.59,5.4,.83,10.82,.97,16.24,.02,5.46,.57,10.88-.97,16.24-.26,.98-1.75,.97-2,0-.8-2.71-1.02-5.41-1.06-8.12,0-5.42,.1-10.83,.41-16.24,.14-2.71,.35-5.41,.65-8.12,.12-1.17,1.88-1.17,2,0h0Z"/><g><path class="cls-2" d="M213.75,172.21c0,10.83,1.43,31.64,1.43,42.46"/><path d="M214.75,172.21c.18,4.36,4.77,44.52,.2,43.24-.4-.09-.69-.4-.78-.78-1.57-6.99-1.39-14.05-1.68-21.14-.17-7.11-.3-14.21,.25-21.32,.1-1.2,1.9-1.22,2,0h0Z"/></g><path d="M162.61,159.62c.59,5.4,.83,10.82,.97,16.24,.02,5.46,.57,10.88-.97,16.24-.26,.98-1.75,.97-2,0-.8-2.71-1.02-5.41-1.06-8.12,0-5.42,.1-10.83,.41-16.24,.14-2.71,.35-5.41,.65-8.12,.12-1.17,1.88-1.17,2,0h0Z"/><path d="M283.08,159.62c.59,5.4,.83,10.82,.97,16.24,.02,5.46,.57,10.88-.97,16.24-.26,.98-1.75,.97-2,0-.8-2.71-1.02-5.41-1.06-8.12,0-5.42,.1-10.83,.41-16.24,.14-2.71,.35-5.41,.65-8.12,.12-1.17,1.88-1.17,2,0h0Z"/></svg>