<?xml version="1.0" encoding="UTF-8"?><svg id="Layer_1" xmlns="http://www.w3.org/2000/svg" viewBox="0 0 800 800"><defs><style>.cls-1,.cls-2,.cls-3,.cls-4,.cls-5{stroke:#000;}.cls-1,.cls-2,.cls-4{stroke-width:3.02px;}.cls-1,.cls-2,.cls-4,.cls-5{stroke-miterlimit:24;}.cls-1,.cls-4{fill:#fff;}.cls-6{fill:#fbb040;}.cls-3{stroke-miterlimit:10;}.cls-3,.cls-4,.cls-5{stroke-linecap:round;}.cls-3,.cls-5{fill:none;stroke-width:2.01px;}</style></defs><g id="_4"><path id="background_shape" class="cls-6" d="M621.64,387.09c4.41,95.35-65.02,243.09-185.56,248.66-120.54,5.57-291.62-85.17-296.03-180.51-4.41-95.35,43.21-203.25,163.75-208.82,120.54-5.57,313.43,45.32,317.83,140.67Z"/><path id="head" class="cls-1" d="M298.73,172.22c12.9-7.74,19.91-5.36,37.59-6.48,9.2,6.17,5.08,12.15,2.89,30.97-1.54,13.21-5.16,22.35-14.95,27.43-8.53,4.4-10.24-.81-16.75,6.31-6.51,7.12-1.49,17.11,.06,25.41-8.44,12.68-37.22,2.08-40.14-9.59,1.77-3.14,10.55-4.96,16.83-16.58,4.38-8.11,10.74-21.23,13.35-30.07-10.71-.53-5.75-25.27,1.12-27.4Z"/><path id="ear_inside" class="cls-5" d="M299.39,187.78s-.57-1.24,.66-1.91"/><path id="brow" class="cls-3" d="M318.84,185.65c.98-.81,4.21-1.43,5.83-.17"/><path id="brow-2" class="cls-3" d="M335.93,187.88c-.79-1.04-3.81-2.3-5.69-1.4"/><path id="nose" class="cls-5" d="M327.76,192.2c-1.49,7.32,4.35,8.55,1.74,10.35-.93,.65-2.72,.48-3.67-.39"/><path id="eye" d="M332.52,193.95c-.98-.15-1.66-1.06-1.51-2.08,.15-.98,1.09-1.62,2.08-1.47,.98,.15,1.66,1.06,1.51,2.04-.15,.98-1.09,1.66-2.08,1.51Z"/><path id="eye-2" d="M321.71,192.33c-.98-.15-1.66-1.06-1.51-2.08,.15-.98,1.09-1.62,2.08-1.47,.98,.15,1.66,1.06,1.51,2.04-.15,.98-1.09,1.66-2.08,1.51Z"/><path id="mouth" class="cls-5" d="M325.58,212.14s-5.49,.99-9.32-2.49"/><path id="hair" class="cls-2" d="M307.43,185.05c-.42-.08-1.65-.22-2.8-.25-.03-1.6-.76-2.64-.79-2.69-.77-1.25-2.36-2.9-4.75-2.48-2.84,.49-4.44,3.78-4.73,6-.37,2.87,.79,9.73,7.94,7.83,.5,2.8-3.03,8.78-5.69,9.82-.2-.06-2.27-.11-3.73-6.7-1.85,.17-4.49,1.23-5.61-1.46-1.32-3.14,.93-6.25,1.96-7.38-2.16,.08-3.93-1.37-3.93-3.81,0-2.78,3.11-4.74,6.06-4.6-2.05-1.07-5.13-2.08-4.63-4.99,.65-3.9,4.63-4.63,6.87-5.02-.98-.67-7.1-3.67-5.64-6.62,2.41-4.82,6.7-2.72,9.2-1.82-1.65-2.72-1.4-5.13,.67-7.01,3.17-2.86,8.55-.93,9.93,1.26-.39-2.64,2.22-6.68,4.49-7.18,2.41-.53,7.8,3.25,8.05,5.27,.93-2.19,2.16-5.92,6-5.81,4.12,.11,6.56,5.16,6.73,7.6,.73-1.71,7.38-5.3,9.93-2.78,2.16,2.16,1.15,6.37-1.07,8.11,2.86-.31,6.79,.42,7.6,3.45,.9,3.39-1.26,4.12-3.14,5.64,1.26-.08,5.53,2.66,5.19,5.92-.25,2.58-4.91,2.41-6,2.05,.81,1.71-.62,3.67-3.2,3.95-2.61,.25-3.06-2.16-4.04-4.21-.36,1.51-1.54,3.31-3.14,3.39-3.31,.14-5.02-4.38-5.55-6-.79,1.63-2.47,3.59-4.54,3.98-4.57,.84-5.64-2.24-6.79-4.66-.11,2.41-3.14,4.21-5.27,3.79-2.75-.5-4.63-2.52-6.25-2.95-1.94,.87-.19,5.89,.42,7.91,.1,.35,.31,.6,.25,2.45Z"/><path id="boot" class="cls-1" d="M159.3,609.48c-16.02,1.32-29.06,7.75-39.13,5.65-10.18-2.13-6.49-12.41-2.82-18.64,12.37-20.95,32.12-65.47,40.39-74.53,7.49-8.22,49,5.86,81.9,17.22-8.11,19.86-28.45,65.69-33.05,80.75-20.14-5.25-38.68-11.16-47.3-10.46Z"/><path id="tshirt" class="cls-1" d="M312.11,365.22c-16.69-1.4-93.94-17.73-114.69-21.85,1.99-15.45,25.24-67.2,28.05-72.14,11.84-20.73,28.73-33.31,51.19-34.52,0,8.98,11.22,25.65,31.14,14.68,7.69,9.59,6.58,20.76,6.81,24.77,.78,13.84-.48,39.02-1.32,55.59-.65,13.15-.42,22.61-1.18,33.46Z"/><path id="pants" class="cls-2" d="M206.57,617.21c7.95-27.19,14.47-44.93,21.06-67.29,.35-1.18-.19-2.46-1.3-2.99-7.33-3.56-19.16-11.16-35.95-21.22-49.82-29.88-13.77-124.15,6.92-184.1,.4-1.16,1.54-1.85,2.75-1.67,30.91,4.83,79.18,20.44,109.8,24.59,1.33,.18,2.31,1.34,2.18,2.68-2.08,21.29,11.28,57.23,32.31,72.53,31.95,23.25,50.71,32.82,100.3,62.97,29.65,18.04,75.98,45.61,80.22,86.81,4.66,45.35-36.49,65.47-76.94,64.68-82.89-1.58-173.87-19.49-239.49-33.79-1.43-.31-2.28-1.79-1.86-3.2Z"/><path id="arm" class="cls-1" d="M231.18,308.68c26.45-16.35,47.01-17.36,64.12-4.12,9.56,55.03,9.73,76.21,14.16,86.33,16.18,16.89,83.02,68.1,100.33,78.87,23.59,14.67,61.29,28.33,55.65,34.14-3.17,3.25-24.4-7.83-24.77-6.62-.28,1.04,31.41,11.16,28.3,18.51-2.55,6.06-34.05-11.81-34.7-10.57-.67,1.4,32.4,17.14,28.97,22.52-4.29,6.76-33.1-10.55-34.89-11.28-1.77-.73,16.13,10.88,12.76,15.31-2.89,3.81-14.89-3.48-19.63-6.11-4.21-2.36-16.97-14.56-25.86-18.29-10.24-4.32-79.88-41.43-120.33-67.88-27.6-18.06-28.95-43.73-31.33-59.58-2.8-18.74-10.46-37.05-12.79-71.24Z"/><path id="sleeve" class="cls-1" d="M295.32,304.67s-56.97,3.93-63.81,4.68c-2.27-10.85,1.82-43.64,32.28-44.49,29.62-.81,31.53,39.8,31.53,39.8Z"/><g id="dog"><path class="cls-1" d="M627.56,627.79c12.49,.06,56.76-33.47,62.17-52.96-.46,12.81-2.99,16.29-5.96,21.88-11.49,21.62-39.07,39.08-48.92,40.25"/><path class="cls-2" d="M677.19,595.76l2.91,3.12c1.59,1.97,1.01,.42,1.27-.08l6.78-12.82c.59-1.04,.93-7.39,.59-6.39l-11.54,16.18Z"/><path class="cls-1" d="M643.76,610.8c-.2,7.83-.76,26.44-8.03,26.75-3.77,.16-24.8,1.07-28.16,1.3-1.87,.13-27.24-11.66-27.91-17.08-.42-3.35-6.77-11.29-9.52-23.39-4.12-18.14-10.44-26.31-6.35-56.83,.86-6.45,.82-18.53-3.22-16.25-4.19,2.36-13.71,1.89-25.93,1.81-9.28-.06-11.04-8.35-10.67-13.1,.48-6.17,19.62-10.84,23.28-18.51,4.18-8.77,33.48-16.01,40.61,6.81,7.06,22.6,9.27,34.86,35.58,58.74,18.77,17.03,20.82,30.7,20.33,49.74Z"/><path class="cls-4" d="M573.11,500.37c2.23,2.97,2.73,8.89,2.36,11.45-.44,3.02-3.03,8.58,2.18,11.79,6.34,3.9,12.66,1.88,15.29-4.13,2.58-5.9-5.86-19.07-6.9-21.45"/><path class="cls-4" d="M606.95,585.41c-2.21,1.13-10.44,5.68-13.89,15.38-3.26,9.17-1.06,19.6,5.59,27.59,.26,.32-.03,.7-.44,.63-2.56-.44-5.28,.75-7.6,1.89-6.24,3.07-3.88,5.81-2.33,6.98,2.57,1.93,11.93,1.39,20.17,.93"/><path class="cls-2" d="M527.56,510.67c1.27-.09,2.23-.05,3.86,1.5,2.99,2.84-4.5,7.14-6.01,6.27-.88-.51,.17-7.63,2.14-7.77Z"/><path class="cls-4" d="M547.22,520.79c-2.26,1.91-4.32,2.67-6.37,3.43-3.76,1.39-8.4,1.89-11.06,1.61"/><path class="cls-4" d="M580.79,580.22c-4.1,4.78,7.51,53.25,.15,56.62-4.58,2.1-23.45,3.98-13.35-8.15,6.83-8.19-1.55-42.28-4.01-55.64"/><path class="cls-2" d="M591.74,537.25c-9.87-.69-12.73,4.43-11.54,10.76,.49,2.58,5.76,6.64,8.44,14.95,2.07,6.41,7.71,2.46,13.14,4.66,3.51,1.42,7.72,12.12,16.06,10.3,10.46-2.28,11.37-9.62,8.99-12.01-7.73-7.73-13.97-13.97-23.19-25.86-1.84-2.37-6.15-2.4-11.9-2.8Z"/><path class="cls-2" d="M589.32,505.5c-1.55-1.41-4.66,1.03-5.42,3.06-.91,2.46,1.53,4.01,.59,6.24-.86,2.06-3.23,1.46-5.42,4.24-.44,.56-2.13,3.3-2,3.41,2.12,1.88,8.71,3.18,10.95,2.36,3.4-1.25,4.03-4.58,4.36-5.42,1.4-3.59,.59-6.43-.12-8.36-.82-2.24-1.65-4.36-2.94-5.53Z"/><path class="cls-2" d="M624.18,605.52c-.89-3.33-5.87-10.66-8.59-10.5-2.92,.17-7.17,.15-6.92,9.07,.17,6.02-7.01,4.94-6.92,7.16,.11,2.62,4.48,5.25,8.35,5.25,7.06,0,15.83-4.44,14.08-10.97Z"/><path id="eye-3" d="M553.92,503.38c-1.46-.22-2.47-1.57-2.25-3.09,.22-1.46,1.63-2.41,3.09-2.19,1.46,.22,2.47,1.57,2.25,3.03-.22,1.46-1.63,2.47-3.09,2.25Z"/></g></g></svg>