<?xml version="1.0" encoding="UTF-8" standalone="no"?><!DOCTYPE svg PUBLIC "-//W3C//DTD SVG 1.1//EN" "http://www.w3.org/Graphics/SVG/1.1/DTD/svg11.dtd"><svg width="100%" height="100%" viewBox="0 0 1667 1667" version="1.1" xmlns="http://www.w3.org/2000/svg" xmlns:xlink="http://www.w3.org/1999/xlink" xml:space="preserve" xmlns:serif="http://www.serif.com/" style="fill-rule:evenodd;clip-rule:evenodd;stroke-miterlimit:10;"><rect id="Window" x="0" y="0" width="1666.67" height="1666.67" style="fill:none;"/><g id="Window1" serif:id="Window"><path d="M246.047,1248.54c-199.891,-226.405 -34.17,-691.19 173.776,-926.386c207.935,-235.199 1012.02,-98.238 1063.82,159.178c88.182,438.232 -262.781,848.951 -493.829,949.884c-289.817,126.599 -656.318,-83.632 -743.768,-182.676Z" style="fill:#FFB41D;"/><g><g><path d="M627.332,175.947l-420.31,-0c-33.27,-0 -60.242,26.258 -60.242,58.648l0,919.048c0,32.39 26.972,58.648 60.242,58.648l420.31,-0c33.27,-0 60.242,-26.258 60.242,-58.648c9.276,-291.455 -7.369,-580.541 -0,-919.048c-0,-32.39 -26.972,-58.648 -60.242,-58.648Z" style="fill-rule:nonzero;stroke:#000;stroke-width:4.17px;"/><path d="M662.466,248.312l0,891.617c0,20.522 -17.519,37.348 -39.472,38.381c-0.707,0.046 -1.416,0.046 -2.123,0.046l-404.469,0c-0.732,0 -1.439,0 -2.145,-0.046c-21.931,-1.033 -39.473,-17.859 -39.473,-38.381c-0,-0 -4.088,-414.391 -1.748,-447.158c2.337,-32.77 1.748,-444.459 1.748,-444.459c-0,-21.188 18.674,-38.428 41.618,-38.428l61.708,0c4.576,0 8.302,3.488 8.302,7.826c-0,7.095 3.11,13.522 8.158,18.183c5.045,4.659 12.025,7.552 19.735,7.552l208.638,-0c15.421,-0 27.895,-11.548 27.895,-25.735c0,-2.156 0.92,-4.13 2.429,-5.532c1.51,-1.423 3.584,-2.294 5.871,-2.294l61.733,0c22.919,0 41.595,17.24 41.595,38.428Z" style="fill:#fff;fill-rule:nonzero;stroke:#000;stroke-width:4.17px;"/></g><path d="M627.813,294.156c0,-1.17 -0.95,-2.119 -2.119,-2.119l-414.139,-0c-1.17,-0 -2.119,0.949 -2.119,2.119l-0,101.732c-0,1.17 0.949,2.119 2.119,2.119l414.139,0c1.169,0 2.119,-0.949 2.119,-2.119l0,-101.732Z" style="stroke:#000;stroke-width:6.25px;stroke-linecap:round;stroke-linejoin:round;stroke-miterlimit:1.5;"/><g><path d="M627.813,459.863c0,-4.619 -3.749,-8.368 -8.367,-8.368l-401.643,0c-4.618,0 -8.367,3.749 -8.367,8.368l-0,460.957c-0,4.618 3.749,8.367 8.367,8.367l401.643,0c4.618,0 8.367,-3.749 8.367,-8.367l0,-460.957Z" style="fill:none;stroke:#000;stroke-width:6.25px;stroke-linecap:round;stroke-linejoin:round;stroke-miterlimit:1.5;"/><path d="M244.836,510.213l333.548,-0" style="fill:none;stroke:#000;stroke-width:6.25px;stroke-linecap:round;stroke-linejoin:round;stroke-miterlimit:1.5;"/><path d="M244.836,572.519l333.548,0" style="fill:none;stroke:#000;stroke-width:6.25px;stroke-linecap:round;stroke-linejoin:round;stroke-miterlimit:1.5;"/><path d="M244.836,638.638l333.548,-0" style="fill:none;stroke:#000;stroke-width:6.25px;stroke-linecap:round;stroke-linejoin:round;stroke-miterlimit:1.5;"/><path d="M244.836,704.756l168.891,0" style="fill:none;stroke:#000;stroke-width:6.25px;stroke-linecap:round;stroke-linejoin:round;stroke-miterlimit:1.5;"/></g><circle cx="417.331" cy="1048.77" r="40.136" style="stroke:#000;stroke-width:6.25px;stroke-linecap:round;stroke-linejoin:round;stroke-miterlimit:1.5;"/></g><g><g><path d="M1016.99,538.822c0,-1.276 -1.035,-2.312 -2.311,-2.312l-235.505,1.02l-182.072,1.772l-185.96,-2.792c-1.276,0 -2.311,1.036 -2.311,2.312l-0,110.937c-0,1.276 1.035,2.311 2.311,2.311l603.537,0c1.276,0 2.311,-1.035 2.311,-2.311l0,-110.937Z" style="fill:#fff;stroke:#000;stroke-width:4.17px;stroke-linecap:round;stroke-linejoin:round;stroke-miterlimit:1.5;"/><path d="M655.356,573.888c0.001,-0.126 -0.921,-0.202 -1.681,-0.201c-9.678,0.004 -19.353,0.053 -29.031,0.061c-27.337,0.022 -54.677,0.012 -82.014,0.012c-0.758,-0 -1.707,0.073 -1.707,0.2c-0,2.489 0.403,4.978 0.368,7.466c-0.011,0.831 -0.332,1.661 -0.364,2.492c-0.005,0.125 0.927,0.2 1.676,0.2c36.972,-0.002 73.945,-0 110.917,-0c0.755,-0 1.71,-0.073 1.697,-0.201c0.398,-0.924 -0.114,-1.848 0.018,-2.773c0.189,-1.335 0.785,-2.668 0.829,-4.004c0.036,-1.083 -0.425,-2.169 -0.708,-3.252Z" style="stroke:#000;stroke-width:4.17px;stroke-linecap:round;stroke-linejoin:round;stroke-miterlimit:1.5;"/><path d="M960.937,573.888c0.003,-0.126 -2.117,-0.202 -3.864,-0.201c-22.25,0.004 -44.491,0.053 -66.74,0.061c-62.845,0.022 -125.696,0.012 -188.541,0.012c-1.742,-0 -3.925,0.073 -3.925,0.2c0,2.489 0.928,4.978 0.847,7.466c-0.027,0.831 -0.764,1.661 -0.838,2.492c-0.011,0.125 2.132,0.2 3.854,0.2c84.995,-0.002 169.991,-0 254.987,-0c1.735,-0 3.931,-0.073 3.9,-0.201c0.915,-0.924 -0.261,-1.848 0.041,-2.773c0.435,-1.335 1.806,-2.668 1.907,-4.004c0.082,-1.083 -0.978,-2.169 -1.628,-3.252Z" style="stroke:#000;stroke-width:4.17px;stroke-linecap:round;stroke-linejoin:round;stroke-miterlimit:1.5;"/><path d="M803.993,605.657c0.002,-0.132 -2.118,-0.211 -3.864,-0.211c-22.251,0.005 -44.491,0.057 -66.741,0.065c-62.845,0.022 -125.695,0.012 -188.541,0.012c-1.742,-0 -3.924,0.076 -3.924,0.209c-0,2.597 0.927,5.195 0.847,7.791c-0.027,0.867 -0.764,1.733 -0.838,2.601c-0.012,0.131 2.132,0.208 3.853,0.208c84.996,-0.001 169.991,0 254.987,0c1.736,0 3.931,-0.076 3.901,-0.209c0.915,-0.964 -0.261,-1.929 0.04,-2.894c0.435,-1.393 1.807,-2.785 1.908,-4.178c0.082,-1.131 -0.978,-2.264 -1.628,-3.394Z" style="stroke:#000;stroke-width:4.17px;stroke-linecap:round;stroke-linejoin:round;stroke-miterlimit:1.5;"/><path d="M509.759,595.669c0,16.429 -13.318,29.745 -29.745,29.745c-16.429,0 -29.747,-13.316 -29.747,-29.745c-0,-16.429 13.318,-29.745 29.747,-29.745c16.427,-0 29.745,13.316 29.745,29.745" style="fill-rule:nonzero;stroke:#000;stroke-width:4.17px;stroke-linejoin:round;stroke-miterlimit:2;"/></g><g><path d="M1016.99,696.602c0,-1.276 -1.035,-2.312 -2.311,-2.312l-206.587,-1.395l-219.883,1.395l-177.067,0c-1.276,0 -2.311,1.036 -2.311,2.312l-0,110.937c-0,1.276 1.035,2.311 2.311,2.311l603.537,0c1.276,0 2.311,-1.035 2.311,-2.311l0,-110.937Z" style="fill:#fff;stroke:#000;stroke-width:4.17px;stroke-linecap:round;stroke-linejoin:round;stroke-miterlimit:1.5;"/><path d="M655.356,731.668c0.001,-0.126 -0.921,-0.202 -1.681,-0.202c-9.678,0.005 -19.353,0.054 -29.031,0.062c-27.337,0.022 -54.677,0.012 -82.014,0.012c-0.758,-0 -1.707,0.073 -1.707,0.2c-0,2.489 0.403,4.978 0.368,7.466c-0.011,0.831 -0.332,1.661 -0.364,2.492c-0.005,0.125 0.927,0.2 1.676,0.2c36.972,-0.002 73.945,-0 110.917,-0c0.755,-0 1.71,-0.073 1.697,-0.201c0.398,-0.924 -0.114,-1.848 0.018,-2.773c0.189,-1.335 0.785,-2.668 0.829,-4.004c0.036,-1.084 -0.425,-2.169 -0.708,-3.252Z" style="stroke:#000;stroke-width:4.17px;stroke-linecap:round;stroke-linejoin:round;stroke-miterlimit:1.5;"/><path d="M960.937,731.668c0.003,-0.126 -2.117,-0.202 -3.864,-0.202c-22.25,0.005 -44.491,0.054 -66.74,0.062c-62.845,0.022 -125.696,0.012 -188.541,0.012c-1.742,-0 -3.925,0.073 -3.925,0.2c0,2.489 0.928,4.978 0.847,7.466c-0.027,0.831 -0.764,1.661 -0.838,2.492c-0.011,0.125 2.132,0.2 3.854,0.2c84.995,-0.002 169.991,-0 254.987,-0c1.735,-0 3.931,-0.073 3.9,-0.201c0.915,-0.924 -0.261,-1.848 0.041,-2.773c0.435,-1.335 1.806,-2.668 1.907,-4.004c0.082,-1.084 -0.978,-2.169 -1.628,-3.252Z" style="stroke:#000;stroke-width:4.17px;stroke-linecap:round;stroke-linejoin:round;stroke-miterlimit:1.5;"/><path d="M803.993,763.437c0.002,-0.132 -2.118,-0.211 -3.864,-0.211c-22.251,0.005 -44.491,0.057 -66.741,0.065c-62.845,0.022 -125.695,0.012 -188.541,0.012c-1.742,-0 -3.924,0.076 -3.924,0.209c-0,2.597 0.927,5.194 0.847,7.791c-0.027,0.867 -0.764,1.733 -0.838,2.601c-0.012,0.131 2.132,0.208 3.853,0.208c84.996,-0.001 169.991,0 254.987,0c1.736,0 3.931,-0.076 3.901,-0.209c0.915,-0.964 -0.261,-1.929 0.04,-2.894c0.435,-1.393 1.807,-2.785 1.908,-4.178c0.082,-1.131 -0.978,-2.264 -1.628,-3.394Z" style="stroke:#000;stroke-width:4.17px;stroke-linecap:round;stroke-linejoin:round;stroke-miterlimit:1.5;"/><path d="M509.759,753.449c0,16.429 -13.318,29.745 -29.745,29.745c-16.429,-0 -29.747,-13.316 -29.747,-29.745c-0,-16.429 13.318,-29.745 29.747,-29.745c16.427,-0 29.745,13.316 29.745,29.745" style="fill-rule:nonzero;stroke:#000;stroke-width:4.17px;stroke-linejoin:round;stroke-miterlimit:2;"/></g><g><path d="M1016.99,854.772c0,-1.275 -1.035,-2.311 -2.311,-2.311l-259.947,1.494l-221.967,-1.494l-121.623,-0c-1.276,-0 -2.311,1.036 -2.311,2.311l-0,110.938c-0,1.275 1.035,2.311 2.311,2.311l603.537,-0c1.276,-0 2.311,-1.036 2.311,-2.311l0,-110.938Z" style="fill:#fff;stroke:#000;stroke-width:4.17px;stroke-linecap:round;stroke-linejoin:round;stroke-miterlimit:1.5;"/><path d="M655.356,889.839c0.001,-0.127 -0.921,-0.202 -1.681,-0.202c-9.678,0.004 -19.353,0.054 -29.031,0.062c-27.337,0.021 -54.677,0.011 -82.014,0.011c-0.758,0 -1.707,0.073 -1.707,0.201c-0,2.489 0.403,4.977 0.368,7.465c-0.011,0.831 -0.332,1.661 -0.364,2.492c-0.005,0.126 0.927,0.2 1.676,0.2c36.972,-0.001 73.945,0 110.917,0c0.755,0 1.71,-0.073 1.697,-0.201c0.398,-0.923 -0.114,-1.848 0.018,-2.772c0.189,-1.335 0.785,-2.669 0.829,-4.004c0.036,-1.084 -0.425,-2.17 -0.708,-3.252Z" style="stroke:#000;stroke-width:4.17px;stroke-linecap:round;stroke-linejoin:round;stroke-miterlimit:1.5;"/><path d="M960.937,889.839c0.003,-0.127 -2.117,-0.202 -3.864,-0.202c-22.25,0.004 -44.491,0.054 -66.74,0.062c-62.845,0.021 -125.696,0.011 -188.541,0.011c-1.742,0 -3.925,0.073 -3.925,0.201c0,2.489 0.928,4.977 0.847,7.465c-0.027,0.831 -0.764,1.661 -0.838,2.492c-0.011,0.126 2.132,0.2 3.854,0.2c84.995,-0.001 169.991,0 254.987,0c1.735,0 3.931,-0.073 3.9,-0.201c0.915,-0.923 -0.261,-1.848 0.041,-2.772c0.435,-1.335 1.806,-2.669 1.907,-4.004c0.082,-1.084 -0.978,-2.17 -1.628,-3.252Z" style="stroke:#000;stroke-width:4.17px;stroke-linecap:round;stroke-linejoin:round;stroke-miterlimit:1.5;"/><path d="M803.993,921.607c0.002,-0.132 -2.118,-0.21 -3.864,-0.21c-22.251,0.004 -44.491,0.056 -66.741,0.064c-62.845,0.023 -125.695,0.012 -188.541,0.012c-1.742,0 -3.924,0.076 -3.924,0.21c-0,2.597 0.927,5.194 0.847,7.791c-0.027,0.867 -0.764,1.733 -0.838,2.6c-0.012,0.131 2.132,0.209 3.853,0.209c84.996,-0.002 169.991,-0 254.987,-0c1.736,-0 3.931,-0.076 3.901,-0.21c0.915,-0.964 -0.261,-1.928 0.04,-2.893c0.435,-1.393 1.807,-2.785 1.908,-4.179c0.082,-1.131 -0.978,-2.264 -1.628,-3.394Z" style="stroke:#000;stroke-width:4.17px;stroke-linecap:round;stroke-linejoin:round;stroke-miterlimit:1.5;"/><path d="M509.759,911.62c0,16.429 -13.318,29.745 -29.745,29.745c-16.429,-0 -29.747,-13.316 -29.747,-29.745c-0,-16.43 13.318,-29.746 29.747,-29.746c16.427,0 29.745,13.316 29.745,29.746" style="fill-rule:nonzero;stroke:#000;stroke-width:4.17px;stroke-linejoin:round;stroke-miterlimit:2;"/></g></g><g><path d="M1133.86,1403.52c26.923,-5.564 110.172,-5.904 142.279,-5.35c-2.201,31.797 -2.221,117.967 -19.584,121.662c-19.122,4.041 -108.335,2.965 -147.147,2.991c-11.554,0.011 -36.741,-2.615 -31.441,-18.356c5.251,-15.538 36.685,-14.455 51.453,-35.416c7.934,-11.225 6.198,-35.768 4.44,-65.531Z" style="fill:#fff;fill-rule:nonzero;stroke:#000;stroke-width:4.17px;stroke-miterlimit:24;"/><path d="M1322.29,1416.78c26.206,-5.614 108.86,-5.996 140.803,-5.454c0.868,32.013 9.126,118.766 -7.765,122.494c-18.604,4.078 -107.318,3.036 -145.864,3.082c-11.476,0.016 -36.744,-2.616 -32.993,-18.466c3.724,-15.645 35.049,-14.57 47.704,-35.679c6.802,-11.305 2.72,-36.014 -1.885,-65.977Z" style="fill:#fff;fill-rule:nonzero;stroke:#000;stroke-width:4.17px;stroke-miterlimit:24;"/><path d="M1061.83,676.325c12.008,3.35 105.122,-3.321 135.617,-3.61c38.633,-0.365 -6.303,83.128 -6.303,83.128l-134.312,-4.384c-53.901,-8.213 -93.321,-84.29 -133.748,-94.178c-24.006,-5.87 -54.949,-16.129 -50.514,-24.036c3.543,-6.32 20.988,-0.199 19.133,-4.425c-3.002,-6.819 -31.401,-17.668 -30.327,-24.197c1.682,-10.308 33.853,6.29 37.861,3.878c1.589,-0.959 -33.686,-25.678 -28.379,-31.577c9.91,-11.021 42.129,23.251 40.647,17.246c-2.123,-8.625 -17.352,-28.738 -7.471,-33.753c7.547,-3.828 21.74,29.821 30.121,29.471c7.532,-0.319 0.839,-24.887 11.264,-25.451c16.99,-0.923 11.8,45.139 24.211,54.001c24.936,17.804 63.932,50.02 92.2,57.887Z" style="fill:#fff;fill-rule:nonzero;stroke:#000;stroke-width:4.17px;stroke-linejoin:round;stroke-miterlimit:2;"/><path d="M1270.24,1048.57c-0.899,72.254 5.988,294.393 3.423,349.765c-0.03,0.638 -78.751,18.497 -140.212,10.203c-13.834,-69.987 -31.222,-267.18 -24.753,-325.423c8.025,-72.25 39.15,-170.618 94.193,-271.006c70.261,-4.341 275.22,7.224 263.825,54.493c-18.759,77.819 -17.113,143.585 -29.085,231.954c-6.801,50.198 18.734,226.8 23.017,312.936c0.031,0.642 -76.442,18.66 -138.285,10.338c-14.314,-49.283 -40.466,-290.36 -52.123,-373.26Z" style="stroke:#000;stroke-width:4.17px;stroke-linejoin:round;stroke-miterlimit:2;"/><path d="M1412.69,765.879c6.838,28.961 27.061,85.937 24.519,131.33c-1.95,34.822 -2.712,87.254 -2.536,95.265c0.979,37.635 -35.91,49.749 -28.567,59.207c3.952,5.098 19.912,-6.931 25.082,-5.031c4.351,1.599 -24.71,39.117 -16.401,44.76c6.562,4.455 26.723,-30.837 28.408,-30.02c1.582,1.052 -13.976,44.467 -5.808,47.122c9.529,3.093 17.706,-40.773 20.805,-40.479c4.058,0.385 -3.296,37.222 4.718,38.725c11.955,2.242 8.839,-48.029 12.473,-48.676c8.362,-1.481 8.106,25.668 18.429,26.675c6.865,0.663 1.164,-32.073 -2.185,-50.768c-4.31,-24.101 8.363,-59.142 14.343,-84.352c15.253,-64.047 3.153,-123.364 -5.812,-187.85c-16.406,-20.194 -66.049,0.234 -87.468,4.092Z" style="fill:#fff;fill-rule:nonzero;stroke:#000;stroke-width:4.17px;stroke-linecap:round;stroke-miterlimit:24;"/><path d="M1285.38,512.098c22.914,-10.351 60.771,-2.135 78.579,24.43c11.831,17.617 2.097,47.608 5.037,55.815c3.961,10.938 18.421,28.883 28.55,42.523c-31.129,22.933 -117.847,15.574 -162.311,-5.055c7.244,-9.713 14.784,-23.609 15.813,-38.241c1.378,-19.581 -11.712,-35.787 -3.883,-53.806c4.2,-9.686 14.414,-27.341 38.215,-25.666Z" style="fill-rule:nonzero;stroke:#000;stroke-width:4.17px;stroke-miterlimit:24;"/><path d="M1344.78,646.387c0.649,23.647 16.91,37.289 18.788,43.471c-7.075,24.648 -59.734,37.177 -66.801,-5.529c5.927,-13.776 15.818,-30.799 7.295,-45.757c-8.473,-14.902 -13.463,-6.507 -26.555,-17.553c-15.012,-12.665 -17.696,-29.97 -15.163,-53.454c3.625,-33.524 0.426,-39.135 18.808,-46.204c29.168,25.714 48.106,18.542 49.041,28.168c0.501,5.09 1.237,17.858 2.517,16.26c8.667,-10.863 17.943,-0.191 18.37,6.702c0.559,9.072 -3.362,15.659 -12.853,15.533c-1.482,-0.021 5.352,14.404 6.553,58.363" style="fill:#fff;fill-rule:nonzero;stroke:#000;stroke-width:4.17px;stroke-linejoin:round;stroke-miterlimit:2;"/><path d="M1344.78,646.387c0.649,23.647 16.91,37.289 18.788,43.471c-7.075,24.648 -59.734,37.177 -66.801,-5.529c5.927,-13.776 15.818,-30.799 7.295,-45.757c-8.473,-14.902 -13.463,-6.507 -26.555,-17.553c-15.012,-12.665 -17.696,-29.97 -15.163,-53.454c3.625,-33.524 0.426,-39.135 18.808,-46.204c29.168,25.714 48.106,18.542 49.041,28.168c0.501,5.09 1.237,17.858 2.517,16.26c8.667,-10.863 17.943,-0.191 18.37,6.702c0.559,9.072 -3.362,15.659 -12.853,15.533c-1.482,-0.021 5.352,14.404 6.553,58.363Z" style="fill:none;fill-rule:nonzero;stroke:#000;stroke-width:4.17px;"/><path d="M1302.76,673.871c3.229,18.556 44.863,25.87 56.507,7.065c35.64,-11.407 81.679,-6.475 108.786,18.172c25.314,23.019 32.839,65.275 34.942,71.551c-26.499,18.665 -66.93,8.588 -77.88,9.294c-6.098,0.393 -0.749,22.092 9.337,69.566c-69.209,-3.325 -172.717,-6.405 -243.942,-8.472c-6.524,-10.938 10.429,-64.169 12.604,-79.979c-14.781,-3.21 -27.489,-1.422 -50.862,-6.413c-9.001,-1.922 -12.698,-82.102 20.458,-81.675c32.462,0.418 55.773,-5.079 130.05,0.891Z" style="fill:#fff;fill-rule:nonzero;stroke:#000;stroke-width:4.17px;stroke-miterlimit:24;"/><path d="M1339.75,577.549c0,0 3.298,-2.977 0.179,-4.681" style="fill:none;fill-rule:nonzero;stroke:#000;stroke-width:4.17px;stroke-linecap:round;"/><path d="M1304.8,555.177c-0.326,-0.294 -4.005,-4.109 -9.405,-2.523" style="fill:none;fill-rule:nonzero;stroke:#000;stroke-width:4.17px;stroke-linecap:round;"/><path d="M1272.99,552.796c1.904,-1.146 6.185,-3.738 10.297,-1.045" style="fill:none;fill-rule:nonzero;stroke:#000;stroke-width:4.17px;stroke-linecap:round;"/><path d="M1288.1,579.603c-4.058,1.561 -7.545,0.592 -8.203,-1.3c-1.61,-4.633 7.424,-3.161 7.668,-15.619" style="fill:none;fill-rule:nonzero;stroke:#000;stroke-width:4.17px;stroke-linecap:round;"/><path d="M1301.11,594.288c-5.05,-0.28 -10.1,-0.56 -15.158,-0.84c-1.163,6.14 3.144,11.099 7.064,11.277c3.89,0.176 8.588,-4.277 8.094,-10.437Z" style="fill:none;fill-rule:nonzero;stroke:#000;stroke-width:4.17px;stroke-linecap:round;"/><path d="M1278.74,557.087c1.717,0.121 3.042,1.638 2.915,3.437c-0.126,1.791 -1.651,3.115 -3.367,2.995c-1.792,-0.126 -3.116,-1.651 -2.99,-3.442c0.127,-1.8 1.651,-3.116 3.442,-2.99m0,-0c1.717,0.121 3.042,1.638 2.915,3.437c-0.126,1.791 -1.651,3.115 -3.367,2.995c-1.792,-0.126 -3.116,-1.651 -2.99,-3.442c0.127,-1.8 1.651,-3.116 3.442,-2.99" style="fill-rule:nonzero;"/><path d="M1298.55,558.809c1.717,0.121 3.042,1.638 2.915,3.437c-0.126,1.792 -1.651,3.116 -3.367,2.995c-1.792,-0.126 -3.116,-1.651 -2.99,-3.442c0.127,-1.799 1.651,-3.116 3.442,-2.99m0,0c1.717,0.121 3.042,1.638 2.915,3.437c-0.126,1.792 -1.651,3.116 -3.367,2.995c-1.792,-0.126 -3.116,-1.651 -2.99,-3.442c0.127,-1.799 1.651,-3.116 3.442,-2.99" style="fill-rule:nonzero;"/></g></g><g id="Layer-1" serif:id="Layer 1"></g></svg>